<svg xmlns="http://www.w3.org/2000/svg" width="45" height="45" viewBox="0 0 45 45"><path d="M18.9117 14.3766C18.9382 14.3657 19.5657 14.1034 19.8841 14.4911C19.9487 14.5704 20.0284 14.6362 20.1186 14.6845C20.2088 14.7329 20.3077 14.7629 20.4096 14.7728C20.5114 14.7827 20.6142 14.7723 20.712 14.7423C20.8099 14.7122 20.9008 14.6631 20.9795 14.5977C21.139 14.4667 21.2398 14.2777 21.26 14.0723C21.2801 13.8669 21.2179 13.6619 21.0869 13.5023C20.2259 12.4536 18.8712 12.6849 18.2772 12.9542C18.0907 13.0387 17.9452 13.1936 17.8726 13.385C17.7999 13.5764 17.806 13.7887 17.8894 13.9757C18.0607 14.3681 18.5201 14.5448 18.9117 14.3766ZM24.5141 14.776C24.6292 14.7762 24.7429 14.7508 24.847 14.7016C24.9511 14.6525 25.0429 14.5808 25.1159 14.4919C25.4312 14.108 26.0463 14.3595 26.0876 14.3774C26.2748 14.4545 26.4847 14.4557 26.6727 14.3806C26.8608 14.3056 27.0122 14.1602 27.0949 13.9754C27.1775 13.7905 27.1849 13.5807 27.1154 13.3905C27.046 13.2003 26.9052 13.0447 26.7229 12.9566C26.128 12.6872 24.7741 12.456 23.9131 13.5047C23.8196 13.6185 23.7603 13.7566 23.7422 13.9029C23.7242 14.0491 23.748 14.1975 23.811 14.3307C23.874 14.4639 23.9735 14.5765 24.098 14.6553C24.2224 14.7342 24.3668 14.776 24.5141 14.776ZM19.7798 20.38C19.7074 20.4523 19.65 20.5381 19.6108 20.6325C19.5717 20.727 19.5515 20.8282 19.5515 20.9305C19.5515 21.0327 19.5717 21.134 19.6108 21.2284C19.65 21.3229 19.7074 21.4087 19.7798 21.4809C20.5295 22.2306 21.5151 22.6059 22.5 22.6059C23.4849 22.6059 24.4705 22.2306 25.2203 21.4809C25.2925 21.4086 25.3499 21.3228 25.389 21.2284C25.4281 21.1339 25.4483 21.0327 25.4483 20.9305C25.4483 20.8282 25.4281 20.727 25.389 20.6326C25.3499 20.5381 25.2925 20.4523 25.2203 20.38C25.148 20.3077 25.0622 20.2504 24.9677 20.2113C24.8733 20.1722 24.772 20.152 24.6698 20.152C24.5676 20.152 24.4664 20.1722 24.3719 20.2113C24.2775 20.2504 24.1917 20.3077 24.1194 20.38C23.6894 20.8085 23.1071 21.049 22.5 21.049C21.893 21.049 21.3107 20.8085 20.8806 20.38C20.8084 20.3077 20.7226 20.2503 20.6281 20.2111C20.5337 20.1719 20.4324 20.1518 20.3302 20.1518C20.2279 20.1518 20.1267 20.1719 20.0322 20.2111C19.9378 20.2503 19.852 20.3077 19.7798 20.38Z"></path><path d="M40.9905 21.1917C40.5794 20.9148 40.106 20.7443 39.6127 20.6954C39.1195 20.6464 38.6218 20.7207 38.1643 20.9114L33.1349 22.9823C32.2085 22.2894 31.0562 21.9079 29.7093 21.8378C30.0285 21.0827 30.2076 20.2496 30.2309 19.3854C30.2777 19.3932 30.3166 19.3932 30.3633 19.3932C31.2431 19.3932 32.6912 19.0351 33.1739 16.7929C34.5363 16.1856 36.0078 15.189 36.1791 13.7176C36.3114 12.4875 35.5095 11.2574 33.7811 10.0584C33.6643 9.98834 33.5787 9.91049 33.5008 9.81706C33.3685 9.67692 33.2673 9.46671 33.1972 9.20979L32.3642 5.57397C31.9126 2.91134 27.5216 1.67344 23.9169 1.1051C22.9904 0.964965 22.0095 0.964965 21.0752 1.1051C17.4783 1.67344 13.0873 2.91134 12.6513 5.52726L11.8105 9.17865C11.7482 9.38886 11.6626 9.67692 11.5847 9.77813C11.5769 9.78592 11.5691 9.80149 11.5613 9.80928C11.5224 9.85599 11.4134 9.93384 11.2188 10.0662C9.49041 11.2574 8.6885 12.4875 8.82864 13.7176C8.99214 15.1968 10.4636 16.1856 11.8261 16.7929C12.3088 19.0351 13.7569 19.3932 14.6288 19.3932C14.6833 19.3932 14.7223 19.3932 14.769 19.3854C14.7923 20.2496 14.9714 21.0827 15.2906 21.8378C13.9437 21.9079 12.7915 22.2894 11.865 22.9823L6.83556 20.9114C5.9013 20.5221 4.85026 20.6311 4.00943 21.1917C3.59859 21.4679 3.26218 21.8412 3.02997 22.2785C2.79776 22.7157 2.67691 23.2035 2.67811 23.6986V28.8759C2.67811 29.9192 3.19974 30.869 4.0795 31.4218C4.56998 31.7332 5.13054 31.8889 5.68331 31.8889C6.12708 31.8889 6.57085 31.7955 6.99127 31.5931L9.31134 30.4875C9.35027 30.9547 9.3892 31.2583 9.40477 31.3206C8.75857 32.0836 8.33037 33.049 8.19802 34.1078L7.7776 37.4633C7.72303 37.9439 7.80689 38.43 8.0193 38.8644C8.23171 39.2989 8.56383 39.6637 8.97657 39.9157C13.3987 42.6095 17.9532 43.9876 22.5 44.0031C27.0467 43.9876 31.6012 42.6095 36.0311 39.908C36.872 39.3941 37.3391 38.4287 37.2145 37.4555L36.8019 34.1078C36.6695 33.049 36.2413 32.0836 35.5951 31.3206C35.6107 31.2116 35.6574 30.9235 35.6886 30.4875L38.0086 31.5931C38.4291 31.7955 38.8728 31.8889 39.3166 31.8889C39.8694 31.8889 40.4299 31.7332 40.9204 31.4218C41.8002 30.869 42.3218 29.9192 42.3218 28.8759V23.6986C42.3218 22.6865 41.8235 21.7522 40.9905 21.1917ZM32.8079 24.8041C34.1237 26.3534 34.2093 28.7981 34.1393 30.1528C34.1176 30.1368 34.0941 30.1238 34.0692 30.1138C34.0692 30.1138 28.0199 27.0775 27.5839 26.8517C27.1946 26.6181 26.8287 26.0498 26.5328 25.2712C27.4204 24.8041 28.1911 24.1579 28.7984 23.3716H29.25C30.8226 23.3716 31.9905 23.8465 32.8079 24.8041ZM23.3719 24.4927H21.628C18.7006 24.4927 16.3105 22.1026 16.3105 19.1752V12.5576C17.7352 11.8024 22.9904 9.4745 28.6894 12.5576V19.1752C28.6894 22.1026 26.2993 24.4927 23.3719 24.4927ZM26.128 27.638C26.0501 28.004 24.8122 28.6424 22.5 28.6424C20.1954 28.6424 18.9576 28.0117 18.8797 27.638C19.3546 27.1242 19.6894 26.4624 19.923 25.824C20.4679 25.9642 21.0441 26.0498 21.628 26.0498H23.3719C23.9558 26.0498 24.532 25.9642 25.077 25.824C25.3183 26.4624 25.6609 27.1242 26.128 27.638ZM31.7102 16.1467C31.461 17.8673 30.6903 17.875 30.2465 17.8361V14.8543L30.4489 14.7531C31.0873 14.4339 31.4844 14.4339 31.5856 14.5039C31.6012 14.5195 31.9126 14.7608 31.7102 16.1467ZM14.7534 17.8361C14.3252 17.875 13.5389 17.8828 13.2897 16.1467C13.0873 14.7608 13.3987 14.5195 13.4143 14.5039C13.5155 14.4261 13.9048 14.4339 14.5432 14.7453L14.7534 14.8543V17.8361ZM15.1271 11.4364C14.8935 11.5844 14.7534 11.8335 14.7534 12.0982V13.1415C13.6245 12.721 12.9082 12.9468 12.4956 13.2505C12.0129 13.6008 11.7404 14.1769 11.6859 14.9711C10.8996 14.5117 10.4247 14.0057 10.378 13.5463C10.3079 12.9468 10.9229 12.1605 12.1608 11.3041C12.3321 11.1873 12.4878 11.0705 12.628 10.9304C18.9186 7.07657 26.5173 7.09214 32.4809 10.9849C32.6133 11.1095 32.7379 11.234 32.8936 11.343C34.077 12.1605 34.692 12.9468 34.6297 13.5385C34.5752 14.0057 34.1003 14.5039 33.314 14.9711C33.2517 14.1769 32.987 13.6008 32.5043 13.2505C32.0917 12.9468 31.3832 12.721 30.2465 13.1415V12.0982C30.2457 11.9623 30.2093 11.8291 30.141 11.7116C30.0727 11.5941 29.9749 11.4966 29.8572 11.4287C22.3442 7.05322 15.4152 11.2574 15.1271 11.4364ZM12.192 24.8041C13.0094 23.8465 14.1773 23.3716 15.7499 23.3716H16.2015C16.8115 24.1602 17.5842 24.8081 18.4671 25.2712C18.1868 26.0342 17.8131 26.6104 17.416 26.8517C16.9878 27.0697 10.9307 30.1138 10.9307 30.1138C10.9074 30.1216 10.884 30.1372 10.8607 30.1528C10.7906 28.8059 10.8684 26.3534 12.192 24.8041ZM12.1998 39.8924C11.3752 39.4944 10.5699 39.0579 9.78626 38.5844C9.45927 38.382 9.2802 38.0239 9.32691 37.6502L9.73954 34.3024C9.89525 33.0801 10.6115 32.0135 11.6236 31.5074C12.0363 31.2972 12.4178 31.1026 12.7837 30.9235C12.0596 33.1502 12.1141 37.5957 12.1998 39.8924ZM27.7007 41.5118L27.6072 41.7998C25.91 42.2203 24.205 42.4382 22.5 42.446C20.8027 42.4382 19.0899 42.2203 17.3927 41.7998L17.2915 41.4884C15.9446 37.6891 16.9178 31.8656 17.4005 29.5455C17.5095 29.055 17.5795 28.7669 17.5795 28.7591C17.5951 28.6891 17.5951 28.6268 17.5951 28.5567C17.852 28.9616 18.3269 29.382 19.1911 29.7012C20.0787 30.0204 21.2543 30.1995 22.5 30.1995C24.4385 30.1995 26.634 29.7557 27.4048 28.5723C27.4048 28.6346 27.4048 28.6969 27.4204 28.7591C27.4204 28.7669 27.4904 29.055 27.5994 29.5377C28.0821 31.8656 29.0553 37.6891 27.7007 41.5118ZM35.673 37.6502C35.7197 38.0239 35.5406 38.382 35.2136 38.5844C34.4117 39.0671 33.6098 39.4953 32.8001 39.8924C32.8858 37.5957 32.9403 33.1268 32.2162 30.9235C32.5822 31.1026 32.9636 31.2972 33.3763 31.4996C34.3884 32.0135 35.1047 33.0801 35.2604 34.3024L35.673 37.6502Z"></path><path d="M26.8287 16.4349C26.8287 17.0033 26.3616 17.4704 25.7933 17.4704C25.2249 17.4704 24.7656 17.0033 24.7656 16.4349C24.7656 15.8666 25.2249 15.4072 25.7933 15.4072C26.3616 15.4072 26.8287 15.8666 26.8287 16.4349ZM20.2344 16.4349C20.2344 17.0033 19.7751 17.4704 19.2067 17.4704C18.6384 17.4704 18.1713 17.0033 18.1713 16.4349C18.1713 15.8666 18.6384 15.4072 19.2067 15.4072C19.7751 15.4072 20.2344 15.8666 20.2344 16.4349Z"></path></svg>