<svg xmlns="http://www.w3.org/2000/svg" width="70" height="70" viewBox="0 0 70 70" fill="none"><circle cx="35" cy="35" r="35" fill="white"></circle><mask id="mask0_21_39" style="mask-type:alpha" maskUnits="userSpaceOnUse" x="10" y="10" width="50" height="50"><rect x="10" y="10" width="50" height="50" fill="#D9D9D9"></rect></mask><g mask="url(#mask0_21_39)"><path d="M35 59.7506C48.8071 59.7506 60 48.8374 60 35.3753C60 21.9132 48.8071 11 35 11C21.1929 11 10 21.9132 10 35.3753C10 48.8374 21.1929 59.7506 35 59.7506Z" fill="#34E0A1"></path><path d="M50.441 30.6197L53.4578 27.4196H46.7678C43.4187 25.189 39.374 23.8899 34.9997 23.8899C30.6309 23.8899 26.5975 25.1918 23.2538 27.4196H16.5472L19.5639 30.6197C17.7148 32.2646 16.5556 34.6341 16.5556 37.265C16.5556 42.23 20.6841 46.2553 25.7763 46.2553C28.1953 46.2553 30.3992 45.3457 32.0444 43.8586L34.9997 46.9961L37.955 43.8613C39.6003 45.3484 41.8014 46.2553 44.2204 46.2553C49.3126 46.2553 53.4466 42.23 53.4466 37.265C53.4494 34.6314 52.2902 32.262 50.441 30.6197ZM25.779 43.3493C22.3321 43.3493 19.5388 40.6259 19.5388 37.265C19.5388 33.9042 22.3321 31.1807 25.779 31.1807C29.2259 31.1807 32.0192 33.9042 32.0192 37.265C32.0192 40.6259 29.2259 43.3493 25.779 43.3493ZM35.0025 37.088C35.0025 33.0844 32.0165 29.6474 28.0751 28.1794C30.2064 27.3106 32.5444 26.8285 34.9997 26.8285C37.455 26.8285 39.7957 27.3106 41.927 28.1794C37.9885 29.6501 35.0025 33.0845 35.0025 37.088ZM44.2232 43.3493C40.7762 43.3493 37.9829 40.6259 37.9829 37.265C37.9829 33.9042 40.7762 31.1807 44.2232 31.1807C47.6702 31.1807 50.4634 33.9042 50.4634 37.265C50.4634 40.6259 47.6701 43.3493 44.2232 43.3493ZM44.2232 34.073C42.4159 34.073 40.9522 35.5002 40.9522 37.2623C40.9522 39.0244 42.4159 40.4515 44.2232 40.4515C46.0304 40.4515 47.4941 39.0244 47.4941 37.2623C47.4941 35.5029 46.0304 34.073 44.2232 34.073ZM29.05 37.265C29.05 39.0271 27.5862 40.4542 25.779 40.4542C23.9718 40.4542 22.5081 39.0271 22.5081 37.265C22.5081 35.5029 23.9718 34.0758 25.779 34.0758C27.5862 34.073 29.05 35.5029 29.05 37.265Z" fill="#110F0F"></path></g></svg>