<svg width="16" height="16" viewBox="0 0 16 16" xmlns="http://www.w3.org/2000/svg" role="img" aria-label="checked">
  <!-- outer ring -->
  <rect x="0.5" y="0.5" width="15" height="15" rx="7.5"
        fill="#ffffff" stroke="#1E88FF" stroke-width="1.2"/>
  <!-- check mark -->
  <path d="M11.6947 6.45777L7.24644 10.9084C7.17556 10.9769 7.08572 11.0124 6.99596 11.0124C6.9494 11.0125 6.90328 11.0033 6.86027 10.9855C6.81727 10.9676 6.77822 10.9414 6.7454 10.9084L4.3038 8.46681C4.16436 8.32969 4.16436 8.10521 4.3038 7.96577L5.16652 7.10065C5.29892 6.96833 5.53524 6.96833 5.66764 7.10065L6.99596 8.42897L10.3309 5.09161C10.3638 5.05868 10.4028 5.03255 10.4457 5.01471C10.4887 4.99686 10.5347 4.98766 10.5812 4.98761C10.6757 4.98761 10.7656 5.02545 10.8317 5.09161L11.6944 5.95681C11.8341 6.09625 11.8341 6.32073 11.6947 6.45777Z"
        fill="#1E88FF"/>
</svg>
