<svg xmlns="http://www.w3.org/2000/svg" width="30" height="30" viewBox="0 0 30 30"><path d="M0.792587 24.0159V26.676C0.792587 26.8417 0.858434 27.0007 0.975641 27.1179C1.09285 27.2351 1.25182 27.301 1.41757 27.301H3.88027C4.04603 27.301 4.205 27.2351 4.3222 27.1179C4.43941 27.0007 4.50526 26.8417 4.50526 26.676V24.6071H2.59306C1.94518 24.6073 1.31424 24.4002 0.792587 24.0159ZM25.4945 24.6071V26.676C25.4945 26.7581 25.5107 26.8394 25.5421 26.9152C25.5735 26.9911 25.6196 27.06 25.6777 27.118C25.7357 27.176 25.8046 27.2221 25.8805 27.2535C25.9563 27.2849 26.0376 27.301 26.1197 27.301H28.5824C28.7482 27.301 28.9072 27.2351 29.0244 27.1179C29.1416 27.0007 29.2074 26.8417 29.2074 26.676V24.0157C28.6858 24.4 28.0548 24.6072 27.4069 24.6071H25.4945ZM0.223696 16.0197V21.5564C0.223666 21.8676 0.284923 22.1757 0.40397 22.4631C0.523017 22.7506 0.697521 23.0118 0.917518 23.2318C1.13752 23.4518 1.3987 23.6263 1.68615 23.7454C1.9736 23.8645 2.28169 23.9258 2.59283 23.9258H27.4069C28.0353 23.9258 28.6379 23.6762 29.0822 23.2319C29.5265 22.7876 29.7761 22.185 29.7761 21.5566V16.0199C29.7762 15.0064 29.5207 14.0092 29.0335 13.1205L27.7744 10.8245H29.5462C30.1512 10.8245 30.1512 8.62453 29.5462 8.62453H26.5678L24.0894 4.10519C23.8802 3.72358 23.5738 3.40405 23.2013 3.17896C22.8288 2.95387 22.4034 2.83122 21.9683 2.82343L14.9999 2.69897L8.0317 2.82343C7.146 2.83932 6.33638 3.32828 5.91057 4.10519L3.43197 8.62453H0.453751C-0.15125 8.62453 -0.15125 10.8247 0.453751 10.8247H2.2256L0.966548 13.1207C0.479329 14.0093 0.223694 15.0063 0.223696 16.0197ZM19.2946 21.9539C19.2946 22.0732 19.2472 22.1877 19.1628 22.2721C19.0784 22.3565 18.9639 22.404 18.8445 22.404H11.1555C11.0361 22.404 10.9216 22.3565 10.8372 22.2721C10.7528 22.1877 10.7054 22.0732 10.7054 21.9539V20.8129C10.7054 20.5644 10.9068 20.363 11.1555 20.363H18.8445C19.0932 20.363 19.2946 20.5644 19.2946 20.8129V21.9539ZM26.9866 16.034C26.8256 16.1094 26.6519 16.1536 26.4745 16.1643L22.8933 16.3717C22.7326 16.3811 22.5737 16.3343 22.4438 16.2392C22.3139 16.1442 22.2211 16.0069 22.1815 15.8509C22.1418 15.6949 22.1577 15.53 22.2264 15.3844C22.2952 15.2389 22.4124 15.1218 22.5581 15.0533L25.8025 13.5231C26.1346 13.372 26.5128 13.3576 26.8554 13.4832C27.198 13.6089 27.4773 13.8643 27.633 14.1943C27.7886 14.5244 27.8081 14.9024 27.6871 15.2466C27.5661 15.5909 27.3145 15.8739 26.9866 16.034ZM6.90618 4.65115C7.01922 4.44495 7.18474 4.27229 7.38598 4.15065C7.58722 4.02901 7.81703 3.96272 8.05214 3.95848L14.9999 3.83471L21.9481 3.95871C22.1831 3.96294 22.4129 4.02921 22.6141 4.1508C22.8153 4.2724 22.9808 4.44501 23.0938 4.65115L26.6611 11.1558C26.8201 11.4456 26.6103 11.7996 26.2798 11.7996H3.72016C3.38973 11.7996 3.18011 11.4456 3.33886 11.1558L6.90618 4.65115ZM2.21993 14.6982C2.23311 14.4715 2.30172 14.2515 2.41973 14.0574C2.53773 13.8634 2.70154 13.7013 2.89677 13.5854C3.09201 13.4694 3.31272 13.4031 3.53954 13.3923C3.76637 13.3815 3.99238 13.4265 4.19776 13.5234L7.44215 15.0533C7.58771 15.1219 7.70486 15.239 7.77349 15.3846C7.84211 15.5301 7.85793 15.695 7.81822 15.8509C7.77851 16.0068 7.68576 16.1441 7.55588 16.2391C7.42601 16.334 7.26712 16.3809 7.10649 16.3714L3.52531 16.1641C3.34333 16.1536 3.16521 16.1073 3.00112 16.0279C2.83703 15.9486 2.69018 15.8377 2.56896 15.7015C2.44774 15.5654 2.35452 15.4067 2.29464 15.2346C2.23475 15.0624 2.20936 14.8801 2.21993 14.6982Z"></path><path d="M13.2124 4.34912H16.7877V5.24913H13.2124V4.34912Z"></path></svg>