<svg xmlns="http://www.w3.org/2000/svg" width="30" height="30" viewBox="0 0 30 30"><path fill-rule="evenodd" clip-rule="evenodd" d="M15 27.5C4.70625 27.5 2.5 25.2938 2.5 15C2.5 4.70625 4.70625 2.5 15 2.5C25.2938 2.5 27.5 4.70625 27.5 15C27.5 25.2938 25.2938 27.5 15 27.5ZM18.5169 9.28965C18.4254 9.12316 18.29 8.98488 18.1256 8.88977C17.9611 8.79467 17.7737 8.74636 17.5838 8.75009C17.3938 8.75382 17.2085 8.80943 17.0479 8.91091C16.8873 9.0124 16.7575 9.15588 16.6726 9.32583L12.352 17.967L10.444 14.498C10.3542 14.3346 10.222 14.1983 10.0615 14.1034C9.90093 14.0084 9.71782 13.9583 9.5313 13.9584H7.7084C7.13311 13.9584 6.66675 14.4247 6.66675 15C6.66675 15.5753 7.13311 16.0417 7.7084 16.0417H8.91543L11.4832 20.7103C11.5748 20.8768 11.7101 21.015 11.8746 21.1101C12.0391 21.2052 12.2264 21.2535 12.4164 21.2498C12.6063 21.2461 12.7916 21.1905 12.9522 21.089C13.1128 20.9876 13.2427 20.8441 13.3276 20.6742L17.6482 12.0331L19.5561 15.502C19.646 15.6654 19.7781 15.8018 19.9386 15.8967C20.0992 15.9916 20.2823 16.0417 20.4688 16.0417H22.2917C22.867 16.0417 23.3334 15.5753 23.3334 15.0001C23.3334 14.4248 22.867 13.9584 22.2917 13.9584H21.0847L18.5169 9.28965Z"></path></svg>