<svg xmlns="http://www.w3.org/2000/svg" width="30" height="30" viewBox="0 0 30 30"><g><path fill-rule="evenodd" clip-rule="evenodd" d="M18.8372 27.5581V28.9535C18.8372 29.231 18.9475 29.4972 19.1437 29.6935C19.34 29.8897 19.6062 30 19.8837 30C20.1613 30 20.4275 29.8897 20.6237 29.6935C20.82 29.4972 20.9302 29.231 20.9302 28.9535V27.5581C20.9302 27.2806 20.82 27.0144 20.6237 26.8181C20.4275 26.6219 20.1613 26.5116 19.8837 26.5116C19.6062 26.5116 19.34 26.6219 19.1437 26.8181C18.9475 27.0144 18.8372 27.2806 18.8372 27.5581ZM16.7442 1.04651V8.02326C16.7442 8.30081 16.8544 8.56699 17.0507 8.76325C17.247 8.95951 17.5131 9.06977 17.7907 9.06977C18.0682 9.06977 18.3344 8.95951 18.5307 8.76325C18.7269 8.56699 18.8372 8.30081 18.8372 8.02326V1.04651C18.8372 0.76896 18.7269 0.502775 18.5307 0.306516C18.3344 0.110257 18.0682 0 17.7907 0C17.5131 0 17.247 0.110257 17.0507 0.306516C16.8544 0.502775 16.7442 0.76896 16.7442 1.04651ZM9.06976 27.5581V28.9535C9.06976 29.231 9.18002 29.4972 9.37628 29.6935C9.57254 29.8897 9.83872 30 10.1163 30C10.3938 30 10.66 29.8897 10.8563 29.6935C11.0525 29.4972 11.1628 29.231 11.1628 28.9535V27.5581C11.1628 27.2806 11.0525 27.0144 10.8563 26.8181C10.66 26.6219 10.3938 26.5116 10.1163 26.5116C9.83872 26.5116 9.57254 26.6219 9.37628 26.8181C9.18002 27.0144 9.06976 27.2806 9.06976 27.5581ZM11.1628 1.04651V8.02326C11.1628 8.30081 11.273 8.56699 11.4693 8.76325C11.6656 8.95951 11.9317 9.06977 12.2093 9.06977C12.4869 9.06977 12.753 8.95951 12.9493 8.76325C13.1456 8.56699 13.2558 8.30081 13.2558 8.02326V1.04651C13.2558 0.76896 13.1456 0.502775 12.9493 0.306516C12.753 0.110257 12.4869 0 12.2093 0C11.9317 0 11.6656 0.110257 11.4693 0.306516C11.273 0.502775 11.1628 0.76896 11.1628 1.04651Z"></path><path fill-rule="evenodd" clip-rule="evenodd" d="M10.814 2.09302H19.1861C19.4636 2.09302 19.7298 1.98277 19.9261 1.78651C20.1223 1.59025 20.2326 1.32406 20.2326 1.04651C20.2326 0.768959 20.1223 0.502775 19.9261 0.306516C19.7298 0.110257 19.4636 0 19.1861 0H10.814C10.5364 0 10.2702 0.110257 10.074 0.306516C9.87772 0.502775 9.76747 0.768959 9.76747 1.04651C9.76747 1.32406 9.87772 1.59025 10.074 1.78651C10.2702 1.98277 10.5364 2.09302 10.814 2.09302ZM24.4186 10.814C24.4186 9.79626 24.0144 8.82025 23.2947 8.10064C22.5751 7.38102 21.5991 6.97674 20.5814 6.97674H9.41863C8.40094 6.97674 7.42493 7.38102 6.70531 8.10064C5.9857 8.82025 5.58142 9.79626 5.58142 10.814V24.7674C5.58142 25.7851 5.9857 26.7611 6.70531 27.4808C7.42493 28.2004 8.40094 28.6047 9.41863 28.6047H20.5814C21.5991 28.6047 22.5751 28.2004 23.2947 27.4808C24.0144 26.7611 24.4186 25.7851 24.4186 24.7674V10.814ZM13.9535 12.2093V23.3721C13.9535 23.6496 14.0638 23.9158 14.26 24.1121C14.4563 24.3083 14.7225 24.4186 15 24.4186C15.2776 24.4186 15.5438 24.3083 15.74 24.1121C15.9363 23.9158 16.0465 23.6496 16.0465 23.3721V12.2093C16.0465 11.9317 15.9363 11.6656 15.74 11.4693C15.5438 11.273 15.2776 11.1628 15 11.1628C14.7225 11.1628 14.4563 11.273 14.26 11.4693C14.0638 11.6656 13.9535 11.9317 13.9535 12.2093ZM9.76747 12.2093V23.3721C9.76747 23.6496 9.87772 23.9158 10.074 24.1121C10.2702 24.3083 10.5364 24.4186 10.814 24.4186C11.0915 24.4186 11.3577 24.3083 11.554 24.1121C11.7502 23.9158 11.8605 23.6496 11.8605 23.3721V12.2093C11.8605 11.9317 11.7502 11.6656 11.554 11.4693C11.3577 11.273 11.0915 11.1628 10.814 11.1628C10.5364 11.1628 10.2702 11.273 10.074 11.4693C9.87772 11.6656 9.76747 11.9317 9.76747 12.2093ZM18.1396 12.2093V23.3721C18.1396 23.6496 18.2498 23.9158 18.4461 24.1121C18.6423 24.3083 18.9085 24.4186 19.1861 24.4186C19.4636 24.4186 19.7298 24.3083 19.9261 24.1121C20.1223 23.9158 20.2326 23.6496 20.2326 23.3721V12.2093C20.2326 11.9317 20.1223 11.6656 19.9261 11.4693C19.7298 11.273 19.4636 11.1628 19.1861 11.1628C18.9085 11.1628 18.6423 11.273 18.4461 11.4693C18.2498 11.6656 18.1396 11.9317 18.1396 12.2093Z"></path></g></svg>