<svg xmlns="http://www.w3.org/2000/svg" width="30" height="30" viewBox="0 0 30 30"><g><path d="M21.1526 1.54105C21.1497 1.2982 21.0897 1.05944 20.9775 0.844035C20.8653 0.628628 20.704 0.442596 20.5068 0.300939C20.305 0.152721 20.0704 0.0555622 19.8229 0.017769C19.5755 -0.0200242 19.3226 0.00267288 19.0858 0.0839196L8.99438 3.6079H21.1526V1.54105ZM15.4688 18.8509C15.7168 18.8509 16.4041 17.6108 16.5022 15.2339H14.4354C14.5335 17.6108 15.2208 18.8509 15.4688 18.8509ZM15.4688 10.5835C15.2208 10.5835 14.5335 11.8236 14.4354 14.2005H16.5022C16.4041 11.8236 15.7168 10.5835 15.4688 10.5835ZM14.0427 18.5926C13.6362 17.5186 13.4194 16.3821 13.4019 15.2339H11.3713C11.4665 15.9847 11.7659 16.6949 12.237 17.2871C12.708 17.8793 13.3326 18.3309 14.0427 18.5926ZM14.0427 10.8419C13.3326 11.1036 12.708 11.5551 12.237 12.1474C11.7659 12.7396 11.4665 13.4498 11.3713 14.2005H13.4019C13.4194 13.0523 13.6362 11.9159 14.0427 10.8419Z"></path><path d="M5.65125 6.1915V28.9269C5.65125 29.338 5.81456 29.7323 6.10527 30.023C6.39598 30.3137 6.79026 30.477 7.20138 30.477H23.7362C24.1473 30.477 24.5416 30.3137 24.8323 30.023C25.123 29.7323 25.2863 29.338 25.2863 28.9269V6.1915C25.2863 5.78037 25.123 5.38609 24.8323 5.09538C24.5416 4.80468 24.1473 4.64136 23.7362 4.64136H7.20138C6.79026 4.64136 6.39598 4.80468 6.10527 5.09538C5.81456 5.38609 5.65125 5.78037 5.65125 6.1915ZM19.6025 25.5682H11.3351C11.198 25.5682 11.0666 25.5138 10.9697 25.4169C10.8728 25.32 10.8184 25.1886 10.8184 25.0515C10.8184 24.9145 10.8728 24.7831 10.9697 24.6862C11.0666 24.5893 11.198 24.5348 11.3351 24.5348H19.6025C19.7395 24.5348 19.871 24.5893 19.9679 24.6862C20.0648 24.7831 20.1192 24.9145 20.1192 25.0515C20.1192 25.1886 20.0648 25.32 19.9679 25.4169C19.871 25.5138 19.7395 25.5682 19.6025 25.5682ZM12.8852 23.5014C12.8852 23.3643 12.9397 23.2329 13.0366 23.136C13.1335 23.0391 13.2649 22.9847 13.4019 22.9847H17.5356C17.6727 22.9847 17.8041 23.0391 17.901 23.136C17.9979 23.2329 18.0524 23.3643 18.0524 23.5014C18.0524 23.6384 17.9979 23.7699 17.901 23.8668C17.8041 23.9637 17.6727 24.0181 17.5356 24.0181H13.4019C13.2649 24.0181 13.1335 23.9637 13.0366 23.8668C12.9397 23.7699 12.8852 23.6384 12.8852 23.5014ZM15.4688 9.55013C16.4908 9.55013 17.4898 9.85318 18.3395 10.421C19.1892 10.9887 19.8515 11.7957 20.2426 12.7399C20.6337 13.6841 20.736 14.723 20.5366 15.7253C20.3373 16.7276 19.8451 17.6483 19.1225 18.371C18.3999 19.0936 17.4792 19.5857 16.4769 19.7851C15.4745 19.9845 14.4356 19.8822 13.4914 19.4911C12.5472 19.1 11.7403 18.4377 11.1725 17.588C10.6047 16.7382 10.3017 15.7392 10.3017 14.7173C10.3017 13.3469 10.8461 12.0326 11.8151 11.0635C12.7841 10.0945 14.0984 9.55013 15.4688 9.55013Z"></path><path d="M19.5662 14.2004C19.471 13.4497 19.1716 12.7395 18.7005 12.1473C18.2295 11.555 17.6049 11.1035 16.8948 10.8418C17.3013 11.9158 17.5181 13.0522 17.5356 14.2004H19.5662ZM19.5662 15.2339H17.5356C17.5181 16.3821 17.3013 17.5185 16.8948 18.5925C17.6049 18.3308 18.2295 17.8792 18.7005 17.287C19.1716 16.6948 19.471 15.9846 19.5662 15.2339Z"></path></g></svg>