<svg xmlns="http://www.w3.org/2000/svg" width="30" height="30" viewBox="0 0 30 30"><path d="M12.3333 3H4.33333C3.97971 3 3.64057 3.14048 3.39052 3.39052C3.14048 3.64057 3 3.97971 3 4.33333V12.3333C3 12.687 3.14048 13.0261 3.39052 13.2761C3.64057 13.5262 3.97971 13.6667 4.33333 13.6667H12.3333C12.687 13.6667 13.0261 13.5262 13.2761 13.2761C13.5262 13.0261 13.6667 12.687 13.6667 12.3333V4.33333C13.6667 3.97971 13.5262 3.64057 13.2761 3.39052C13.0261 3.14048 12.687 3 12.3333 3ZM25.6667 3H17.6667C17.313 3 16.9739 3.14048 16.7239 3.39052C16.4738 3.64057 16.3333 3.97971 16.3333 4.33333V12.3333C16.3333 12.687 16.4738 13.0261 16.7239 13.2761C16.9739 13.5262 17.313 13.6667 17.6667 13.6667H25.6667C26.0203 13.6667 26.3594 13.5262 26.6095 13.2761C26.8595 13.0261 27 12.687 27 12.3333V4.33333C27 3.97971 26.8595 3.64057 26.6095 3.39052C26.3594 3.14048 26.0203 3 25.6667 3ZM12.3333 16.3333H4.33333C3.97971 16.3333 3.64057 16.4738 3.39052 16.7239C3.14048 16.9739 3 17.313 3 17.6667V25.6667C3 26.0203 3.14048 26.3594 3.39052 26.6095C3.64057 26.8595 3.97971 27 4.33333 27H12.3333C12.687 27 13.0261 26.8595 13.2761 26.6095C13.5262 26.3594 13.6667 26.0203 13.6667 25.6667V17.6667C13.6667 17.313 13.5262 16.9739 13.2761 16.7239C13.0261 16.4738 12.687 16.3333 12.3333 16.3333ZM23 17.6667H20.3333V20.3333H17.6667V23H20.3333V25.6667H23V23H25.6667V20.3333H23V17.6667Z"></path></svg>