<?xml version="1.0" encoding="UTF-8"?>
<svg xmlns="http://www.w3.org/2000/svg" width="36" height="36" viewBox="0 0 36 36">
  <path d="M11.25 25.875H8.4375C8.12812 25.875 7.875 26.1281 7.875 26.4375C7.875 26.7469 8.12812 27 8.4375 27H11.25C11.5594 27 11.8125 26.7469 11.8125 26.4375C11.8125 26.1281 11.5594 25.875 11.25 25.875Z"></path>
  <path d="M13.5 6.75C14.432 6.75 15.1875 5.99448 15.1875 5.0625C15.1875 4.13052 14.432 3.375 13.5 3.375C12.568 3.375 11.8125 4.13052 11.8125 5.0625C11.8125 5.99448 12.568 6.75 13.5 6.75Z"></path>
  <path d="M28.4513 22.5338C28.1869 21.4088 27.7762 20.8125 27.5625 20.8125C27.3488 20.8125 26.9325 21.4088 26.6737 22.5338C27.2654 22.4884 27.8596 22.4884 28.4513 22.5338ZM23.985 26.3813C24.3793 27.2424 25.0701 27.9332 25.9312 28.3275C25.7456 27.8831 25.5994 27.3712 25.4981 26.8144C24.9413 26.7131 24.4294 26.5669 23.985 26.3813ZM29.1938 21.1725C29.3794 21.6169 29.5256 22.1288 29.6269 22.6856C30.1837 22.7869 30.6956 22.9331 31.14 23.1187C30.7457 22.2576 30.0549 21.5668 29.1938 21.1725ZM29.8125 24.75C29.8125 25.0481 29.8012 25.3463 29.7787 25.6388C30.9037 25.3744 31.5 24.9638 31.5 24.75C31.5 24.5363 30.9037 24.12 29.7787 23.8612C29.8012 24.1537 29.8125 24.4519 29.8125 24.75ZM25.3125 24.75C25.3125 24.4519 25.3238 24.1537 25.3463 23.8612C24.2213 24.1256 23.625 24.5363 23.625 24.75C23.625 24.9638 24.2213 25.38 25.3463 25.6388C25.3238 25.3463 25.3125 25.0481 25.3125 24.75ZM29.1938 28.3275C30.0549 27.9332 30.7457 27.2424 31.14 26.3813C30.6956 26.5669 30.1837 26.7131 29.6269 26.8144C29.5256 27.3712 29.3794 27.8831 29.1938 28.3275Z"></path>
  <path d="M34.3125 16.875H20.8125C20.5031 16.875 20.25 17.1281 20.25 17.4375V18.5625H16.3125V17.4375C16.3125 17.3756 16.3013 17.3194 16.2788 17.2631C17.1427 16.7724 17.8613 16.0616 18.3612 15.203C18.8612 14.3444 19.1247 13.3686 19.125 12.375V11.25H19.6875C20.6156 11.25 21.375 10.4906 21.375 9.5625C21.375 8.63437 20.6156 7.875 19.6875 7.875H19.4737L20.1881 6.44062C20.2275 6.36187 20.25 6.2775 20.25 6.1875V3.375C20.25 3.12187 20.0812 2.89687 19.8337 2.835L13.6462 1.1475C13.5508 1.11937 13.4492 1.11937 13.3538 1.1475L7.16625 2.835C6.91875 2.89687 6.75 3.12187 6.75 3.375V6.1875C6.75 6.2775 6.7725 6.36187 6.81187 6.44062L7.53188 7.875H7.3125C6.38438 7.875 5.625 8.63437 5.625 9.5625C5.625 10.4906 6.38438 11.25 7.3125 11.25H7.875V12.375C7.875 14.4675 9.0225 16.2956 10.7212 17.2631C10.6987 17.3194 10.6875 17.3756 10.6875 17.4375V18.5625H6.1875C3.3975 18.5625 1.125 20.835 1.125 23.625V34.3125C1.125 34.6219 1.37812 34.875 1.6875 34.875H34.3125C34.6219 34.875 34.875 34.6219 34.875 34.3125V17.4375C34.875 17.1281 34.6219 16.875 34.3125 16.875ZM5.625 33.75H2.25V29.25H5.625V33.75ZM19.6875 9C19.9969 9 20.25 9.25312 20.25 9.5625C20.25 9.87187 19.9969 10.125 19.6875 10.125H19.125V9H19.6875ZM7.875 10.125H7.3125C7.00313 10.125 6.75 9.87187 6.75 9.5625C6.75 9.25312 7.00313 9 7.3125 9H7.875V10.125ZM7.875 6.0525V3.8025L13.5 2.2725L19.125 3.8025V6.0525L18.2138 7.875H8.78625L7.875 6.0525ZM9 12.375V10.8281C10.0181 11.7731 11.6381 12.375 13.5 12.375C15.3619 12.375 16.9819 11.7731 18 10.8281V12.375C18 14.8556 15.9806 16.875 13.5 16.875C11.0194 16.875 9 14.8556 9 12.375ZM12.9375 33.75H6.75V19.6875H9.16875L10.7212 23.8219C10.7887 24.0019 10.9463 24.1369 11.1319 24.1763C11.1713 24.1819 11.2106 24.1875 11.25 24.1875C11.3962 24.1875 11.5425 24.1313 11.6494 24.0244L12.9375 22.7362V33.75ZM11.8125 18.8944V18H15.1875V18.8944L13.5 20.5763L11.8125 18.8944ZM20.25 33.75H14.0625V22.7362L15.3506 24.0244C15.4575 24.1313 15.6038 24.1875 15.75 24.1875C15.7894 24.1875 15.8287 24.1819 15.8681 24.1763C16.0537 24.1369 16.2113 24.0019 16.2788 23.8219L17.8313 19.6875H20.25V33.75ZM30.9375 32.0625H24.1875C23.8781 32.0625 23.625 31.8094 23.625 31.5C23.625 31.1906 23.8781 30.9375 24.1875 30.9375H30.9375C31.2469 30.9375 31.5 31.1906 31.5 31.5C31.5 31.8094 31.2469 32.0625 30.9375 32.0625ZM27.5625 29.8125C24.7725 29.8125 22.5 27.54 22.5 24.75C22.5 21.96 24.7725 19.6875 27.5625 19.6875C30.3525 19.6875 32.625 21.96 32.625 24.75C32.625 27.54 30.3525 29.8125 27.5625 29.8125Z"></path>
  <path d="M27.5619 23.625C27.1738 23.625 26.8194 23.6475 26.4875 23.6756C26.4538 24.0075 26.4369 24.3619 26.4369 24.75C26.4369 25.1381 26.4594 25.4925 26.4875 25.8244C26.8194 25.8581 27.1738 25.875 27.5619 25.875C27.95 25.875 28.3044 25.8525 28.6363 25.8244C28.67 25.4925 28.6869 25.1381 28.6869 24.75C28.6869 24.3619 28.6644 24.0075 28.6363 23.6756C28.3044 23.6419 27.95 23.625 27.5619 23.625ZM23.9844 23.1187C24.4288 22.9331 24.9406 22.7869 25.4975 22.6856C25.5988 22.1287 25.745 21.6169 25.9306 21.1725C25.0695 21.5668 24.3787 22.2576 23.9844 23.1187ZM26.6731 26.9662C26.9375 28.0912 27.3481 28.6875 27.5619 28.6875C27.7756 28.6875 28.1919 28.0912 28.4506 26.9662C27.859 27.0116 27.2648 27.0116 26.6731 26.9662Z"></path>
</svg>
