<svg xmlns="http://www.w3.org/2000/svg" width="45" height="45" viewBox="0 0 45 45"><path d="M33.1785 30.5342C31.7482 30.5345 30.3502 30.9589 29.1611 31.7537C27.9721 32.5486 27.0454 33.6781 26.4983 34.9996C25.9512 36.3211 25.8082 37.7751 26.0874 39.1778C26.3666 40.5806 27.0555 41.869 28.067 42.8802C29.0784 43.8915 30.367 44.5801 31.7698 44.859C33.1726 45.1379 34.6266 44.9946 35.9479 44.4472C37.2693 43.8998 38.3986 42.9728 39.1932 41.7836C39.9878 40.5944 40.4119 39.1962 40.4119 37.766C40.4102 35.8484 39.6476 34.0098 38.2916 32.6539C36.9355 31.298 35.0961 30.5357 33.1785 30.5342ZM36.5541 36.4562L32.8096 40.2087C32.7348 40.2836 32.6458 40.3427 32.5479 40.3827C32.4499 40.4228 32.3449 40.4428 32.2391 40.4418C32.0257 40.4424 31.8206 40.3586 31.6686 40.2087L29.7964 38.3365C29.6458 38.1848 29.5614 37.9797 29.5614 37.766C29.5614 37.5523 29.6458 37.3472 29.7964 37.1955C29.8707 37.121 29.959 37.0619 30.0562 37.0216C30.1534 36.9813 30.2576 36.9605 30.3629 36.9605C30.4681 36.9605 30.5723 36.9813 30.6695 37.0216C30.7667 37.0619 30.855 37.121 30.9294 37.1955L32.2391 38.5052L35.4211 35.3232C35.4955 35.2488 35.5838 35.1897 35.681 35.1493C35.7782 35.109 35.8824 35.0883 35.9876 35.0883C36.0929 35.0883 36.1971 35.109 36.2943 35.1493C36.3915 35.1897 36.4798 35.2488 36.5541 35.3232C36.6304 35.3966 36.691 35.4845 36.7325 35.5819C36.7739 35.6792 36.7953 35.7839 36.7953 35.8897C36.7953 35.9955 36.7739 36.1002 36.7325 36.1976C36.691 36.2949 36.6304 36.3829 36.5541 36.4562Z"></path><path d="M24.4842 39.3739H9.7956C9.58249 39.3739 9.37811 39.2892 9.22742 39.1385C9.07672 38.9878 8.99207 38.7834 8.99207 38.5703C8.99207 38.3572 9.07672 38.1528 9.22742 38.0021C9.37811 37.8514 9.58249 37.7668 9.7956 37.7668H24.3396C24.3388 37.2278 24.3872 36.6899 24.4842 36.1597H13.0097C12.7966 36.1597 12.5922 36.0751 12.4416 35.9244C12.2909 35.7737 12.2062 35.5693 12.2062 35.3562C12.2062 35.1431 12.2909 34.9387 12.4416 34.788C12.5922 34.6373 12.7966 34.5526 13.0097 34.5526H24.9422C25.5897 32.8951 26.7221 31.4715 28.1915 30.4679C29.661 29.4642 31.399 28.9272 33.1785 28.9271C33.5496 28.9266 33.9203 28.9508 34.2882 28.9994V7.17379C34.2862 6.53505 34.0317 5.92301 33.58 5.47134C33.1283 5.01968 32.5163 4.76509 31.8776 4.76319H30.7687V2.55346C30.7692 2.17185 30.6834 1.79506 30.5178 1.45124C30.3523 1.10743 30.1111 0.805467 29.8125 0.567929C29.5121 0.32595 29.1611 0.154778 28.7855 0.0671362C28.4099 -0.0205056 28.0193 -0.022363 27.6429 0.0617019L6.7494 4.78649C6.74137 4.78649 6.73333 4.78649 6.73333 4.79452C6.14575 4.85759 5.60204 5.13507 5.20622 5.57388C4.8104 6.01269 4.59025 6.58203 4.58789 7.17299V42.588C4.5898 43.2267 4.84439 43.8388 5.29605 44.2904C5.74771 44.7421 6.35975 44.9967 6.9985 44.9986H28.1001C26.2066 43.6678 24.9088 41.649 24.4842 39.3739ZM27.9876 1.6286C28.13 1.59731 28.2775 1.5984 28.4194 1.63178C28.5612 1.66516 28.6938 1.72998 28.8072 1.82144C28.9175 1.90879 29.0065 2.01993 29.0678 2.14656C29.129 2.27318 29.1608 2.41201 29.1608 2.55266V4.76238H14.1186L27.9876 1.6286ZM19.438 11.0308C21.3451 11.0309 23.2093 11.5966 24.7948 12.6562C26.3804 13.7158 27.6162 15.2218 28.3459 16.9837C29.0756 18.7457 29.2664 20.6844 28.8943 22.5548C28.5221 24.4252 27.6037 26.1433 26.2552 27.4917C24.9066 28.8401 23.1885 29.7584 21.3181 30.1304C19.4476 30.5024 17.5089 30.3114 15.747 29.5815C13.9852 28.8517 12.4793 27.6158 11.4198 26.0301C10.3603 24.4445 9.7948 22.5802 9.7948 20.6732C9.79841 18.117 10.8155 15.6665 12.623 13.8589C14.4305 12.0514 16.881 11.0344 19.4372 11.0308H19.438Z"></path><path d="M15.5484 27.6956C14.46 25.7999 13.8659 23.6609 13.8208 21.4755H11.4424C11.5723 22.767 12.0139 24.0078 12.7291 25.0911C13.4443 26.1744 14.4118 27.0687 15.5484 27.6956ZM15.5484 13.6474C14.413 14.2763 13.4465 15.1705 12.7316 16.2537C12.0166 17.337 11.5743 18.5772 11.4424 19.8684H13.8208C13.8669 17.6828 14.4609 15.5438 15.5484 13.6474ZM18.6348 28.5393V21.4755H15.4279C15.6047 24.9387 16.9466 27.8322 18.634 28.5393H18.6348ZM18.6348 19.8684V12.8037C16.9474 13.5189 15.6047 16.4116 15.4279 19.8684H18.6348ZM23.448 21.4755H20.2419V28.5393C21.9293 27.8322 23.2712 24.9395 23.448 21.4755ZM20.2419 12.8037V19.8684H23.448C23.2712 16.4124 21.9293 13.5189 20.2419 12.8037ZM23.3275 27.6956C24.4644 27.0687 25.4321 26.1751 26.1475 25.0917C26.8628 24.0082 27.3044 22.7673 27.4343 21.4755H25.0559C25.0107 23.6607 24.4166 25.7994 23.3283 27.6948L23.3275 27.6956ZM27.4343 19.8684C27.3025 18.5772 26.8602 17.337 26.1452 16.2537C25.4302 15.1705 24.4637 14.2763 23.3283 13.6474C24.4158 15.5438 25.0098 17.6828 25.0559 19.8684H27.4343Z"></path></svg>