<svg xmlns="http://www.w3.org/2000/svg" width="45" height="45" viewBox="0 0 45 45"><g><path d="M38.0333 16.4395C38.3412 16.4394 38.6319 16.2974 38.8214 16.0547C39.0107 15.8121 39.0776 15.4959 39.003 15.1973L37.5909 9.54883C37.4796 9.10368 37.08 8.79105 36.6212 8.79102H8.37899C7.92011 8.79102 7.52055 9.10366 7.40926 9.54883L5.99715 15.1973C5.92256 15.4959 5.98936 15.812 6.17879 16.0547C6.3683 16.2974 6.65894 16.4395 6.96688 16.4395H38.0333ZM9.15926 10.791H35.8399L36.752 14.4395H8.24715L9.15926 10.791Z"></path><g><path d="M36.6209 10.791C36.9289 10.791 37.2195 10.649 37.409 10.4062C37.5984 10.1636 37.6652 9.84747 37.5907 9.54883V9.54688C37.5904 9.5458 37.5902 9.5441 37.5897 9.54199C37.5886 9.53763 37.5869 9.53098 37.5848 9.52246C37.5805 9.50533 37.5735 9.48005 37.5653 9.44727C37.5488 9.38137 37.525 9.28445 37.495 9.16406L36.6024 5.59375V5.59277C36.4298 4.90407 36.069 4.27658 35.5604 3.78125C35.0518 3.28608 34.4154 2.94228 33.7225 2.78809L23.9491 0.616211C23.5687 0.531687 23.2606 0.463331 23.0477 0.416016C22.9414 0.3924 22.8586 0.373787 22.8026 0.361328C22.7745 0.355098 22.7525 0.349873 22.7381 0.34668C22.7313 0.345176 22.7261 0.344541 22.7225 0.34375C22.721 0.343414 22.7195 0.342971 22.7186 0.342773H22.7166C22.5738 0.311048 22.4258 0.310103 22.283 0.341797V0.342773H22.2811C22.2802 0.342971 22.2787 0.343411 22.2772 0.34375C22.2736 0.34454 22.2683 0.345175 22.2616 0.34668C22.2472 0.349873 22.2251 0.355098 22.1971 0.361328C22.141 0.373787 22.0583 0.392397 21.952 0.416016C21.739 0.46333 21.431 0.531686 21.0506 0.616211L11.2772 2.78809C10.5843 2.94228 9.94787 3.28608 9.43929 3.78125C8.93063 4.27658 8.56983 4.90407 8.3973 5.59277V5.59375L7.50472 9.16406C7.47463 9.28445 7.45088 9.38137 7.43441 9.44727C7.42621 9.48005 7.41916 9.50533 7.41487 9.52246C7.41274 9.53098 7.41108 9.53763 7.40999 9.54199C7.40946 9.5441 7.40928 9.5458 7.40901 9.54688V9.54883C7.33443 9.84748 7.40123 10.1636 7.59066 10.4062C7.78016 10.649 8.07081 10.791 8.37874 10.791H36.6209ZM9.68734 8.67969C9.88241 7.89919 10.1299 6.91098 10.3377 6.0791L10.3719 5.95703C10.4633 5.67629 10.6224 5.42171 10.8348 5.21484C11.0775 4.97846 11.381 4.81382 11.7117 4.74023C13.444 4.35511 16.1954 3.74364 18.5135 3.22852C19.6725 2.97097 20.7232 2.73746 21.4842 2.56836C21.8645 2.48385 22.1726 2.41548 22.3856 2.36816C22.4272 2.35891 22.4656 2.35038 22.4998 2.34277C22.534 2.35037 22.5724 2.35891 22.6141 2.36816C22.827 2.41548 23.1352 2.48386 23.5155 2.56836C24.2765 2.73746 25.3272 2.97097 26.4862 3.22852C28.8043 3.74365 31.5557 4.35511 33.2879 4.74023L33.411 4.77246C33.6938 4.85644 33.9526 5.00811 34.1649 5.21484C34.4076 5.45122 34.5796 5.75046 34.6619 6.0791C34.8698 6.91098 35.1173 7.89919 35.3123 8.67969C35.3217 8.71716 35.3306 8.75454 35.3397 8.79102H9.65999C9.66911 8.75454 9.67797 8.71716 9.68734 8.67969Z"></path><path d="M33.0908 24.9121C35.9799 24.9121 37.4763 24.1179 38.8564 23.3818C40.124 22.7058 41.2754 22.0879 43.6816 22.0879C44.086 22.0878 44.4506 21.8443 44.6054 21.4707C44.7602 21.0971 44.6746 20.6669 44.3886 20.3809L38.7402 14.7324C38.5527 14.5449 38.2983 14.4395 38.0332 14.4395H6.96676C6.70155 14.4395 6.44726 14.5449 6.25973 14.7324L0.611293 20.3809C0.325315 20.6669 0.23972 21.097 0.394496 21.4707C0.549318 21.8443 0.913924 22.0879 1.31832 22.0879C3.72449 22.0879 4.87591 22.7058 6.14352 23.3818C7.52358 24.1179 9.02 24.9121 11.9091 24.9121C14.7983 24.9121 16.2947 24.1179 17.6748 23.3818C18.9424 22.7058 20.0938 22.0879 22.5 22.0879C24.9061 22.0879 26.0576 22.7058 27.3252 23.3818C28.7052 24.1179 30.2017 24.9121 33.0908 24.9121ZM33.0908 22.9121C30.6846 22.9121 29.5332 22.2933 28.2656 21.6172C26.8856 20.8812 25.3889 20.0879 22.5 20.0879C19.6111 20.0879 18.1143 20.8812 16.7343 21.6172C15.4667 22.2933 14.3153 22.9121 11.9091 22.9121C9.50298 22.9121 8.35156 22.2933 7.08395 21.6172C6.11129 21.0984 5.08017 20.5533 3.54489 20.2754L7.38082 16.4395H37.6191L41.4541 20.2754C39.919 20.5534 38.8876 21.0984 37.915 21.6172C36.6475 22.2932 35.4968 22.9121 33.0908 22.9121Z"></path><path d="M22.4994 44.6807C23.2757 44.6808 24.0347 44.4517 24.6801 44.0205C25.3255 43.5893 25.8285 42.976 26.1254 42.2588C26.4225 41.5417 26.5005 40.7525 26.349 39.9912C26.1976 39.2301 25.8236 38.5312 25.2748 37.9824L23.9135 36.6221L36.144 24.3916C36.5345 24.0011 36.5345 23.3671 36.144 22.9766C35.7535 22.5864 35.1204 22.5864 34.7299 22.9766L22.4994 35.208L10.2699 22.9766C9.87949 22.5864 9.24634 22.5864 8.85588 22.9766C8.46536 23.3671 8.46536 24.0011 8.85588 24.3916L21.0854 36.6221L19.725 37.9824C19.1762 38.5312 18.8023 39.2301 18.6508 39.9912C18.4994 40.7524 18.5765 41.5418 18.8735 42.2588L18.9946 42.5225C19.2986 43.1263 19.7549 43.6431 20.3197 44.0205C20.965 44.4515 21.7235 44.6807 22.4994 44.6807ZM22.4994 42.6816C22.1189 42.6817 21.7465 42.5688 21.4301 42.3574C21.1139 42.1461 20.8677 41.8455 20.7221 41.4941V41.4932C20.5765 41.1416 20.5376 40.755 20.6117 40.3818C20.686 40.0085 20.8699 39.6656 21.1391 39.3965L22.4994 38.0361L23.8608 39.3965C24.1299 39.6656 24.3129 40.0085 24.3871 40.3818C24.4613 40.755 24.4234 41.1416 24.2778 41.4932V41.4941C24.1321 41.8456 23.8851 42.146 23.5688 42.3574C23.2525 42.5687 22.8808 42.6817 22.5004 42.6816H22.4994Z"></path></g></g></svg>