<svg xmlns="http://www.w3.org/2000/svg" width="45" height="45" viewBox="0 0 45 45"><g><path d="M6.83029 34.4284C6.75557 34.503 6.6963 34.5916 6.65586 34.6892C6.61542 34.7867 6.5946 34.8913 6.5946 34.9969C6.5946 35.1025 6.61542 35.2071 6.65586 35.3047C6.6963 35.4022 6.75557 35.4908 6.83029 35.5655L7.96418 36.7042L9.10048 35.5671L7.96498 34.4268C7.81178 34.2814 7.60854 34.2004 7.39732 34.2007C7.1861 34.201 6.98308 34.2825 6.83029 34.4284ZM11.3707 29.8832L10.8025 30.4513L11.9388 31.5876L12.5078 31.0195C12.5824 30.9448 12.6416 30.8562 12.6819 30.7586C12.7223 30.6611 12.743 30.5566 12.743 30.451C12.743 30.3455 12.7221 30.241 12.6817 30.1435C12.6413 30.046 12.582 29.9574 12.5074 29.8828C12.4327 29.8082 12.3441 29.749 12.2465 29.7086C12.149 29.6683 12.0445 29.6475 11.9389 29.6475C11.8334 29.6476 11.7289 29.6684 11.6314 29.7088C11.5339 29.7493 11.4453 29.8085 11.3707 29.8832ZM37.7692 22.4996C37.7675 21.7165 37.7055 20.9347 37.5835 20.1611L20.1621 37.5825C22.3394 37.9256 24.5651 37.7922 26.6858 37.1915C28.8065 36.5908 30.7716 35.5372 32.4454 34.1032C34.1193 32.6693 35.4622 30.8893 36.3813 28.8859C37.3004 26.8826 37.7739 24.7037 37.7692 22.4996ZM15.9175 25.3364L15.3493 25.9045L16.4856 27.0408L17.0538 26.4727C17.1288 26.3985 17.1882 26.3101 17.2287 26.2127C17.2691 26.1153 17.2897 26.0108 17.2892 25.9053C17.2892 25.6922 17.2045 25.4878 17.0538 25.3372C16.9007 25.1911 16.6973 25.1096 16.4858 25.1095C16.2742 25.1093 16.0708 25.1906 15.9175 25.3364Z"></path><path d="M15.7499 41.9918C15.9878 41.9815 16.2235 41.9413 16.4514 41.8721C17.1682 41.6391 17.9327 41.5939 18.672 41.7408C19.4112 41.8876 20.1004 42.2217 20.6736 42.7111C21.1794 43.1457 21.8238 43.3855 22.4908 43.3873C23.1577 43.389 23.8034 43.1527 24.3115 42.7207C24.8883 42.2328 25.5794 41.8991 26.3201 41.7509C27.0609 41.6026 27.8272 41.6446 28.5473 41.8729C28.8308 41.9645 29.1269 42.0112 29.4249 42.0111C29.941 42.0132 30.4474 41.8715 30.8875 41.6018C31.3275 41.3321 31.6837 40.9451 31.916 40.4843C32.2588 39.8102 32.7684 39.2351 33.3963 38.8138C34.0243 38.3925 34.7497 38.139 35.5033 38.0775C36.1672 38.0284 36.7915 37.7432 37.2633 37.2736C37.735 36.8039 38.0229 36.1808 38.0749 35.5172C38.1344 34.7607 38.3876 34.0323 38.8102 33.4021C39.23 32.7692 39.8078 32.257 40.4865 31.9162C40.9475 31.684 41.3345 31.3279 41.6043 30.8878C41.874 30.4477 42.0156 29.9412 42.0134 29.425C42.0131 29.1249 41.9662 28.8267 41.8743 28.5411C41.6413 27.8243 41.596 27.0598 41.7429 26.3205C41.8898 25.5813 42.2239 24.8921 42.7133 24.3189C43.1482 23.8132 43.3882 23.1687 43.39 22.5017C43.3918 21.8347 43.1552 21.189 42.7229 20.681C42.2306 20.1067 41.8941 19.4156 41.7456 18.6738C41.5971 17.9321 41.6418 17.1647 41.8751 16.4452C41.9464 16.2168 41.9882 15.9802 41.9997 15.7412L38.9572 18.7845C39.2353 20.0033 39.3758 21.2494 39.3759 22.4995C39.3708 26.9737 37.5912 31.2632 34.4275 34.4269C31.2638 37.5906 26.9743 39.3702 22.5002 39.3753C21.2516 39.3743 20.0071 39.2333 18.7899 38.955L15.7499 41.9918ZM26.1445 16.2451C25.9938 16.0944 25.7895 16.0098 25.5764 16.0098C25.3633 16.0098 25.1589 16.0944 25.0082 16.2451C24.8576 16.3958 24.7729 16.6001 24.7729 16.8132C24.7729 17.0263 24.8576 17.2307 25.0082 17.3814L27.2808 19.654C27.3555 19.7287 27.4441 19.788 27.5417 19.8284C27.6392 19.8688 27.7438 19.8897 27.8494 19.8897C27.955 19.8897 28.0596 19.8688 28.1571 19.8284C28.2547 19.788 28.3433 19.7287 28.4179 19.654C28.5683 19.5033 28.6528 19.2991 28.6528 19.0862C28.6528 18.8733 28.5683 18.6691 28.4179 18.5185L26.1445 16.2451ZM20.463 20.7903L19.8941 21.3592L21.0312 22.4995L21.5993 21.9314C21.674 21.8568 21.7332 21.7682 21.7737 21.6707C21.8141 21.5732 21.8349 21.4687 21.835 21.3631C21.835 21.2576 21.8142 21.153 21.7739 21.0555C21.7335 20.958 21.6743 20.8694 21.5997 20.7947C21.5251 20.72 21.4365 20.6608 21.339 20.6204C21.2415 20.5799 21.137 20.5591 21.0315 20.5591C20.9259 20.559 20.8214 20.5798 20.7239 20.6201C20.6263 20.6605 20.5377 20.7197 20.463 20.7943V20.7903Z"></path><path d="M37.3105 0.722024C36.8439 0.259505 36.2136 0 35.5566 0C34.8996 0 34.2693 0.259505 33.8027 0.722024L0.722254 33.8025C0.258369 34.2683 -0.0020752 34.899 -0.0020752 35.5564C-0.0020752 36.2138 0.258369 36.8444 0.722254 37.3102L7.68952 44.2775C8.15546 44.7412 8.78605 45.0015 9.4434 45.0015C10.1007 45.0015 10.7313 44.7412 11.1973 44.2775L44.2777 11.197C44.7416 10.7312 45.0021 10.1006 45.0021 9.44317C45.0021 8.78576 44.7416 8.15513 44.2777 7.6893L37.3105 0.722024ZM12.4975 37.8487C12.3468 37.9993 12.1424 38.084 11.9294 38.084C11.7163 38.084 11.5119 37.9993 11.3612 37.8487L10.2289 36.7067L9.09182 37.8438L10.2281 38.985C10.3046 39.0593 10.3656 39.1482 10.4074 39.2463C10.4492 39.3445 10.4711 39.45 10.4717 39.5567C10.4723 39.6633 10.4516 39.7691 10.411 39.8677C10.3703 39.9664 10.3104 40.0559 10.2347 40.1311C10.159 40.2063 10.0692 40.2658 9.97031 40.3059C9.87146 40.346 9.7656 40.366 9.65892 40.3648C9.55223 40.3636 9.44686 40.3412 9.34894 40.2988C9.25102 40.2564 9.16252 40.195 9.0886 40.118L5.68694 36.7003C5.23522 36.2482 4.98148 35.6353 4.98148 34.9963C4.98148 34.3572 5.23522 33.7443 5.68694 33.2922C6.14616 32.8539 6.75658 32.6094 7.39139 32.6094C8.0262 32.6094 8.63661 32.8539 9.09584 33.2922L12.4991 36.7116C12.5737 36.7863 12.6329 36.875 12.6732 36.9726C12.7135 37.0702 12.7341 37.1748 12.734 37.2804C12.7338 37.3861 12.7129 37.4906 12.6723 37.5881C12.6317 37.6856 12.5723 37.7741 12.4975 37.8487ZM14.7806 35.5656C14.7059 35.6403 14.6173 35.6996 14.5197 35.74C14.4222 35.7805 14.3176 35.8013 14.212 35.8013C14.1064 35.8013 14.0018 35.7805 13.9043 35.74C13.8067 35.6996 13.7181 35.6403 13.6434 35.5656L11.37 33.2922L9.09744 31.018C8.94679 30.8673 8.86216 30.6629 8.86216 30.4499C8.86216 30.2368 8.94679 30.0324 9.09744 29.8817L10.2337 28.7446C10.4576 28.5207 10.7234 28.343 11.016 28.2218C11.3085 28.1006 11.6221 28.0382 11.9387 28.0381C12.2554 28.0381 12.5689 28.1004 12.8615 28.2216C13.1541 28.3427 13.4199 28.5203 13.6438 28.7442C13.8678 28.9681 14.0454 29.2339 14.1666 29.5264C14.2879 29.819 14.3503 30.1325 14.3503 30.4492C14.3503 30.7658 14.288 31.0794 14.1669 31.372C14.0457 31.6645 13.8681 31.9304 13.6443 32.1543L13.0761 32.7225L14.7814 34.4269C14.8561 34.5016 14.9155 34.5903 14.9559 34.688C14.9963 34.7856 15.0171 34.8903 15.017 34.996C15.017 35.1017 14.996 35.2064 14.9555 35.304C14.9149 35.4016 14.8554 35.491 14.7806 35.5656ZM19.3258 31.018C19.1751 31.1687 18.9707 31.2533 18.7576 31.2533C18.5445 31.2533 18.3402 31.1687 18.1895 31.018L15.9169 28.7438L13.6434 26.4712C13.4928 26.3205 13.4082 26.1161 13.4082 25.903C13.4082 25.69 13.4928 25.4856 13.6434 25.3349L14.7806 24.1986C15.0029 23.9683 15.269 23.7847 15.5631 23.6583C15.8572 23.532 16.1736 23.4655 16.4937 23.4627C16.8138 23.4599 17.1312 23.5209 17.4275 23.6421C17.7238 23.7633 17.993 23.9424 18.2193 24.1687C18.4457 24.3951 18.6247 24.6642 18.7459 24.9605C18.8671 25.2568 18.9281 25.5743 18.9254 25.8944C18.9226 26.2145 18.8561 26.5308 18.7297 26.825C18.6034 27.1191 18.4197 27.3851 18.1895 27.6075L17.6213 28.1764L19.3258 29.8817C19.4764 30.0324 19.561 30.2368 19.561 30.4499C19.561 30.6629 19.4764 30.8673 19.3258 31.018ZM26.1444 24.1986C25.9937 24.3492 25.7893 24.4339 25.5762 24.4339C25.3631 24.4339 25.1588 24.3492 25.0081 24.1986L23.8718 23.0623C23.7211 22.9116 23.5167 22.827 23.3036 22.827C23.0905 22.827 22.8862 22.9116 22.7355 23.0623L22.1673 23.6304L23.8718 25.3349C23.9485 25.409 24.0097 25.4977 24.0518 25.5957C24.094 25.6938 24.1161 25.7992 24.1171 25.9059C24.118 26.0126 24.0977 26.1185 24.0572 26.2172C24.0168 26.316 23.9572 26.4057 23.8817 26.4812C23.8063 26.5566 23.7165 26.6163 23.6178 26.6567C23.519 26.6971 23.4132 26.7174 23.3065 26.7165C23.1998 26.7156 23.0943 26.6934 22.9963 26.6513C22.8983 26.6092 22.8096 26.548 22.7355 26.4712L20.4629 24.1986L18.1895 21.926C18.0388 21.7753 17.9542 21.5709 17.9542 21.3578C17.9542 21.1448 18.0388 20.9404 18.1895 20.7897L19.3266 19.6526C19.6549 19.3215 20.0725 19.0931 20.5285 18.9955C20.9845 18.8979 21.459 18.9352 21.8941 19.1028C22.3292 19.2705 22.7061 19.5612 22.9787 19.9396C23.2513 20.3179 23.4077 20.7675 23.429 21.2333C24.0232 21.2598 24.5861 21.5068 25.0081 21.926L26.1444 23.0623C26.2192 23.1369 26.2786 23.2256 26.3191 23.3233C26.3596 23.4209 26.3804 23.5255 26.3804 23.6313C26.3804 23.737 26.3596 23.8416 26.3191 23.9392C26.2786 24.0369 26.2192 24.1256 26.1444 24.2002V24.1986ZM29.5541 20.7889C29.3302 21.0128 29.0644 21.1904 28.7719 21.3116C28.4794 21.4328 28.1658 21.4951 27.8492 21.4951C27.5326 21.4951 27.2191 21.4328 26.9265 21.3116C26.634 21.1904 26.3682 21.0128 26.1444 20.7889L23.8718 18.5163C23.4198 18.0642 23.1659 17.4511 23.1659 16.8118C23.1659 16.1726 23.4198 15.5595 23.8718 15.1074C24.3311 14.669 24.9417 14.4245 25.5766 14.4245C26.2116 14.4245 26.8221 14.669 27.2815 15.1074L29.5541 17.38C30.006 17.8321 30.2599 18.4452 30.2599 19.0844C30.2599 19.7237 30.006 20.3368 29.5541 20.7889ZM34.1001 16.2437C33.9733 16.3704 33.8078 16.4512 33.6298 16.473C33.4519 16.4948 33.2717 16.4566 33.1181 16.3642L27.4366 12.9545C27.2538 12.8449 27.1221 12.6671 27.0704 12.4603C27.0187 12.2536 27.0513 12.0347 27.1609 11.852C27.2706 11.6692 27.4483 11.5375 27.6551 11.4858C27.8619 11.4341 28.0807 11.4667 28.2635 11.5763L31.1886 13.3322L29.4335 10.4063C29.3239 10.2235 29.2913 10.0047 29.343 9.79793C29.3947 9.59116 29.5264 9.4134 29.7092 9.30374C29.8919 9.19409 30.1108 9.16152 30.3175 9.21322C30.5243 9.26491 30.702 9.39662 30.8117 9.57938L34.2206 15.2673C34.3119 15.4206 34.3496 15.5999 34.3278 15.7769C34.306 15.954 34.2259 16.1188 34.1001 16.2453V16.2437ZM39.7824 10.5614L38.0779 12.2658C37.7765 12.5671 37.3678 12.7364 36.9416 12.7364C36.5154 12.7364 36.1067 12.5671 35.8053 12.2658L32.3948 8.85613C32.2455 8.70688 32.1271 8.52967 32.0462 8.33464C31.9654 8.1396 31.9238 7.93055 31.9238 7.71943C31.9238 7.50831 31.9654 7.29926 32.0462 7.10423C32.1271 6.90919 32.2455 6.73198 32.3948 6.58273L34.1001 4.87828C34.251 4.72749 34.4556 4.64282 34.6689 4.6429C34.8822 4.64297 35.0868 4.72779 35.2376 4.87868C35.3884 5.02958 35.473 5.23419 35.473 5.44752C35.4729 5.66084 35.3881 5.8654 35.2372 6.01619L33.5319 7.72144L34.6682 8.85854L35.2372 8.28959C35.3887 8.14321 35.5917 8.06221 35.8024 8.06404C36.0131 8.06587 36.2147 8.15038 36.3637 8.29938C36.5127 8.44837 36.5972 8.64993 36.599 8.86063C36.6008 9.07133 36.5199 9.27433 36.3735 9.42589L35.8045 9.99484L36.9416 11.1311L38.6461 9.42589C38.7969 9.27521 39.0013 9.1906 39.2145 9.19067C39.4277 9.19075 39.6321 9.2755 39.7828 9.42629C39.9335 9.57708 40.0181 9.78155 40.018 9.99473C40.0179 10.2079 39.9332 10.4123 39.7824 10.563V10.5614ZM7.23147 22.4998C7.23311 23.2829 7.29518 24.0647 7.4171 24.8383L24.8385 7.41687C22.6613 7.0738 20.4355 7.2072 18.3148 7.80789C16.1942 8.40858 14.2291 9.46225 12.5552 10.8962C10.8813 12.3301 9.53844 14.1101 8.61932 16.1135C7.7002 18.1168 7.22669 20.2957 7.23147 22.4998Z"></path><path d="M29.25 3.00647C29.012 3.01747 28.7764 3.05796 28.5484 3.12701C27.8314 3.36061 27.0663 3.40614 26.3266 3.25923C25.5869 3.11233 24.8973 2.77792 24.3239 2.28804C23.8182 1.85309 23.1737 1.61311 22.5067 1.61134C21.8397 1.60957 21.1939 1.84614 20.6859 2.2784C20.1094 2.76675 19.4183 3.10073 18.6775 3.24901C17.9366 3.3973 17.1702 3.35504 16.4501 3.1262C16.1666 3.03456 15.8705 2.98792 15.5726 2.98798C15.0565 2.98588 14.55 3.12763 14.11 3.39733C13.6699 3.66702 13.3138 4.054 13.0814 4.51484C12.7392 5.18965 12.2298 5.76554 11.6018 6.18758C10.9738 6.60962 10.2482 6.86372 9.49411 6.92566C8.83025 6.97471 8.20591 7.2599 7.73418 7.72957C7.26245 8.19923 6.97453 8.82231 6.92257 9.48595C6.86244 10.2417 6.60895 10.9692 6.18646 11.5986C5.76667 12.2315 5.18881 12.7437 4.51014 13.0845C4.04918 13.3167 3.6621 13.6729 3.39239 14.1129C3.12267 14.553 2.981 15.0595 2.98328 15.5757C2.9835 15.8758 3.0304 16.174 3.12231 16.4596C3.35486 17.1751 3.40029 17.9382 3.25427 18.6761C3.10825 19.4141 2.77565 20.1024 2.28816 20.6754C1.85322 21.1811 1.61323 21.8255 1.61146 22.4926C1.60969 23.1596 1.84626 23.8053 2.27852 24.3133C2.96437 25.1128 3.3415 26.1313 3.34169 27.1846C3.34169 27.6484 3.26902 28.1094 3.12633 28.5507C3.05508 28.7791 3.01323 29.0157 3.00177 29.2547L6.04422 26.2114C5.76583 24.9937 5.62485 23.7487 5.62394 22.4996C5.62904 18.0254 7.40866 13.736 10.5724 10.5722C13.7361 7.40853 18.0255 5.62892 22.4997 5.62381C23.7482 5.62485 24.9928 5.76583 26.2099 6.0441L29.25 3.00647Z"></path></g></svg>