<svg xmlns="http://www.w3.org/2000/svg" width="45" height="45" viewBox="0 0 45 45"><g><path d="M19.4989 6.35227L19.1463 8.40741C19.1128 8.59859 19.1338 8.79536 19.2069 8.97516C19.28 9.15496 19.4024 9.3105 19.5599 9.42396C19.7369 9.55339 19.9504 9.62328 20.1696 9.62356C20.3348 9.62356 20.5009 9.58374 20.6543 9.50306L22.5 8.53275L24.3457 9.50306C24.5171 9.59403 24.7107 9.63487 24.9042 9.62089C25.0978 9.60692 25.2835 9.5387 25.4401 9.42404C25.5976 9.3106 25.7199 9.15507 25.793 8.97529C25.8662 8.79551 25.8872 8.59875 25.8536 8.40759L25.5011 6.35235L26.9942 4.89689C27.1337 4.76197 27.2324 4.59045 27.2789 4.40201C27.3255 4.21357 27.3179 4.01584 27.2572 3.83147C27.198 3.64665 27.0878 3.48226 26.9394 3.35714C26.791 3.23202 26.6104 3.15123 26.4182 3.12404L24.3546 2.82416L23.4318 0.954375C23.2555 0.597012 22.8984 0.375 22.4998 0.375C22.1012 0.375 21.7441 0.596924 21.5678 0.954375L20.645 2.82416L18.5815 3.12404C18.3893 3.15121 18.2086 3.23199 18.0603 3.35711C17.9119 3.48223 17.8018 3.64664 17.7425 3.83147C17.6819 4.01583 17.6744 4.21355 17.7209 4.40198C17.7674 4.59041 17.866 4.76193 18.0055 4.89689L19.4987 6.35235L19.4989 6.35227ZM44.6447 44.0821L44.0858 39.3928C43.8113 37.0894 43.3487 35.4104 42.6717 34.2602C42.0562 33.2145 41.2408 32.5394 40.1055 32.1357C39.4449 31.9008 38.7589 31.6677 38.1484 31.4645C38.703 31.192 39.203 30.8091 39.6203 30.3284C40.4413 29.3827 40.8448 28.1738 40.7566 26.9246C40.6684 25.6753 40.099 24.5352 39.1533 23.7143C38.2076 22.8934 36.9995 22.4896 35.7495 22.5779C34.5003 22.6661 33.3601 23.2354 32.5392 24.1812C31.7182 25.1269 31.3146 26.3358 31.4029 27.5851C31.491 28.8342 32.0604 29.9745 33.0062 30.7954C33.3114 31.0604 33.6495 31.2852 34.0121 31.464C33.4018 31.6671 32.7156 31.9003 32.0539 32.1356C31.0164 32.5046 30.2456 33.1022 29.6508 34.001C29.3229 33.9327 28.9945 33.8668 28.6657 33.8033C27.6788 33.6108 26.5601 33.3923 26.2999 33.1325C26.2994 33.132 26.2988 33.1318 26.2983 33.1312L26.296 33.1287C25.6908 32.5369 25.6316 31.4714 25.6392 30.9823C27.4516 29.9046 28.6694 27.9271 28.6694 25.6698V24.9346C29.7343 24.6939 30.532 23.7399 30.532 22.6032C30.532 21.8045 30.1378 21.0964 29.534 20.6623C30.029 18.1849 29.7183 16.1449 28.6075 14.5946C27.554 13.1242 25.8026 12.1934 23.6763 11.9738C20.5255 11.6495 18.4466 13.4313 17.8833 13.9859C16.738 14.1353 14.8918 15.0606 14.8957 17.7529C14.8982 19.4703 15.0542 20.4075 15.1817 20.8871C14.7326 21.3219 14.4525 21.9304 14.4525 22.6033C14.4525 23.7401 15.2502 24.694 16.3152 24.9347V25.6699C16.3152 27.9269 17.5326 29.9041 19.3445 30.9819C19.3508 31.4718 19.2895 32.5412 18.6886 33.1288L18.6862 33.1313L18.6846 33.1326C18.4245 33.3923 17.3058 33.6108 16.3189 33.8034C15.9946 33.8661 15.6707 33.931 15.3473 33.9983C14.7527 33.1011 13.9823 32.5043 12.9459 32.1357C12.2843 31.9004 11.5981 31.6672 10.9878 31.4641C11.3504 31.2853 11.6885 31.0605 11.9937 30.7954C12.9395 29.9745 13.5089 28.8343 13.597 27.5851C13.6852 26.336 13.2816 25.127 12.4607 24.1813C11.6397 23.2355 10.4996 22.6662 9.25038 22.578C8.00084 22.4899 6.79225 22.8933 5.84655 23.7144C4.90085 24.5353 4.33149 25.6754 4.24325 26.9247C4.15509 28.1739 4.5586 29.3828 5.37959 30.3285C5.79689 30.8092 6.2969 31.1921 6.85149 31.4646C6.24118 31.6677 5.55528 31.9008 4.89434 32.1358C3.75906 32.5395 2.9437 33.2145 2.3282 34.2603C1.65118 35.4106 1.18852 37.0895 0.914039 39.3929L0.355143 44.0822C0.346326 44.1562 0.353299 44.2312 0.375599 44.3023C0.3979 44.3734 0.435023 44.439 0.484518 44.4947C0.533975 44.5504 0.594687 44.595 0.662649 44.6256C0.730611 44.6562 0.80428 44.672 0.878795 44.672H44.1211C44.1956 44.672 44.2693 44.6562 44.3372 44.6256C44.4052 44.5951 44.4659 44.5504 44.5153 44.4947C44.5648 44.439 44.602 44.3734 44.6243 44.3023C44.6466 44.2312 44.6535 44.1562 44.6447 44.0822V44.0821ZM19.0624 34.1452C19.4914 34.4126 20.3125 34.8495 21.3638 35.0521L19.9328 36.5497C18.6559 36.2766 17.9516 35.2569 17.6257 34.6134C18.2218 34.4808 18.7068 34.3404 19.0624 34.1452ZM23.6209 35.0521C24.6723 34.8495 25.4934 34.4127 25.9223 34.1452C26.278 34.3404 26.7628 34.4808 27.3589 34.6134C27.0328 35.2575 26.3286 36.2767 25.052 36.5497L23.6209 35.0521ZM17.37 25.6698V24.4659C17.37 24.326 17.3144 24.1919 17.2155 24.093C17.1166 23.9941 16.9825 23.9386 16.8426 23.9386C16.1063 23.9386 15.5073 23.3396 15.5073 22.6032C15.5073 21.9732 15.9461 21.4435 16.5341 21.3039L16.8569 21.952C16.9112 22.061 17.0016 22.1479 17.1127 22.1979C17.2238 22.2478 17.3488 22.2578 17.4664 22.226C18.6229 21.9139 19.247 20.5134 19.5403 19.5822C21.9031 21.1861 24.8103 20.2116 26.0597 19.6569L26.6123 21.846C26.6767 22.1016 26.9209 22.2709 27.182 22.241C27.5479 22.2002 28.1638 21.9559 28.4925 21.3145C29.0594 21.4688 29.4775 21.9881 29.4775 22.6032C29.4775 23.3396 28.8786 23.9386 28.1422 23.9386C28.0023 23.9386 27.8682 23.9941 27.7693 24.093C27.6704 24.1919 27.6149 24.326 27.6149 24.4659V25.6698C27.6149 28.4944 25.317 30.7922 22.4925 30.7922C19.6681 30.7922 17.3702 28.4943 17.3702 25.6698H17.37ZM22.4923 31.8469C23.211 31.8475 23.9242 31.722 24.5995 31.4763C24.64 32.0295 24.7733 32.756 25.1537 33.373C24.6151 33.6747 23.6424 34.1069 22.4923 34.1069C21.3423 34.1069 20.3692 33.6745 19.8309 33.373C20.2114 32.756 20.3445 32.0295 20.3852 31.4763C21.0605 31.7221 21.7737 31.8475 22.4923 31.8469ZM9.77508 38.7923C10.4504 36.0235 13.9591 35.3386 16.5211 34.8385L16.5632 34.8302C16.9343 35.6605 17.9445 37.3707 20.0544 37.6392C20.1363 37.6496 20.2195 37.6406 20.2973 37.613C20.375 37.5854 20.4453 37.54 20.5023 37.4803L20.7924 37.1767L21.1683 37.9852L20.1667 43.6186H13.87L14.4394 41.1483C14.4557 41.0806 14.4583 41.0104 14.4472 40.9416C14.4362 40.8729 14.4116 40.807 14.3749 40.7478C14.3383 40.6886 14.2902 40.6372 14.2336 40.5967C14.177 40.5562 14.1129 40.5272 14.045 40.5116C13.9772 40.496 13.9069 40.4939 13.8383 40.5056C13.7696 40.5173 13.7039 40.5424 13.6451 40.5796C13.5862 40.6168 13.5353 40.6652 13.4952 40.7222C13.4552 40.7792 13.4268 40.8435 13.4117 40.9115L12.7876 43.6187H8.63057C8.78922 42.9091 9.11898 41.4827 9.77508 38.7923V38.7923ZM32.1971 43.6186L31.573 40.9114C31.5406 40.7761 31.4561 40.6592 31.3379 40.5859C31.2196 40.5127 31.0773 40.4892 30.9417 40.5204C30.8062 40.5516 30.6885 40.6351 30.6143 40.7527C30.54 40.8703 30.5152 41.0125 30.5453 41.1483L31.1148 43.6185H24.8182L23.8166 37.9852L24.1924 37.1766L24.4825 37.4802C24.5396 37.5399 24.6098 37.5854 24.6876 37.613C24.7654 37.6406 24.8485 37.6495 24.9304 37.6391C27.0402 37.3706 28.0505 35.6604 28.4216 34.8301L28.4637 34.8384C31.0256 35.3385 34.5344 36.0234 35.2098 38.7922C35.866 41.4828 36.1957 42.9091 36.3542 43.6185H32.1972L32.1971 43.6186Z"></path></g></svg>