<svg xmlns="http://www.w3.org/2000/svg" width="45" height="45" viewBox="0 0 45 45"><g><path d="M32.7905 10.0089L32.834 10.343L32.3333 10.4467L32.2667 11.1583H32.8664L33.6641 11.0815L34.076 10.592L33.6382 10.4217L33.3985 10.1459L33.0385 9.56286L32.8664 8.73828L32.1899 8.87617L32.0002 9.16676V9.49437L32.3259 9.71741L32.7905 10.0089Z"></path><path d="M32.214 10.2823L32.2501 9.83625L31.853 9.66504L31.2978 9.79368L30.8859 10.4544V10.8829H31.3663L32.214 10.2823ZM20.7847 12.1767L20.6625 12.4914H20.0711V12.7968H20.2118L20.2322 12.9467L20.5949 12.9161L20.8217 12.7755L20.8809 12.4914L21.1743 12.4664L21.29 12.2276L21.0206 12.1721L20.7847 12.1767ZM19.2604 12.7311L19.2373 13.03L19.6658 12.9939L19.7102 12.694L19.4529 12.4914L19.2604 12.7311Z"></path><path d="M44.9945 22.2673C44.9886 21.6146 44.9546 20.9625 44.8927 20.3127C44.6881 18.2105 44.1868 16.1478 43.4036 14.1862C43.3462 14.0428 43.2935 13.8975 43.2324 13.7559C42.1466 11.1982 40.5969 8.86349 38.6616 6.86962C38.33 6.5237 37.9874 6.18852 37.6344 5.86458C33.4992 2.08759 28.1 -0.00456447 22.4995 7.47744e-06C16.6276 7.47744e-06 11.2775 2.26273 7.26664 5.9599C6.3321 6.82264 5.47151 7.76218 4.69389 8.76864C1.64749 12.6972 -0.00401059 17.5282 7.314e-06 22.4995C7.314e-06 34.907 10.0939 45 22.5005 45C31.2275 45 38.8041 40.0026 42.5337 32.7211C43.5484 30.7422 44.2612 28.6226 44.6483 26.4327C44.8751 25.1547 44.9991 23.8405 44.9991 22.4995C45 22.4218 44.9954 22.345 44.9945 22.2673ZM40.7596 13.2747L40.8901 13.1284C41.0613 13.4607 41.2214 13.7985 41.3741 14.1409L41.1612 14.1326L40.7596 14.1881V13.2747ZM37.5085 9.3489L37.5122 8.34386C37.8657 8.71867 38.2063 9.10458 38.532 9.50438L38.1267 10.1078L36.7098 10.0948L36.621 9.79959L37.5085 9.3489ZM10.3669 6.85111V6.81317H10.8176L10.8565 6.65862H11.594V6.98068L11.3821 7.26386H10.366L10.3669 6.85111ZM11.0869 7.85522C11.0869 7.85522 11.5376 7.77841 11.5765 7.77841C11.6153 7.77841 11.5765 8.22818 11.5765 8.22818L10.5603 8.29204L10.3669 8.06067L11.0869 7.85522ZM42.1931 16.7867H40.5467L39.5436 16.0399L38.4876 16.1426V16.7867H38.1535L37.7926 16.5295L35.9639 16.0658V14.8812L33.6466 15.0617L32.9284 15.4476H32.0085L31.5578 15.4023L30.4408 16.0223V17.1893L28.1577 18.8366L28.3475 19.54H28.8102L28.689 20.21L28.3632 20.3294L28.3456 22.0803L30.3187 24.3273H31.1775L31.2293 24.1903H32.773L33.2181 23.7785H34.0936L34.5739 24.2597L35.8788 24.3949L35.7057 26.1301L37.154 28.6871L36.3915 30.1447L36.4433 30.8314L37.0439 31.4301V33.0811L37.8324 34.1417V35.5132H38.5135C34.7229 40.1673 28.9536 43.1482 22.4986 43.1482C11.1137 43.1491 1.85091 33.8854 1.85091 22.4995C1.85091 19.6334 2.43949 16.9015 3.49913 14.4185V13.7744L4.23764 12.8776C4.49399 12.3936 4.76885 11.9217 5.06222 11.4617L5.09553 11.8365L4.23764 12.8776C3.97015 13.3808 3.7247 13.8948 3.50006 14.4185V15.5938L4.35795 16.0066V17.64L5.18068 19.0439L5.84978 19.1466L5.93584 18.6654L5.14643 17.4475L4.99188 16.2639H5.45461L5.64988 17.4818L6.79096 19.1466L6.49667 19.6843L7.22222 20.7939L9.02407 21.24V20.9485L9.74499 21.0512L9.67651 21.5658L10.2429 21.6694L11.1174 21.9082L12.3529 23.3158L13.9308 23.4352L14.0854 24.7225L13.0054 25.4776L12.9545 26.627L12.7999 27.3304L14.3621 29.2859L14.4814 29.9559C14.4814 29.9559 15.0478 30.1095 15.1172 30.1095C15.1857 30.1095 16.3869 31.0192 16.3869 31.0192V34.5535L16.8154 34.6738L16.5239 36.3045L17.2448 37.266L17.1116 38.8819L18.0639 40.556L19.2864 41.624L20.5154 41.6462L20.6357 41.251L19.7325 40.4903L19.7843 40.1127L19.9462 39.65L19.9805 39.178L19.3697 39.1595L19.0615 38.7727L19.5686 38.2849L19.6371 37.9166L19.0708 37.7547L19.1041 37.4122L19.9111 37.2901L21.1382 36.7006L21.55 35.9454L22.8373 34.2981L22.5449 33.0099L22.9401 32.3241L24.1237 32.3602L24.9205 31.7291L25.1778 29.2433L26.0616 28.1207L26.2162 27.3998L25.4101 27.1416L24.878 26.2689L23.0594 26.2504L21.6176 25.7007L21.5491 24.6725L21.0679 23.8313L19.7639 23.8118L19.0106 22.6291L18.3415 22.3024L18.3073 22.6633L17.0894 22.7355L16.6433 22.1146L15.3727 21.8564L14.326 23.0659L12.6787 22.7864L12.5593 20.93L11.3571 20.7245L11.8393 19.8139L11.7014 19.291L10.1217 20.3469L9.12772 20.2257L8.77327 19.4493L8.98983 18.6487L9.53769 17.6391L10.7991 17.0005L13.2349 16.9996L13.2284 17.7427L14.1039 18.1499L14.0345 16.8802L14.6656 16.2454L15.939 15.4087L16.026 14.8202L17.2957 13.4986L18.646 12.7509L18.5266 12.6528L19.4409 11.7921L19.7759 11.8809L19.9296 12.0734L20.2766 11.6884L20.3618 11.6505L19.9814 11.5968L19.5955 11.4682V11.098L19.8 10.9305H20.2507L20.4571 11.0212L20.6357 11.3821L20.8541 11.3488V11.3173L20.917 11.3386L21.55 11.2414L21.6398 10.9323L22.0007 11.023V11.3581L21.6657 11.5885H21.6666L21.7157 11.9559L22.8623 12.3094L22.8651 12.3233L23.1289 12.3011L23.1464 11.8041L22.2376 11.3904L22.1858 11.1517L22.9401 10.8944L22.9734 10.1726L22.1849 9.69224L22.1331 8.47528L21.0521 9.00648H20.6579L20.7616 8.08011L19.2901 7.73307L18.6811 8.19301V9.596L17.5863 9.94304L17.1477 10.8574L16.672 10.9342V9.76443L15.6429 9.62191L15.1283 9.2869L14.921 8.52895L16.7618 7.45173L17.6622 7.1778L17.7529 7.78304L18.2545 7.75713L18.2934 7.45265L18.8181 7.37769L18.8274 7.27127L18.6016 7.1778L18.5497 6.85574L19.1948 6.80114L19.5844 6.39579L19.6057 6.36618L19.6103 6.36803L19.7287 6.24587L21.0845 6.07466L21.6842 6.58366L20.1119 7.42119L22.1127 7.89317L22.3718 7.22407H23.2464L23.5555 6.64104L22.9373 6.48649V5.7489L20.9985 4.89008L19.6603 5.04463L18.9051 5.4398L18.9569 6.40042L18.1675 6.28011L18.0463 5.7489L18.8024 5.06222L17.4299 4.99373L17.0357 5.11312L16.8645 5.57584L17.379 5.66283L17.2763 6.17738L16.4018 6.22921L16.2648 6.57163L14.996 6.60679C14.996 6.60679 14.9608 5.88679 14.9099 5.88679L15.9048 5.86921L16.6609 5.1307L16.2481 4.92433L15.6993 5.45738L14.7887 5.40556L14.2399 4.65039H13.0729L11.855 5.56011H12.9711L13.0729 5.88679L12.7832 6.1561L14.0187 6.19034L14.2075 6.63641L12.8166 6.58458L12.749 6.24124L11.8745 6.05245L11.4108 5.79517L10.3697 5.8035C13.8907 3.23149 18.1391 1.84712 22.4995 1.85091C27.7209 1.85091 32.4916 3.80268 36.1314 7.00936L35.8862 7.44803L34.9339 7.82098L34.5322 8.25687L34.6248 8.76494L35.1162 8.83343L35.4123 9.57379L36.2601 9.23229L36.3998 10.2225H36.1444L35.4484 10.1198L34.6766 10.2494L33.9298 11.3044L32.8618 11.4719L32.7073 12.3862L33.158 12.4927L33.0275 13.0803L31.9669 12.8675L30.9943 13.0803L30.7879 13.6217L30.9563 14.7582L31.5273 15.0256L32.4851 15.0201L33.132 14.9618L33.3292 14.4472L34.3398 13.134L35.0051 13.27L35.6604 12.6777L35.7825 13.1405L37.3947 14.2279L37.1975 14.4926L36.4711 14.4537L36.7505 14.8498L37.1975 14.9479L37.7213 14.7295L37.7102 14.0983L37.9425 13.9817L37.7556 13.7837L36.6802 13.184L36.397 12.3872H37.291L37.577 12.6703L38.347 13.3339L38.3793 14.1363L39.1771 14.9858L39.4741 13.8216L40.0266 13.5199L40.1303 14.4722L40.6698 15.0645L41.7461 15.046C41.9544 15.5818 42.1413 16.1269 42.3051 16.6831L42.1931 16.7867ZM12.2724 10.2225L12.8129 9.96525L13.3015 10.0819L13.1331 10.738L12.6056 10.9055L12.2724 10.2225ZM15.1404 11.7671V12.1919H13.9058L13.4431 12.0632L13.5588 11.7671L14.152 11.5219H14.9627V11.7671H15.1404ZM15.7086 12.3594V12.7712L15.3995 12.9702L15.0145 13.0414V12.3594H15.7086ZM15.3606 12.1919V11.7023L15.7854 12.0892L15.3606 12.1919ZM15.554 13.1821V13.5828L15.2588 13.879H14.6027L14.7054 13.4292L15.0154 13.4024L15.0793 13.2478L15.554 13.1821ZM13.9197 12.3594H14.6018L13.7272 13.5819L13.3663 13.3885L13.444 12.8739L13.9197 12.3594ZM16.7127 13.0414V13.4412H16.0566L15.877 13.1821V12.8101H15.9289L16.7127 13.0414ZM16.1065 12.4917L16.2935 12.2955L16.6091 12.4917L16.3564 12.7L16.1065 12.4917ZM42.5281 17.8288L42.5929 17.7529C42.6198 17.8695 42.6484 17.9861 42.6744 18.1046L42.5281 17.8288Z"></path><path d="M3.5 13.7747V14.4188C3.72488 13.8931 3.9729 13.3804 4.23851 12.8779L3.5 13.7747Z"></path></g></svg>