<svg xmlns="http://www.w3.org/2000/svg" width="14" height="14" viewBox="0 0 14 14"><g><path d="M12.1104 11.0844C11.2834 11.9542 10.2246 12.4334 9.12899 12.4334C7.33326 12.4334 5.77841 11.1723 5.04665 9.34944H10.0346C10.4671 9.34944 10.8178 8.99876 10.8178 8.56624C10.8178 8.13371 10.4671 7.78304 10.0346 7.78304H4.64864C4.61714 7.52315 4.60124 7.2616 4.60102 6.99981C4.60102 6.69979 4.62215 6.40569 4.66155 6.11868H10.0346C10.4671 6.11868 10.8178 5.768 10.8178 5.33548C10.8178 4.90296 10.4671 4.55225 10.0346 4.55225H5.08831C5.83577 2.78275 7.36577 1.56625 9.12899 1.56625C10.2246 1.56625 11.2834 2.04543 12.1104 2.9152C12.4081 3.22851 12.9036 3.24138 13.2175 2.9434C13.5311 2.6453 13.5435 2.14956 13.2459 1.83609C12.1204 0.652067 10.6583 1.52588e-05 9.12918 1.52588e-05C6.51813 1.52588e-05 4.28619 1.89639 3.42007 4.55247H1.32129C0.888763 4.55247 0.538086 4.90315 0.538086 5.33568C0.538086 5.7682 0.888763 6.11888 1.32129 6.11888H3.08447C3.05274 6.40789 3.03459 6.70141 3.03459 7C3.03459 7.26501 3.04843 7.52585 3.07376 7.78323H1.32129C0.888763 7.78323 0.538086 8.13391 0.538086 8.56643C0.538086 8.99895 0.888763 9.34963 1.32129 9.34963H3.38899C4.23148 12.0571 6.48597 14 9.12899 14C10.6583 14 12.12 13.3478 13.2455 12.1639C13.5433 11.8504 13.5311 11.3547 13.2174 11.0566C12.904 10.7585 12.4081 10.771 12.1104 11.0844Z"></path></g></svg>