<svg xmlns="http://www.w3.org/2000/svg" width="40" height="40" viewBox="0 0 40 40" fill="none"><rect width="40" height="40" rx="20" fill="#292727"></rect><rect x="0.5" y="0.5" width="39" height="39" rx="19.5" stroke="white" stroke-opacity="0.1"></rect><path fill-rule="evenodd" clip-rule="evenodd" d="M11.7006 13.2269L17.644 19.173C18.9403 20.4667 21.0593 20.4679 22.3566 19.173L28.3001 13.2269C28.3141 13.213 28.3249 13.1961 28.3317 13.1775C28.3385 13.1588 28.3411 13.139 28.3394 13.1192C28.3377 13.0995 28.3316 13.0804 28.3216 13.0632C28.3117 13.0461 28.2981 13.0314 28.2818 13.0201C27.6756 12.5973 26.938 12.3467 26.1435 12.3467H13.8572C13.0627 12.3467 12.3251 12.5974 11.7189 13.0201C11.7026 13.0314 11.689 13.0461 11.6791 13.0632C11.6691 13.0804 11.663 13.0995 11.6613 13.1192C11.6595 13.139 11.6621 13.1588 11.6689 13.1775C11.6757 13.1961 11.6865 13.213 11.7006 13.2269ZM10.1123 16.0915C10.1118 15.4874 10.2586 14.8922 10.5401 14.3576C10.5499 14.3388 10.564 14.3225 10.5813 14.3101C10.5986 14.2978 10.6186 14.2897 10.6396 14.2865C10.6606 14.2833 10.6821 14.2851 10.7022 14.2918C10.7224 14.2985 10.7407 14.3098 10.7557 14.3249L16.6239 20.1931C18.4822 22.0541 21.5174 22.0551 23.3768 20.1931L29.245 14.3249C29.26 14.3098 29.2783 14.2985 29.2985 14.2918C29.3187 14.2851 29.3401 14.2833 29.3611 14.2865C29.3822 14.2897 29.4021 14.2978 29.4194 14.3101C29.4367 14.3225 29.4508 14.3388 29.4607 14.3576C29.7421 14.8922 29.8889 15.4874 29.8884 16.0915V23.9091C29.8884 25.9756 28.2074 27.654 26.1435 27.654H13.8572C11.7933 27.654 10.1123 25.9756 10.1123 23.9091V16.0915Z" fill="#86E54A"></path></svg>