<svg xmlns="http://www.w3.org/2000/svg" width="40" height="40" viewBox="0 0 40 40" fill="none"><rect width="40" height="40" rx="20" fill="white"></rect><path fill-rule="evenodd" clip-rule="evenodd" d="M11.7002 13.2269L17.6437 19.173C18.94 20.4667 21.0589 20.4679 22.3563 19.173L28.2997 13.2269C28.3138 13.213 28.3246 13.1961 28.3314 13.1775C28.3382 13.1588 28.3408 13.139 28.339 13.1192C28.3373 13.0995 28.3312 13.0804 28.3213 13.0632C28.3113 13.0461 28.2977 13.0314 28.2814 13.0201C27.6752 12.5973 26.9376 12.3467 26.1432 12.3467H13.8568C13.0623 12.3467 12.3247 12.5974 11.7185 13.0201C11.7023 13.0314 11.6886 13.0461 11.6787 13.0632C11.6687 13.0804 11.6627 13.0995 11.6609 13.1192C11.6592 13.139 11.6618 13.1588 11.6686 13.1775C11.6754 13.1961 11.6862 13.213 11.7002 13.2269ZM10.1119 16.0915C10.1115 15.4874 10.2583 14.8922 10.5397 14.3576C10.5495 14.3388 10.5637 14.3225 10.5809 14.3101C10.5982 14.2978 10.6182 14.2897 10.6392 14.2865C10.6602 14.2833 10.6817 14.2851 10.7019 14.2918C10.7221 14.2985 10.7404 14.3098 10.7554 14.3249L16.6236 20.1931C18.4818 22.0541 21.517 22.0551 23.3764 20.1931L29.2446 14.3249C29.2596 14.3098 29.2779 14.2985 29.2981 14.2918C29.3183 14.2851 29.3398 14.2833 29.3608 14.2865C29.3818 14.2897 29.4018 14.2978 29.419 14.3101C29.4363 14.3225 29.4505 14.3388 29.4603 14.3576C29.7417 14.8922 29.8885 15.4874 29.888 16.0915V23.9091C29.888 25.9756 28.2071 27.654 26.1432 27.654H13.8568C11.793 27.654 10.1119 25.9756 10.1119 23.9091V16.0915Z" fill="#1781FE"></path></svg>