<svg xmlns="http://www.w3.org/2000/svg" class="exclude" width="16" height="16" viewBox="0 0 16 16"><g><path d="M15 8C15 4.13401 11.866 1 8 1C4.13401 1 1 4.13401 1 8C1 11.866 4.13401 15 8 15C11.866 15 15 11.866 15 8ZM16 8C16 12.4183 12.4183 16 8 16C3.58172 16 0 12.4183 0 8C0 3.58172 3.58172 0 8 0C12.4183 0 16 3.58172 16 8Z"></path><path d="M6.00165 5.00036C5.8601 5.00368 5.72612 5.05514 5.62413 5.15703L5.1296 5.65267C4.89714 5.88495 4.92646 6.28828 5.19443 6.55662L6.67129 8.03561L5.19443 9.51394C4.92646 9.78219 4.89704 10.1856 5.1296 10.4184L5.62413 10.9136C5.8566 11.1458 6.2592 11.117 6.52753 10.8486L8.0044 9.36982L9.48126 10.8486C9.74978 11.117 10.1527 11.1458 10.3847 10.9136L10.8799 10.4184C11.1119 10.1857 11.0831 9.78228 10.8145 9.51394L9.33769 8.03561L10.8145 6.55662C11.0831 6.28828 11.1119 5.88495 10.8799 5.65267L10.3847 5.15703C10.1527 4.92429 9.74978 4.9537 9.48126 5.22241L8.0044 6.70084L6.52753 5.2225C6.37677 5.07109 6.18321 4.99594 6.00165 5.00036Z"></path></g></svg>