<svg xmlns="http://www.w3.org/2000/svg" width="36" height="36" viewBox="0 0 36 36"><g><path d="M35.8703 28.2548L33.7795 22.1697C34.7873 20.1094 35.3199 17.8181 35.3235 15.5126C35.3297 11.5039 33.7788 7.71355 30.9563 4.83988C28.1332 1.96565 24.3714 0.347686 20.3636 0.284193C16.2077 0.218522 12.3015 1.79929 9.36472 4.73596C6.53295 7.56766 4.96231 11.3008 4.9126 15.29C2.12162 17.3914 0.474267 20.6676 0.479681 24.167C0.482282 25.8045 0.850861 27.4323 1.54927 28.9043L0.109064 33.0955C-0.138507 33.816 0.0423371 34.5983 0.581071 35.1371C0.960196 35.5162 1.46005 35.7181 1.9741 35.7181C2.19038 35.7181 2.4092 35.6824 2.62259 35.6091L6.81385 34.1688C8.28584 34.8673 9.91365 35.2358 11.5512 35.2384H11.5687C15.1201 35.2383 18.4213 33.5485 20.515 30.6891C22.6938 30.6317 24.8495 30.1043 26.7983 29.1509L32.8835 31.2419C33.1314 31.3274 33.3918 31.3712 33.654 31.3715C34.2649 31.3715 34.8589 31.1316 35.3095 30.6809C35.9497 30.0407 36.1645 29.1111 35.8703 28.2548ZM11.5685 33.0956H11.5545C10.1051 33.0934 8.66574 32.7361 7.39231 32.0624C7.2628 31.9939 7.12062 31.9526 6.97456 31.9412C6.82849 31.9299 6.68164 31.9485 6.54308 31.9961L2.24537 33.4729L3.72214 29.1753C3.76974 29.0367 3.78843 28.8898 3.77703 28.7438C3.76564 28.5977 3.72442 28.4555 3.65591 28.326C2.98217 27.0525 2.62484 25.6132 2.62259 24.1637C2.61901 21.8322 3.52597 19.6224 5.11201 17.9676C5.63007 21.1258 7.13525 24.036 9.46836 26.3277C11.7842 28.6023 14.6953 30.0506 17.8363 30.5241C16.1778 32.1588 13.9421 33.0956 11.5685 33.0956ZM33.7942 29.1656C33.7332 29.2266 33.6609 29.2432 33.5796 29.2152L27.0653 26.9767C26.9268 26.9291 26.7799 26.9104 26.6339 26.9218C26.4878 26.9332 26.3456 26.9744 26.2162 27.043C24.3562 28.0269 22.2544 28.5488 20.1379 28.552H20.1176C13.0257 28.552 7.16774 22.791 7.05538 15.7008C6.99877 12.13 8.35707 8.77401 10.88 6.25112C13.4028 3.72824 16.7593 2.37044 20.3297 2.42669C27.4267 2.53926 33.1917 8.40803 33.1807 15.5092C33.1774 17.6258 32.6556 19.7276 31.6717 21.5875C31.6032 21.717 31.562 21.8592 31.5506 22.0052C31.5392 22.1513 31.5579 22.2981 31.6055 22.4367L33.8439 28.951C33.8718 29.0326 33.8551 29.1048 33.7942 29.1656Z"></path><path d="M26.5002 9.80957H13.7343C13.1426 9.80957 12.6629 10.2893 12.6629 10.881C12.6629 11.4727 13.1426 11.9524 13.7343 11.9524H26.5002C27.092 11.9524 27.5717 11.4727 27.5717 10.881C27.5717 10.2893 27.092 9.80957 26.5002 9.80957ZM26.5002 14.2161H13.7343C13.1426 14.2161 12.6629 14.6959 12.6629 15.2875C12.6629 15.8792 13.1426 16.359 13.7343 16.359H26.5002C27.092 16.359 27.5717 15.8792 27.5717 15.2875C27.5717 14.6959 27.092 14.2161 26.5002 14.2161ZM21.5862 18.6225H13.7342C13.1425 18.6225 12.6628 19.1023 12.6628 19.694C12.6628 20.2857 13.1426 20.7654 13.7342 20.7654H21.5862C22.1779 20.7654 22.6576 20.2856 22.6576 19.694C22.6576 19.1023 22.178 18.6225 21.5862 18.6225Z"></path></g></svg>