<svg xmlns="http://www.w3.org/2000/svg" width="40" height="40" viewBox="0 0 40 40"><path d="M39.1406 27.4219C39.037 27.4219 38.9377 27.463 38.8644 27.5363C38.7912 27.6095 38.75 27.7089 38.75 27.8125V32.1094H34.8438V35.1161L20.4695 13.5547L25.4031 6.15413C25.4316 6.11145 25.4513 6.06358 25.4613 6.01325C25.4713 5.96293 25.4712 5.91114 25.4611 5.86083C25.4511 5.81053 25.4312 5.7627 25.4027 5.72008C25.3741 5.67745 25.3375 5.64087 25.2948 5.61242C25.2521 5.58396 25.2042 5.56419 25.1539 5.55424C25.1036 5.54428 25.0518 5.54434 25.0015 5.5544C24.9512 5.56446 24.9033 5.58434 24.8607 5.61288C24.8181 5.64143 24.7815 5.67809 24.753 5.72078L20 12.8505L15.2469 5.72078C15.2184 5.67809 15.1818 5.64143 15.1392 5.61288C15.0966 5.58434 15.0488 5.56446 14.9985 5.5544C14.9482 5.54434 14.8964 5.54428 14.846 5.55424C14.7957 5.56419 14.7478 5.58396 14.7052 5.61242C14.6625 5.64087 14.6258 5.67745 14.5973 5.72008C14.5687 5.7627 14.5488 5.81053 14.5388 5.86083C14.5287 5.91114 14.5287 5.96293 14.5386 6.01325C14.5486 6.06358 14.5683 6.11145 14.5968 6.15413L19.5305 13.5547L7.5 31.6005V20.3623C8.82328 20.1721 9.84375 19.0313 9.84375 17.6562V9.84374C9.84375 8.33601 8.61711 7.10937 7.10938 7.10937C5.60164 7.10937 4.375 8.33601 4.375 9.84374V17.6562C4.375 19.0313 5.39547 20.1721 6.71875 20.3623V32.5C6.71875 32.5705 6.73891 32.6359 6.77164 32.693L5.15625 35.1161V32.1094H1.25V27.8125C1.25 27.7089 1.20884 27.6095 1.13559 27.5363C1.06233 27.463 0.962975 27.4219 0.859375 27.4219C0.755775 27.4219 0.656418 27.463 0.583161 27.5363C0.509905 27.6095 0.46875 27.7089 0.46875 27.8125V36.7969H39.5312V27.8125C39.5312 27.7089 39.4901 27.6095 39.4168 27.5363C39.3436 27.463 39.2442 27.4219 39.1406 27.4219ZM29.3275 36.0156C24.9989 32.7315 22.0145 27.733 20.3906 22.4798V36.0156H19.6094V22.4798C17.9858 27.7322 15.0019 32.7309 10.6725 36.0156H9.33219C13.7338 33.0425 16.2917 28.6567 17.6641 25.4892C19.0868 22.2058 19.5602 19.5381 19.6094 19.2453V14.8448L20 14.2589L20.3906 14.8448V19.2453C20.4402 19.5394 20.918 22.2234 22.3449 25.5098C23.7171 28.6705 26.2733 33.0472 30.6679 36.0157H29.3275V36.0156Z"></path><path d="M33.6719 10.2344C35.6135 10.2344 37.1875 8.66038 37.1875 6.71875C37.1875 4.77712 35.6135 3.20312 33.6719 3.20312C31.7302 3.20312 30.1562 4.77712 30.1562 6.71875C30.1562 8.66038 31.7302 10.2344 33.6719 10.2344Z"></path></svg>