<svg xmlns="http://www.w3.org/2000/svg" width="40" height="40" viewBox="0 0 40 40"><g><path d="M29.2065 8.27211C29.5392 6.45704 31.6136 4.83836 33.3891 6.61375C35.135 8.35969 33.5986 10.3948 31.821 10.7783C30.1439 11.1401 28.8939 9.97782 29.2066 8.27211H29.2065ZM31.7307 29.2037C30.0249 28.891 28.8627 30.141 29.2245 31.8181C29.608 33.5957 31.6431 35.1321 33.3891 33.3862C35.1645 31.6108 33.5458 29.5363 31.7307 29.2037ZM8.1847 29.2217C6.40712 29.6052 4.87072 31.6403 6.61665 33.3863C8.39204 35.1616 10.4666 33.543 10.7992 31.7279C11.1118 30.0221 9.86173 28.8599 8.1847 29.2217ZM25.657 14.3459C26.6559 15.3448 27.3917 16.607 27.7517 18.0191L29.686 16.0847C29.9987 15.772 30.371 15.6066 30.8126 15.5839L34.2364 15.195C34.6359 15.1745 34.9795 15.084 35.3204 14.8746L38.4295 12.9648C39.8885 12.1224 38.9105 10.6539 37.726 11.2228L34.4434 12.8427C34.2732 12.9267 34.1106 12.9646 33.9209 12.9646H31.5589C31.2338 12.9646 30.9539 12.8488 30.724 12.6188L29.0539 10.9488L27.3838 9.27868C27.1539 9.04875 27.038 8.76891 27.038 8.44375V6.0818C27.038 5.89203 27.0759 5.72946 27.1599 5.5593L28.7799 2.27664C29.3487 1.09227 27.8802 0.114144 27.0379 1.57313L25.1281 4.68227C24.9187 5.02313 24.8281 5.36672 24.8077 5.76625L24.4188 9.19008C24.3962 9.63164 24.2306 10.004 23.918 10.3166L21.9835 12.2511C23.3958 12.611 24.658 13.3469 25.657 14.3459ZM1.57595 12.9648L4.68509 14.8747C5.02595 15.0841 5.36954 15.1747 5.76907 15.1951L9.1929 15.584C9.63447 15.6066 10.0068 15.7721 10.3195 16.0848L12.2539 18.0192C12.6138 16.607 13.3497 15.3448 14.3487 14.3459C15.3476 13.347 16.6097 12.6111 18.022 12.2511L16.0876 10.3166C15.7749 10.004 15.6094 9.63164 15.5868 9.19008L15.1979 5.76625C15.1774 5.36672 15.0869 5.02313 14.8775 4.68227L12.9677 1.57313C12.1253 0.114144 10.6568 1.09219 11.2257 2.27664L12.8456 5.5593C12.9296 5.72946 12.9675 5.89203 12.9675 6.0818V8.44375C12.9675 8.76891 12.8517 9.04875 12.6217 9.27868L10.9517 10.9488L9.28157 12.6188C9.05165 12.8488 8.77181 12.9647 8.44665 12.9647H6.0847C5.89493 12.9647 5.73236 12.9267 5.5622 12.8428L2.27954 11.2229C1.09517 10.654 0.116965 12.1225 1.57595 12.9648ZM38.4297 27.0352L35.3205 25.1253C34.9796 24.9159 34.636 24.8253 34.2365 24.8049L30.8127 24.416C30.3711 24.3934 29.9988 24.2279 29.6861 23.9152L27.7517 21.9808C27.3918 23.3931 26.6559 24.6551 25.657 25.6541C24.6581 26.6531 23.396 27.3888 21.9837 27.7488L23.9181 29.6833C24.2308 29.9959 24.3963 30.3683 24.4189 30.8098L24.8078 34.2337C24.8283 34.6332 24.9188 34.9768 25.1282 35.3177L27.0381 38.4268C27.8804 39.8858 29.3489 38.9077 28.78 37.7233L27.1601 34.4406C27.0761 34.2705 27.0382 34.1079 27.0382 33.9181V31.5562C27.0382 31.231 27.1541 30.9512 27.384 30.7213L29.0541 29.0512L30.7242 27.3811C30.9541 27.1512 31.2339 27.0352 31.5591 27.0352H33.921C34.1108 27.0352 34.2734 27.0732 34.4435 27.1571L37.7262 28.777C38.9106 29.3459 39.8887 27.8775 38.4297 27.0352ZM14.3487 25.6541C13.3497 24.6552 12.6139 23.3931 12.2539 21.9808L10.3195 23.9152C10.0069 24.2279 9.63454 24.3934 9.19298 24.416L5.76915 24.8049C5.36962 24.8254 5.02603 24.9159 4.68517 25.1253L1.57603 27.0352C0.117043 27.8775 1.09509 29.346 2.27954 28.7771L5.5622 27.1572C5.73236 27.0732 5.89493 27.0353 6.0847 27.0353H8.44665C8.77181 27.0353 9.05165 27.1512 9.28157 27.3811L10.9517 29.0512L12.6217 30.7213C12.8517 30.9512 12.9676 31.231 12.9676 31.5562V33.9181C12.9676 34.1079 12.9296 34.2705 12.8456 34.4406L11.2257 37.7233C10.6568 38.9077 12.1253 39.8858 12.9677 38.4268L14.8775 35.3177C15.0869 34.9768 15.1775 34.6332 15.1979 34.2337L15.5868 30.8098C15.6094 30.3683 15.7749 29.9959 16.0876 29.6833L18.022 27.7488C16.6097 27.3889 15.3477 26.6531 14.3487 25.6541ZM8.27493 10.7963C9.98071 11.109 11.1429 9.85891 10.7811 8.18188C10.3977 6.40422 8.36251 4.86789 6.61657 6.61383C4.84118 8.38922 6.45986 10.4638 8.27493 10.7963ZM17.0731 5.17672C17.1073 5.17674 17.1413 5.1736 17.1749 5.16735C19.0388 4.81414 20.9781 4.81563 22.8309 5.16617C23.1284 5.22266 23.4145 5.02758 23.471 4.73086C23.5275 4.43414 23.3317 4.14797 23.0342 4.09141C21.0497 3.71563 18.9674 3.71407 16.9715 4.09258C16.674 4.14867 16.4782 4.43485 16.5347 4.73164C16.5874 4.99375 16.8134 5.17672 17.0732 5.17672H17.0731ZM35.2726 23.4665C35.3065 23.4725 35.3403 23.4759 35.3742 23.4759C35.5013 23.4755 35.6242 23.4308 35.7218 23.3494C35.8195 23.2681 35.8857 23.1553 35.909 23.0304C36.0973 22.0366 36.1952 21.0165 36.1952 19.999C36.1952 18.9815 36.0973 17.9644 35.909 16.9677C35.8819 16.825 35.7992 16.699 35.6791 16.6173C35.5591 16.5356 35.4115 16.5049 35.2688 16.532C34.9752 16.5884 34.7793 16.8742 34.8358 17.1713C35.009 18.1011 35.0994 19.0523 35.0994 19.999C35.0994 20.9457 35.0127 21.8999 34.8358 22.8273C34.7793 23.1241 34.9752 23.4099 35.2726 23.4663V23.4665ZM4.73306 16.5321C4.43931 16.476 4.14939 16.6711 4.09665 16.9678C3.90837 17.9623 3.81048 18.982 3.81048 19.9991C3.81048 21.0163 3.90837 22.0334 4.09665 23.0305C4.11999 23.1554 4.18618 23.2683 4.2838 23.3496C4.38142 23.4309 4.50436 23.4756 4.63142 23.476C4.66532 23.476 4.69923 23.4727 4.73306 23.4666C5.03056 23.4102 5.22634 23.1244 5.16986 22.8277C4.9929 21.8972 4.90626 20.9456 4.90626 19.9993C4.90626 19.053 4.9929 18.0991 5.16986 17.1713C5.22634 16.8746 5.03056 16.5888 4.73306 16.5323V16.5321ZM22.8308 34.8313C20.9706 35.1841 19.0274 35.1827 17.1748 34.8321C17.0321 34.805 16.8845 34.8357 16.7645 34.9174C16.6444 34.9991 16.5618 35.1252 16.5346 35.2678C16.4781 35.5649 16.6739 35.8507 16.9714 35.9073C17.9656 36.0956 18.986 36.1909 20.0027 36.1909C21.0195 36.1909 22.0362 36.0948 23.0342 35.9066C23.3317 35.8501 23.5274 35.5635 23.4709 35.2672C23.4438 35.1245 23.3611 34.9985 23.2411 34.9168C23.121 34.8351 22.9735 34.8044 22.8308 34.8315V34.8313ZM20.5496 13.3015V15.8481C21.2055 15.7979 21.8508 15.6534 22.4655 15.4191C22.4103 15.2996 22.3517 15.1818 22.2899 15.0656C21.8086 14.163 21.2051 13.5311 20.5496 13.3015ZM23.449 25.0495C23.3867 25.1839 23.3207 25.3165 23.2512 25.4472C23.0704 25.7862 22.8724 26.096 22.6592 26.3728C23.191 26.1508 23.6929 25.8629 24.1531 25.5159C23.9281 25.3463 23.693 25.1905 23.4491 25.0495H23.449ZM20.5496 26.6986C21.2051 26.4691 21.8086 25.837 22.2899 24.9345C22.3517 24.8183 22.4102 24.7004 22.4655 24.581C21.8508 24.3467 21.2055 24.2022 20.5496 24.152V26.6987V26.6986ZM23.359 20.5469H20.5496V23.0556C21.3394 23.1093 22.1168 23.2804 22.8561 23.5632C23.1366 22.671 23.3144 21.6464 23.359 20.5469ZM20.5496 19.4531H23.359C23.3144 18.3536 23.1366 17.3289 22.856 16.4368C22.1167 16.7196 21.3393 16.8907 20.5495 16.9444V19.4531H20.5496ZM26.8838 20.5469H24.4534C24.4052 21.8115 24.1914 22.9957 23.852 24.0247C24.2499 24.2435 24.6285 24.4957 24.9835 24.7788C26.0556 23.6616 26.7555 22.1845 26.8838 20.5469ZM23.449 14.9505C23.6929 14.8095 23.928 14.6537 24.1529 14.4841C23.6927 14.1371 23.1908 13.8493 22.659 13.6273C22.8722 13.9041 23.0703 14.2139 23.2511 14.5529C23.3195 14.6812 23.3855 14.8138 23.4489 14.9505H23.449ZM16.7543 25.4471C16.6859 25.3188 16.6199 25.1862 16.5565 25.0495C16.3126 25.1905 16.0775 25.3462 15.8526 25.5159C16.3128 25.8628 16.8146 26.1506 17.3464 26.3727C17.1332 26.0959 16.9351 25.786 16.7544 25.447L16.7543 25.4471ZM15.022 24.7788C15.377 24.4957 15.7556 24.2435 16.1534 24.0247C15.814 22.9957 15.6002 21.8115 15.5521 20.5469H13.1217C13.25 22.1845 13.9499 23.6616 15.022 24.7788ZM24.9834 15.2213C24.6284 15.5042 24.2498 15.7565 23.852 15.9753C24.1914 17.0043 24.4052 18.1885 24.4533 19.4531H26.8838C26.7554 17.8154 26.0555 16.3384 24.9834 15.2213ZM19.4559 13.3015C18.8005 13.5311 18.1969 14.163 17.7156 15.0656C17.6538 15.1818 17.5952 15.2996 17.54 15.4191C18.1547 15.6534 18.7999 15.7979 19.4558 15.8481L19.4559 13.3015ZM19.4559 16.9444C18.6661 16.8907 17.8888 16.7196 17.1495 16.4368C16.8689 17.329 16.6911 18.3536 16.6465 19.4531H19.4559V16.9444ZM16.7543 14.5529C16.9351 14.2139 17.1332 13.9041 17.3463 13.6273C16.8145 13.8493 16.3127 14.1371 15.8525 14.4841C16.0774 14.6537 16.3125 14.8095 16.5564 14.9505C16.6199 14.8138 16.6859 14.6812 16.7542 14.5529H16.7543ZM19.4559 20.5469H16.6465C16.6911 21.6464 16.8689 22.671 17.1495 23.5632C17.8888 23.2804 18.6661 23.1093 19.4559 23.0556V20.5469ZM19.4559 26.6986V24.152C18.8 24.2022 18.1548 24.3467 17.5401 24.581C17.5953 24.7005 17.6538 24.8183 17.7157 24.9345C18.197 25.837 18.8005 26.469 19.4559 26.6986H19.4559ZM13.1217 19.4531H15.5521C15.6002 18.1885 15.814 17.0043 16.1534 15.9753C15.7556 15.7565 15.3771 15.5042 15.022 15.2213C13.9499 16.3384 13.2499 17.8155 13.1217 19.4531Z"></path></g></svg>