<svg xmlns="http://www.w3.org/2000/svg" width="40" height="40" viewBox="0 0 40 40"><path d="M13.02 22.25L14.125 32.75C13.4115 33.3986 12.9658 34.2901 12.875 35.25H14.75C14.8157 34.1698 15.2372 33.1417 15.9487 32.3262L14.9594 22.9287L13.02 22.25ZM25.375 32.75C24.6615 33.3986 24.2158 34.2901 24.125 35.25H29.125L29.6719 26.5H25.375V32.75ZM14.8531 17.7862L16 15.875L17.875 13.375V8.375C17.875 6.5 14.125 4.625 12.875 4.625V7.75L12.0981 8.52688C11.395 9.23007 11 10.1837 11 11.1781V19H12.7094C13.1411 19 13.5655 18.8882 13.9411 18.6755C14.3168 18.4628 14.631 18.1564 14.8531 17.7862Z"></path><path d="M38.9125 25.325L37.5575 18.2125C37.7903 16.6108 37.8964 14.9933 37.875 13.375C37.8148 10.9076 36.8077 8.55784 35.0624 6.81257C33.3172 5.06731 30.9674 4.06025 28.5 4C23.5 4 22.25 6.5 20.375 5.875C19.2355 5.44472 18.0524 5.1398 16.8469 4.96563C18.1031 5.85563 19.125 7.04938 19.125 8.375V13.7913L17.0387 16.5737L15.925 18.4294C15.6044 18.9583 15.1584 19.4001 14.6264 19.7157C14.0944 20.0313 13.4929 20.2109 12.875 20.2387V20.875L16.1194 22.0106L17.25 32.75C16.5365 33.3986 16.0908 34.2901 16 35.25H21V25.875C21.4015 25.3108 21.7517 24.7117 22.0462 24.085L25.375 25.25H29.75L32.25 32.75C31.5365 33.3986 31.0908 34.2901 31 35.25H36.625L34.125 25.25C35.3223 24.068 36.245 22.6371 36.8275 21.0588L37.6844 25.5594C37.5485 25.6756 37.4394 25.8199 37.3644 25.9822C37.2894 26.1446 37.2504 26.3212 37.25 26.5C37.25 27.1906 38.5 29 38.5 29C38.5 29 39.75 27.1906 39.75 26.5C39.7495 26.2415 39.6687 25.9895 39.5186 25.779C39.3685 25.5684 39.1567 25.4098 38.9125 25.325ZM11.625 7.2325V5.09875C10.7269 5.6901 9.8895 6.36882 9.125 7.125C6.49625 7.125 4.51375 9.94375 3.54125 14.0812C2.55708 13.6298 1.68818 12.9609 1 12.125C1 14.3806 2.01812 15.6125 3.135 16.2925C2.95945 17.6043 2.87258 18.9265 2.875 20.25C2.875 27.4987 4.07812 32.125 7.875 32.125V29.625C4.75 27.125 6 17.125 6 17.125C7.12308 17.8074 8.45295 18.0663 9.75 17.855V11.1781C9.74835 10.5212 9.87697 9.87049 10.1284 9.26361C10.3799 8.65672 10.7492 8.10573 11.215 7.6425L11.625 7.2325ZM8.5 11.5H7.25V10.25H8.5V11.5Z"></path></svg>