<svg xmlns="http://www.w3.org/2000/svg" width="30" height="30" viewBox="0 0 30 30"><path d="M20.4896 4.14404C19.8384 3.81275 19.0419 4.07233 18.7107 4.72379L8.87091 24.0772C8.53971 24.7285 8.79929 25.5249 9.45066 25.8561C9.63601 25.9507 9.84112 26 10.0492 26C10.5313 26 10.996 25.7356 11.2296 25.2763L21.0694 5.92297C21.4006 5.27161 21.141 4.47523 20.4896 4.14404ZM13.4243 10.5172C13.4243 7.75042 11.1733 5.49943 8.40653 5.49943C5.63991 5.49943 3.38892 7.75042 3.38892 10.5172C3.38892 13.2839 5.63991 15.5349 8.40662 15.5349C11.1734 15.5349 13.4243 13.2839 13.4243 10.5172ZM8.40662 12.8889C7.09894 12.8889 6.03496 11.8249 6.03496 10.5172C6.03496 9.20945 7.09894 8.14548 8.40662 8.14548C9.71438 8.14548 10.7784 9.20937 10.7784 10.5172C10.7783 11.8249 9.71438 12.8889 8.40662 12.8889ZM21.5934 14.4653C18.8266 14.4653 16.5756 16.7163 16.5756 19.483C16.5756 22.2497 18.8265 24.5007 21.5934 24.5007C24.3601 24.5007 26.6111 22.2498 26.6111 19.483C26.6111 16.7162 24.3602 14.4653 21.5934 14.4653ZM21.5934 21.8546C20.2856 21.8546 19.2216 20.7906 19.2216 19.4829C19.2216 18.1752 20.2856 17.1113 21.5934 17.1113C22.901 17.1113 23.965 18.1752 23.965 19.4829C23.965 20.7906 22.9011 21.8546 21.5934 21.8546Z"></path></svg>