<svg xmlns="http://www.w3.org/2000/svg" width="30" height="30" viewBox="0 0 30 30"><path fill-rule="evenodd" clip-rule="evenodd" d="M15 0C21.4662 0 26.7081 5.24194 26.7081 11.7081C26.7081 18.1743 21.4662 23.4163 15 23.4163C8.53375 23.4163 3.29187 18.1743 3.29187 11.7081C3.29187 5.24194 8.53375 0 15 0ZM23.7899 20.886C22.1639 22.4438 20.1246 23.5736 17.8531 24.0947L19.8539 28.7401L22.0141 25.2591L26.0274 26.081L23.7899 20.886ZM12.758 24.2191C10.4637 23.8108 8.38243 22.7867 6.69112 21.324L3.97262 27.1631L8.00831 26.4579L10.0666 30L12.758 24.2191ZM15.1981 7.58544C15.1294 7.40431 14.8707 7.40431 14.8019 7.58544L13.7848 10.2644C13.7706 10.3033 13.7451 10.337 13.7117 10.3613C13.6782 10.3856 13.6383 10.3994 13.597 10.4009L10.7348 10.5404C10.5401 10.5498 10.4604 10.7951 10.6124 10.9172L12.8459 12.7124C12.8785 12.7379 12.9027 12.7726 12.9154 12.8119C12.9282 12.8512 12.929 12.8934 12.9177 12.9332L12.1659 15.6984C12.1147 15.8865 12.3233 16.0381 12.4864 15.9313L14.8839 14.3618C14.9182 14.3387 14.9586 14.3264 15 14.3264C15.0413 14.3264 15.0817 14.3387 15.116 14.3618L17.5136 15.9313C17.6767 16.0381 17.8853 15.8865 17.8341 15.6984L17.0823 12.9333C17.071 12.8935 17.0717 12.8513 17.0845 12.8119C17.0973 12.7726 17.1215 12.738 17.154 12.7125L19.3876 10.9172C19.5395 10.7951 19.4598 10.5499 19.2652 10.5404L16.403 10.4009C16.3617 10.3994 16.3218 10.3856 16.2883 10.3613C16.2549 10.337 16.2294 10.3033 16.2152 10.2645L15.1981 7.58544ZM16.1065 3.43C15.4404 2.93137 14.5596 2.93137 13.8935 3.43C12.1593 4.72812 12.5526 4.58494 10.3897 4.70525C9.55893 4.75144 8.88418 5.31763 8.69443 6.12775C8.20037 8.23687 8.40962 7.87438 6.83012 9.35688C6.22343 9.92631 6.0705 10.7937 6.44587 11.5363C7.42312 13.4695 7.35043 13.0574 7.09337 15.2083C6.99462 16.0344 7.43506 16.7972 8.19987 17.1248C10.1912 17.9776 9.87056 17.7085 11.0562 19.5215C11.5116 20.2179 12.3392 20.5191 13.1357 20.2784C15.2093 19.6517 14.7908 19.6517 16.8644 20.2784C17.6609 20.5191 18.4886 20.2178 18.9439 19.5215C20.1296 17.7086 19.809 17.9776 21.8002 17.1248C22.5651 16.7972 23.0055 16.0344 22.9067 15.2083C22.6497 13.0573 22.577 13.4695 23.5542 11.5363C23.9296 10.7937 23.7766 9.92631 23.17 9.35688C21.5904 7.87444 21.7997 8.23687 21.3057 6.12775C21.1159 5.31763 20.4412 4.7515 19.6104 4.70525C17.4474 4.58494 17.8407 4.72806 16.1065 3.43Z"></path></svg>