<svg xmlns="http://www.w3.org/2000/svg" width="55" height="55" viewBox="0 0 55 55"><path fill-rule="evenodd" clip-rule="evenodd" d="M39.4083 46.76L38.9726 46.8768C37.6348 41.6857 32.9461 38.0057 27.4996 38.0057C22.0537 38.0057 17.3651 41.6858 16.0272 46.8768L7.45727 44.5811C8.27508 41.4718 9.80159 38.668 11.8355 36.3293L15.6035 40.0967C16.1294 40.6213 17.0273 40.2447 17.0273 39.5076C17.0272 39.398 17.0055 39.2895 16.9635 39.1883C16.9215 39.0871 16.8599 38.9952 16.7824 38.9179L12.9791 35.1146C15.2579 32.8786 18.04 31.1699 21.1035 30.1621L22.4878 35.3292C22.6079 35.7782 23.0653 36.0345 23.5083 35.9176C23.614 35.8893 23.7131 35.8405 23.7999 35.7739C23.8867 35.7073 23.9595 35.6242 24.0142 35.5294C24.0688 35.4346 24.1042 35.33 24.1184 35.2215C24.1325 35.113 24.1252 35.0028 24.0967 34.8971L22.7067 29.7053C25.8568 28.9442 29.1428 28.9442 32.2929 29.7053L30.9015 34.8971C30.7605 35.4264 31.1594 35.9464 31.7073 35.9464C32.0762 35.9464 32.4125 35.7009 32.5117 35.3292L33.896 30.1621C36.9589 31.1699 39.7416 32.8786 42.0204 35.1146L38.2171 38.9179C37.6891 39.4459 38.073 40.3409 38.8055 40.3409C39.0269 40.341 39.2393 40.2531 39.396 40.0967L43.1633 36.3293C45.1979 38.668 46.7244 41.4718 47.5422 44.5811L39.4083 46.76ZM27.4996 53.3334C29.4174 53.3334 30.977 51.7738 30.977 49.8559C30.977 47.9389 29.4174 46.3779 27.4996 46.3779C25.5825 46.3779 24.0221 47.9389 24.0221 49.8559C24.0223 51.7739 25.5825 53.3334 27.4996 53.3334ZM18.2879 45.5003C18.0149 46.0813 17.7979 46.687 17.6397 47.3091L22.5084 48.6132C22.5572 48.4191 22.6169 48.2278 22.6872 48.0404L18.2879 45.5003ZM21.7012 41.4789C20.6929 42.1756 19.8191 43.049 19.1218 44.0568L23.5226 46.5982C23.738 46.3352 23.9789 46.0943 24.2418 45.8788L21.7012 41.4789ZM26.6664 44.7804V39.7076C25.4207 39.8088 24.2306 40.1326 23.1446 40.6457L25.6839 45.0436C26.0018 44.9233 26.3309 44.8351 26.6664 44.7804ZM31.4774 46.5983L35.8782 44.0569C35.181 43.0492 34.3074 42.1759 33.2996 41.479L30.7582 45.8791C31.0213 46.0943 31.2622 46.3352 31.4774 46.5983ZM32.3113 48.0403C32.3828 48.2274 32.443 48.4187 32.4915 48.6131L37.3602 47.3089C37.2022 46.6867 36.9849 46.081 36.7114 45.5002L32.3113 48.0403ZM31.8545 40.6457C30.7693 40.1326 29.5793 39.8088 28.3329 39.7076V44.7804C28.6686 44.8352 28.9979 44.9234 29.3161 45.0436L31.8545 40.6457ZM25.4593 26.3223C26.7931 26.7583 28.2066 26.7575 29.5405 26.3223V27.5623C28.183 27.4366 26.8168 27.4366 25.4593 27.5623V26.3223ZM23.4191 23.0125C23.3933 22.9272 23.3544 22.8464 23.3036 22.7731C22.469 21.5943 21.8715 20.2621 21.526 18.8095C21.3437 18.0768 21.3458 17.4048 21.5316 16.5609C21.6682 15.9359 21.906 15.0893 22.3874 14.9471C23.0312 14.7549 24.2645 15.6313 26.1948 14.8204C26.7205 14.5994 27.1582 14.2799 27.4996 13.8802C27.8416 14.2799 28.2794 14.5995 28.8051 14.8204C30.7355 15.6313 31.9685 14.7549 32.6125 14.9471C33.0938 15.0893 33.3317 15.9359 33.4683 16.5602C33.6541 17.4048 33.6562 18.0768 33.4726 18.8165C33.1284 20.2621 32.5301 21.5937 31.6962 22.7733C31.6449 22.8462 31.6059 22.927 31.5808 23.0126C30.4448 24.2857 29.007 24.9824 27.4996 24.9824C25.9928 24.9823 24.555 24.2856 23.4191 23.0125ZM20.9769 22.7056C21.0769 22.7013 21.1761 22.6943 21.2739 22.6844C20.6595 21.6076 20.2014 20.4421 19.9057 19.2035C19.6637 18.226 19.663 17.2991 19.9037 16.2032C20.0627 15.4797 20.4336 13.7865 21.9137 13.348C23.2577 12.9502 24.06 13.9095 25.5495 13.2832C26.2389 12.9933 26.569 12.4669 26.6664 11.7068V8.01345C24.9885 8.32242 23.4558 8.91995 22.1003 9.79542C19.2007 11.6702 15.8782 16.2653 17.183 20.0171C17.7761 21.7259 19.2668 22.7823 20.9769 22.7056ZM21.0868 6.67349H22.2747L21.6892 8.09372L21.0868 8.46817V6.67349ZM27.4996 2.88856C29.6319 2.88856 30.1624 4.57425 31.0839 7.0422C29.9867 6.63892 28.8227 6.36233 27.5974 6.21805H27.4024C26.1772 6.36233 25.0124 6.63892 23.9158 7.0422C24.8311 4.54945 25.3925 2.88856 27.4996 2.88856ZM33.9125 8.46804L33.3108 8.09359C33.0962 7.6368 32.9055 7.15399 32.7253 6.67337H33.9125V8.46804ZM37.817 20.0171C39.1218 16.2653 35.7993 11.6702 32.899 9.79542C31.5448 8.91995 30.0114 8.32242 28.3329 8.01345V11.7069C28.4377 12.4691 28.754 12.9908 29.4505 13.2834C30.9415 13.9096 31.7411 12.9502 33.0863 13.3481C34.5663 13.7866 34.9371 15.4798 35.0962 16.2033C35.3369 17.2992 35.3361 18.2267 35.0913 19.2099C34.7985 20.4437 34.3403 21.6091 33.7259 22.6846C35.5802 22.8707 37.1798 21.8526 37.817 20.0171ZM49.3577 44.9957C48.4948 41.1003 46.5764 37.4898 43.8569 34.5748C43.3058 33.9498 42.2651 33.0055 41.6069 32.4712C39.2478 30.5548 36.5235 29.15 33.626 28.3245C33.0616 28.1393 31.7902 27.8775 31.207 27.779V25.5234C31.7539 25.1666 32.2669 24.7281 32.7392 24.213C33.2043 24.3149 33.7026 24.3756 34.1882 24.3756C36.5185 24.3756 38.5904 22.8688 39.3913 20.5632C40.6539 16.9345 38.5672 12.5668 35.5796 9.78687V7.53137L43.4549 7.56375C43.9138 7.56375 44.286 7.1921 44.2882 6.73324C44.2903 6.2729 43.9181 5.89857 43.4577 5.8965L36.0758 5.86693L40.896 1.44793C41.2358 1.13689 41.2584 0.61046 40.9473 0.269729C40.637 -0.0688028 40.1091 -0.0920151 39.7705 0.219029L34.547 5.00686H32.0972C31.3089 3.05666 30.1977 1.22192 27.4993 1.22192C24.8004 1.22192 23.6904 3.05666 22.9022 5.00686H20.4523L15.2289 0.219029C14.8903 -0.0912821 14.3624 -0.0688028 14.0521 0.269729C13.7411 0.610338 13.7635 1.13677 14.1034 1.44793L18.8456 5.79448L11.5446 5.76419C11.0857 5.76419 10.7135 6.13583 10.7113 6.5947C10.7092 7.05491 11.0814 7.43009 11.541 7.43144L19.4199 7.46454V9.78699C16.4323 12.567 14.3457 16.9346 15.6082 20.5633C16.4402 22.9565 18.6189 24.4697 21.0512 24.3715C21.458 24.353 21.8625 24.3 22.2603 24.2131C22.7325 24.7283 23.2456 25.1668 23.7925 25.5235V27.7792C19.9776 28.4227 16.4272 30.0083 13.3926 32.4712C9.50044 35.6304 6.72719 40.0915 5.64183 44.9957C5.59533 45.2053 5.63161 45.4247 5.7431 45.6082C5.85458 45.7917 6.03265 45.9249 6.2401 45.9802L22.3757 50.3036C22.603 52.9316 24.8135 54.9999 27.4992 54.9999C30.1856 54.9999 32.3954 52.9314 32.6235 50.3036L48.759 45.9802C48.9665 45.9249 49.1446 45.7916 49.2561 45.6082C49.3676 45.4247 49.404 45.2053 49.3577 44.9957Z"></path></svg>