<svg xmlns="http://www.w3.org/2000/svg" width="12" height="12" viewBox="0 0 12 12"><path d="M11.544 3.68665L4.87161 10.3626C4.76529 10.4653 4.63053 10.5186 4.49589 10.5186C4.42605 10.5187 4.35687 10.505 4.29236 10.4782C4.22785 10.4514 4.16929 10.4122 4.12005 10.3626L0.457651 6.70021C0.248491 6.49453 0.248491 6.15781 0.457651 5.94865L1.75173 4.65097C1.95033 4.45249 2.30481 4.45249 2.50341 4.65097L4.49589 6.64346L9.49833 1.63741C9.54761 1.58803 9.60613 1.54883 9.67055 1.52206C9.73498 1.49529 9.80405 1.48148 9.87381 1.48141C10.0155 1.48141 10.1503 1.53817 10.2495 1.63741L11.5436 2.93521C11.7531 3.14437 11.7531 3.48109 11.544 3.68665Z"></path></svg>