<svg xmlns="http://www.w3.org/2000/svg" width="16" height="16" viewBox="0 0 16 16"><path fill-rule="evenodd" clip-rule="evenodd" d="M1.96372 3.07415L6.28622 7.39852C7.22897 8.33946 8.77003 8.34027 9.71356 7.39852L14.0361 3.07415C14.0463 3.06399 14.0541 3.0517 14.0591 3.03816C14.064 3.02462 14.0659 3.01016 14.0647 2.99581C14.0634 2.98145 14.059 2.96755 14.0517 2.95509C14.0445 2.94263 14.0346 2.93192 14.0227 2.92371C13.5819 2.61624 13.0455 2.43396 12.4677 2.43396H3.53216C2.95431 2.43396 2.41791 2.61627 1.97703 2.92371C1.96519 2.93192 1.95529 2.94263 1.94805 2.95509C1.9408 2.96755 1.93639 2.98145 1.93512 2.99581C1.93385 3.01016 1.93575 3.02462 1.9407 3.03816C1.94564 3.0517 1.9535 3.06399 1.96372 3.07415ZM0.808595 5.15749C0.808243 4.71811 0.915024 4.28527 1.11969 3.89646C1.12683 3.88275 1.13711 3.87093 1.14969 3.86194C1.16226 3.85295 1.17678 3.84706 1.19207 3.84474C1.20735 3.84242 1.22296 3.84373 1.23764 3.84858C1.25232 3.85343 1.26564 3.86168 1.27653 3.87265L5.54431 8.14043C6.89578 9.49387 9.10322 9.49465 10.4555 8.14043L14.7233 3.87265C14.7342 3.86168 14.7475 3.85343 14.7622 3.84858C14.7769 3.84373 14.7925 3.84242 14.8077 3.84474C14.823 3.84706 14.8376 3.85295 14.8501 3.86194C14.8627 3.87093 14.873 3.88275 14.8801 3.89646C15.0848 4.28527 15.1916 4.71811 15.1912 5.15749V10.843C15.1912 12.3459 13.9687 13.5666 12.4677 13.5666H3.53216C2.03116 13.5666 0.808595 12.3459 0.808595 10.843V5.15749Z"></path></svg>