<svg xmlns="http://www.w3.org/2000/svg" width="30" height="30" viewBox="0 0 30 30"><path fill-rule="evenodd" clip-rule="evenodd" d="M27.6977 12.3954C27.6977 11.446 27.32 10.5343 26.6493 9.86234C25.9771 9.19137 25.0661 8.81436 24.1163 8.81396H5.88376C4.93437 8.81396 4.02274 9.19164 3.35074 9.86234C2.67978 10.5346 2.30277 11.4455 2.30237 12.3954V25.4186C2.30237 26.368 2.68004 27.2796 3.35074 27.9516C4.02303 28.6226 4.93394 28.9996 5.88376 29H24.1163C25.0657 29 25.9773 28.6223 26.6493 27.9516C27.3203 27.2794 27.6973 26.3684 27.6977 25.4186V12.3954ZM25.7442 12.3954V25.4186C25.7435 25.8502 25.5718 26.2638 25.2667 26.569C24.9615 26.8741 24.5479 27.0458 24.1163 27.0465H5.88376C5.45223 27.0458 5.03856 26.8741 4.73342 26.569C4.42828 26.2638 4.25655 25.8502 4.25586 25.4186V12.3954C4.25655 11.9638 4.42828 11.5502 4.73342 11.245C5.03856 10.9399 5.45223 10.7681 5.88376 10.7675H24.1163C24.5479 10.7681 24.9615 10.9399 25.2667 11.245C25.5718 11.5502 25.7435 11.9638 25.7442 12.3954Z"></path><path fill-rule="evenodd" clip-rule="evenodd" d="M15.5497 5.9527L16.7986 3.27511L23.2907 6.30172L21.8555 9.37781C21.746 9.61268 21.7343 9.88143 21.823 10.1249C21.9116 10.3684 22.0934 10.5667 22.3283 10.6762C22.5631 10.7857 22.8319 10.7974 23.0754 10.7088C23.3189 10.6201 23.5172 10.4384 23.6267 10.2035L25.4734 6.24181C25.5826 6.00725 25.5944 5.73893 25.506 5.49573C25.4176 5.25254 25.2363 5.05436 25.0019 4.94469L16.7387 1.09111C16.504 0.98194 16.2355 0.970407 15.9923 1.05905C15.7491 1.14769 15.551 1.32926 15.4416 1.56386L13.7798 5.12832C13.7206 5.24516 13.6856 5.37271 13.6767 5.50338C13.6678 5.63405 13.6853 5.76517 13.7281 5.88894C13.7709 6.01271 13.8382 6.12661 13.9259 6.22386C14.0137 6.32111 14.1201 6.39972 14.2388 6.45502C14.3575 6.51031 14.4861 6.54117 14.617 6.54575C14.7479 6.55033 14.8784 6.52855 15.0007 6.48168C15.123 6.43482 15.2346 6.36384 15.3289 6.27296C15.4232 6.18209 15.4983 6.07317 15.5497 5.9527Z"></path><path fill-rule="evenodd" clip-rule="evenodd" d="M7.66406 10.2035L10.2869 4.57748L16.779 7.60409L15.9521 9.37785C15.8494 9.61152 15.8424 9.87607 15.9323 10.1149C16.0223 10.3537 16.2022 10.5478 16.4334 10.6557C16.6647 10.7636 16.929 10.7767 17.1698 10.6922C17.4106 10.6077 17.6088 10.4323 17.7219 10.2035L18.9617 7.54418C19.071 7.30962 19.0827 7.04129 18.9943 6.7981C18.9059 6.55491 18.7247 6.35673 18.4903 6.24706L10.227 2.39348C9.99231 2.28431 9.72386 2.27278 9.48064 2.36142C9.23742 2.45006 9.03934 2.63163 8.92992 2.86623L5.89289 9.37785C5.7834 9.61273 5.7717 9.88147 5.86035 10.125C5.94901 10.3685 6.13077 10.5668 6.36564 10.6763C6.60051 10.7858 6.86925 10.7975 7.11275 10.7088C7.35626 10.6202 7.55456 10.4384 7.66406 10.2035ZM27.6977 15C27.6977 14.7409 27.5948 14.4925 27.4116 14.3093C27.2285 14.1262 26.98 14.0232 26.721 14.0232H21.5104C20.5605 14.0232 19.6496 14.4006 18.978 15.0722C18.3063 15.7439 17.929 16.6548 17.929 17.6046V20.2093C17.929 21.1591 18.3063 22.0701 18.978 22.7417C19.6496 23.4134 20.5605 23.7907 21.5104 23.7907H26.721C26.98 23.7907 27.2285 23.6878 27.4116 23.5046C27.5948 23.3214 27.6977 23.073 27.6977 22.8139V15ZM25.7442 15.9767V21.8372H21.5104C20.6118 21.8372 19.8825 21.1079 19.8825 20.2093V17.6046C19.8825 16.706 20.6118 15.9767 21.5104 15.9767H25.7442Z"></path><path d="M22.1628 20.2094C22.8821 20.2094 23.4651 19.6263 23.4651 18.9071C23.4651 18.1878 22.8821 17.6047 22.1628 17.6047C21.4435 17.6047 20.8605 18.1878 20.8605 18.9071C20.8605 19.6263 21.4435 20.2094 22.1628 20.2094Z"></path></svg>