<svg xmlns="http://www.w3.org/2000/svg" width="22" height="22" viewBox="0 0 22 22"><path fill-rule="evenodd" clip-rule="evenodd" d="M2.69767 4.22694L8.64111 10.173C9.93739 11.4667 12.0564 11.4679 13.3537 10.173L19.2971 4.22694C19.3112 4.21297 19.322 4.19607 19.3288 4.17746C19.3356 4.15884 19.3382 4.13896 19.3365 4.11922C19.3347 4.09948 19.3287 4.08037 19.3187 4.06324C19.3087 4.0461 19.2951 4.03137 19.2788 4.02009C18.6726 3.59732 17.9351 3.34668 17.1406 3.34668H4.85427C4.05974 3.34668 3.32218 3.59736 2.71598 4.02009C2.69969 4.03137 2.68608 4.0461 2.67612 4.06324C2.66616 4.08037 2.6601 4.09948 2.65835 4.11922C2.6566 4.13896 2.65922 4.15884 2.66601 4.17746C2.67281 4.19607 2.68362 4.21297 2.69767 4.22694ZM1.10938 7.09154C1.10889 6.48738 1.25572 5.89223 1.53713 5.35762C1.54695 5.33877 1.56109 5.32251 1.57838 5.31015C1.59567 5.29779 1.61563 5.28969 1.63665 5.2865C1.65766 5.28331 1.67913 5.28512 1.69931 5.29179C1.71949 5.29846 1.73781 5.30979 1.75279 5.32488L7.62099 11.1931C9.47926 13.0541 12.5145 13.0551 14.3739 11.1931L20.2421 5.32488C20.257 5.30979 20.2754 5.29846 20.2955 5.29179C20.3157 5.28512 20.3372 5.28331 20.3582 5.2865C20.3792 5.28969 20.3992 5.29779 20.4165 5.31015C20.4338 5.32251 20.4479 5.33877 20.4577 5.35762C20.7391 5.89223 20.8859 6.48739 20.8855 7.09154V14.9091C20.8855 16.9756 19.2045 18.654 17.1406 18.654H4.85427C2.7904 18.654 1.10938 16.9756 1.10938 14.9091V7.09154Z"></path></svg>