<?xml version="1.0" encoding="UTF-8"?>
<svg xmlns="http://www.w3.org/2000/svg" width="36" height="36" viewBox="0 0 36 36">
  <path d="M4.92969 16.1674V11.9829C4.92969 11.8338 4.87042 11.6907 4.76494 11.5852C4.65945 11.4797 4.51637 11.4204 4.36719 11.4204C4.218 11.4204 4.07493 11.4797 3.96944 11.5852C3.86395 11.6907 3.80469 11.8338 3.80469 11.9829V16.1674C3.80469 21.033 6.19644 25.5774 10.2031 28.3224C10.3262 28.4068 10.4778 28.4388 10.6244 28.4114C10.7711 28.3841 10.9009 28.2995 10.9853 28.1765C11.0696 28.0534 11.1017 27.9018 11.0743 27.7552C11.0469 27.6085 10.9624 27.4787 10.8393 27.3943C9.01614 26.1441 7.5252 24.4683 6.49557 22.512C5.46594 20.5558 4.92866 18.378 4.93025 16.1674H4.92969ZM30.0746 18.9563H27.1102V15.9919C27.1102 15.6825 26.8571 15.4294 26.5477 15.4294H22.4752C22.1658 15.4294 21.9127 15.6825 21.9127 15.9919V18.9563H18.9427C18.6333 18.9563 18.3802 19.2094 18.3802 19.5188V23.5913C18.3802 23.9006 18.6333 24.1538 18.9427 24.1538H21.9127V27.1181C21.9127 27.4331 22.1658 27.6806 22.4752 27.6806H26.5477C26.8571 27.6806 27.1102 27.4331 27.1102 27.1181V24.1538H30.0746C30.3839 24.1538 30.6371 23.9006 30.6371 23.5913V19.5188C30.6371 19.2094 30.3839 18.9563 30.0746 18.9563Z"></path>
  <path d="M31.1507 13.6069L31.149 13.6058V4.02751C31.149 3.94385 31.1304 3.86123 31.0944 3.78568C31.0585 3.71014 31.0061 3.64356 30.9412 3.5908C30.8763 3.53805 30.8004 3.50044 30.7191 3.48072C30.6378 3.461 30.5531 3.45967 30.4712 3.47682C22.1963 5.20876 16.4745 1.99689 16.4177 1.9637C16.3322 1.91476 16.2355 1.88901 16.137 1.88901C16.0385 1.88901 15.9418 1.91476 15.8563 1.9637C15.7989 1.99632 10.0761 5.20932 1.80282 3.47626C1.72093 3.45911 1.63625 3.46044 1.55494 3.48016C1.47363 3.49988 1.39774 3.53748 1.33281 3.59024C1.26787 3.643 1.21553 3.70957 1.17958 3.78512C1.14363 3.86067 1.12498 3.94328 1.125 4.02695V16.1663C1.12295 18.9955 1.81065 21.7825 3.12856 24.286C4.44647 26.7895 6.35484 28.934 8.68838 30.5336C10.9913 32.1103 13.4415 33.3056 15.9711 34.0864C16.0793 34.1202 16.1954 34.12 16.3035 34.0858C18.2334 33.4879 20.1173 32.6424 21.9122 31.5833L21.915 31.5844C22.7475 31.8038 23.6194 31.9163 24.5138 31.9163C30.2288 31.9163 34.875 27.27 34.875 21.555C34.875 18.3656 33.4288 15.5081 31.1507 13.6069ZM16.1364 32.9597C13.7734 32.211 11.4823 31.0832 9.32344 29.6055C7.14076 28.1092 5.35578 26.1034 4.12314 23.7617C2.8905 21.42 2.24736 18.8131 2.24944 16.1668V4.71095C9.65194 6.05926 14.8826 3.72882 16.1364 3.08926C17.3903 3.72882 22.6226 6.0587 30.0234 4.71095V12.7907C28.3768 11.7428 26.4644 11.1888 24.5126 11.1943C18.7976 11.1943 14.1514 15.8406 14.1514 21.5556C14.1514 25.8407 16.7653 29.5239 20.4818 31.0995C19.0947 31.8545 17.6402 32.4773 16.1364 32.9597ZM24.5132 30.7913C23.6524 30.7917 22.7958 30.6714 21.9684 30.4341C18.108 29.3293 15.2764 25.7704 15.2764 21.5544C15.2764 16.4638 19.4164 12.3182 24.5126 12.3182C29.6089 12.3182 33.7489 16.4638 33.7489 21.5544C33.7489 26.6451 29.6033 30.7907 24.5126 30.7907L24.5132 30.7913Z"></path>
</svg>
