<svg xmlns="http://www.w3.org/2000/svg" width="50" height="50" viewBox="0 0 50 50"><path d="M42.8751 2.92188C42.8751 2.85156 42.8672 2.78125 42.8438 2.71875C42.8438 2.71094 42.8438 2.70313 42.836 2.69531C42.7974 2.55996 42.7216 2.43815 42.6172 2.34375C42.5636 2.29585 42.503 2.25635 42.4376 2.22656C42.3319 2.16987 42.2137 2.14034 42.0938 2.14063H30.7501C30.6797 2.14063 30.6094 2.14844 30.5469 2.17188C30.5391 2.17188 30.5313 2.17188 30.5235 2.17969C30.3881 2.21825 30.2663 2.29404 30.1719 2.39844C30.1251 2.45313 30.086 2.50781 30.0547 2.57813C30.0391 2.59375 30.0391 2.60156 30.0313 2.61719L25.0001 13.0391L19.9688 2.61719C19.961 2.60156 19.961 2.59375 19.9454 2.57813C19.9156 2.51267 19.8761 2.45209 19.8282 2.39844C19.8126 2.375 19.7891 2.35938 19.7657 2.33594C19.6536 2.23789 19.5149 2.17535 19.3672 2.15625C19.3282 2.14063 19.2891 2.14063 19.2501 2.14063H7.90631C7.78131 2.14063 7.66412 2.17188 7.56256 2.22656C7.42851 2.28754 7.31662 2.38852 7.24225 2.51563C7.211 2.57031 7.17975 2.63281 7.16412 2.69531C7.15631 2.70313 7.15631 2.71094 7.15631 2.71875C7.12505 2.82643 7.11794 2.93968 7.13549 3.05042C7.15305 3.16115 7.19484 3.26665 7.25787 3.35938L14.1797 17.7188C13.6839 18.2937 13.3806 19.0095 13.3126 19.7656L13.1719 21.2813C13.1016 22.0391 12.6251 22.7031 11.9219 23L10.5235 23.6016C10.0464 23.8057 9.61846 24.1094 9.26836 24.4925C8.91826 24.8755 8.65408 25.3289 8.49354 25.8224C8.33299 26.3158 8.2798 26.8379 8.33751 27.3536C8.39523 27.8693 8.56253 28.3667 8.82818 28.8125L9.60943 30.125C10.0001 30.7813 10.0001 31.5938 9.60943 32.25L8.82818 33.5625C8.56287 34.0088 8.39568 34.5065 8.33775 35.0224C8.27983 35.5383 8.33249 36.0607 8.49225 36.5547C8.65413 37.0474 8.91897 37.5001 9.26918 37.8826C9.61939 38.2651 10.047 38.5688 10.5235 38.7734L11.9219 39.375C12.6251 39.6719 13.1016 40.3359 13.1719 41.0938L13.3126 42.6094C13.4063 43.6563 13.9454 44.6094 14.7969 45.2266C15.6485 45.8438 16.7188 46.0625 17.7501 45.8359L19.2266 45.5C19.9766 45.3281 20.7501 45.5781 21.2579 46.1563L22.2579 47.2969C22.9532 48.0938 23.9532 48.5469 25.0001 48.5469C26.0469 48.5469 27.0469 48.0938 27.7422 47.2969L28.7422 46.1563C29.2501 45.5781 30.0235 45.3281 30.7735 45.5L32.2501 45.8359C33.2735 46.0703 34.3516 45.8438 35.2032 45.2266C36.0547 44.6094 36.5938 43.6563 36.6876 42.6094L36.8282 41.0938C36.8985 40.3359 37.3751 39.6719 38.0782 39.375L39.4766 38.7734C39.9532 38.5688 40.3807 38.2651 40.7309 37.8826C41.0811 37.5001 41.346 37.0474 41.5079 36.5547C41.8282 35.5547 41.711 34.4609 41.1719 33.5625L40.3907 32.25C40.0001 31.5938 40.0001 30.7813 40.3907 30.125L41.1719 28.8125C41.4376 28.3667 41.6049 27.8693 41.6626 27.3536C41.7203 26.8379 41.6671 26.3158 41.5066 25.8224C41.346 25.3289 41.0819 24.8755 40.7318 24.4925C40.3816 24.1094 39.9537 23.8057 39.4766 23.6016L38.0782 23C37.7339 22.8532 37.4359 22.6159 37.2158 22.3133C36.9957 22.0106 36.8617 21.654 36.8282 21.2813L36.6876 19.7656C36.6195 19.0095 36.3162 18.2937 35.8204 17.7188L42.7422 3.35938C42.8282 3.23438 42.8751 3.08594 42.8751 2.92188ZM37.461 24.4375L38.8594 25.0391C39.4141 25.2734 39.836 25.7344 40.0235 26.3047C40.2032 26.875 40.1329 27.5 39.8282 28.0156L39.0469 29.3203C38.7132 29.886 38.5371 30.5307 38.5371 31.1875C38.5371 31.8443 38.7132 32.489 39.0469 33.0547L39.8282 34.3594C40.1329 34.875 40.2032 35.5 40.0235 36.0703C39.836 36.6406 39.4141 37.1016 38.8594 37.3359L37.461 37.9375C36.8587 38.1968 36.3376 38.6138 35.9526 39.1445C35.5676 39.6753 35.333 40.3001 35.2735 40.9531L35.1329 42.4688C35.0782 43.0703 34.7657 43.6094 34.2813 43.9609C33.7969 44.3203 33.1876 44.4453 32.6016 44.3125L31.1172 43.9766C29.8047 43.6797 28.4532 44.1172 27.5704 45.125L26.5626 46.2734C25.7735 47.1719 24.2266 47.1719 23.4376 46.2734L22.4297 45.125C22.0885 44.7354 21.6681 44.423 21.1966 44.2088C20.7251 43.9946 20.2133 43.8835 19.6954 43.8828C19.4219 43.8828 19.1563 43.9141 18.8829 43.9766L17.3985 44.3125C16.8126 44.4453 16.2032 44.3203 15.7188 43.9609C15.4784 43.7876 15.278 43.5646 15.1311 43.3072C14.9842 43.0498 14.8942 42.7639 14.8672 42.4688L14.7266 40.9531C14.6671 40.3001 14.4325 39.6753 14.0475 39.1445C13.6625 38.6138 13.1414 38.1968 12.5391 37.9375L11.1407 37.3359C10.586 37.1016 10.1641 36.6406 9.97662 36.0703C9.79693 35.5 9.86725 34.875 10.1719 34.3594L10.9532 33.0547C11.6329 31.9063 11.6329 30.4766 10.9532 29.3203L10.1719 28.0156C9.86725 27.5 9.79693 26.875 9.97662 26.3047C10.1641 25.7344 10.586 25.2734 11.1407 25.0391L12.5391 24.4375C13.142 24.1792 13.6637 23.7624 14.0489 23.2314C14.434 22.7005 14.6682 22.0752 14.7266 21.4219L14.8672 19.9063C14.9219 19.3047 15.2344 18.7656 15.7188 18.4141C16.2032 18.0625 16.8126 17.9375 17.3985 18.0625L18.8829 18.3984C20.1876 18.6953 21.5469 18.2578 22.4297 17.25L23.4376 16.1016C24.2266 15.2031 25.7735 15.2031 26.5626 16.1016L27.5704 17.25C28.0014 17.7457 28.5594 18.1145 29.1843 18.3169C29.8092 18.5192 30.4775 18.5474 31.1172 18.3984L32.6016 18.0625C33.1876 17.9375 33.7969 18.0625 34.2813 18.4141C34.7657 18.7656 35.0782 19.3047 35.1329 19.9063L35.2735 21.4219C35.3319 22.0752 35.5661 22.7005 35.9513 23.2314C36.3364 23.7624 36.8581 24.1792 37.461 24.4375Z"></path><path d="M25 19.8594C18.75 19.8594 13.6719 24.9375 13.6719 31.1875C13.6719 37.4375 18.75 42.5156 25 42.5156C31.25 42.5156 36.3281 37.4375 36.3281 31.1875C36.3281 24.9375 31.25 19.8594 25 19.8594ZM25 40.9531C19.6172 40.9531 15.2344 36.5703 15.2344 31.1875C15.2344 25.8047 19.6172 21.4219 25 21.4219C30.3828 21.4219 34.7656 25.8047 34.7656 31.1875C34.7656 36.5703 30.3828 40.9531 25 40.9531Z"></path><path d="M29.0899 27.8086L23.9884 32.911L20.9103 29.8328C20.7638 29.6864 20.5651 29.6041 20.3579 29.6041C20.1507 29.6041 19.9521 29.6864 19.8056 29.8328C19.6591 29.9793 19.5768 30.178 19.5768 30.3852C19.5768 30.5924 19.6591 30.791 19.8056 30.9375L23.436 34.568C23.5825 34.7145 23.7812 34.7967 23.9884 34.7967C24.1955 34.7967 24.3942 34.7145 24.5407 34.568L30.1946 28.9133C30.2672 28.8408 30.3247 28.7547 30.364 28.6599C30.4032 28.5651 30.4234 28.4635 30.4234 28.361C30.4234 28.2584 30.4032 28.1568 30.364 28.062C30.3247 27.9673 30.2672 27.8812 30.1946 27.8086C30.1221 27.7361 30.036 27.6786 29.9412 27.6393C29.8464 27.6 29.7449 27.5798 29.6423 27.5798C29.5397 27.5798 29.4381 27.6 29.3434 27.6393C29.2486 27.6786 29.1625 27.7361 29.0899 27.8086Z"></path></svg>