<svg xmlns="http://www.w3.org/2000/svg" width="50" height="50" viewBox="0 0 50 50"><path fill-rule="evenodd" clip-rule="evenodd" d="M28.278 44.2914C28.1869 44.6838 27.9655 45.0339 27.65 45.2845C27.3345 45.5351 26.9435 45.6715 26.5406 45.6715H23.4595C22.9864 45.6715 22.5327 45.4835 22.1982 45.149C21.8637 44.8145 21.6758 44.3608 21.6758 43.8877V43.3428C21.6758 42.8697 21.8638 42.4161 22.1983 42.0816C22.5328 41.7471 22.9864 41.5591 23.4595 41.559H26.5406C26.9435 41.559 27.3345 41.6954 27.65 41.946C27.9655 42.1966 28.1869 42.5467 28.278 42.9391H33.6433C34.5906 42.9391 35.5287 42.7525 36.4039 42.39C37.2791 42.0275 38.0744 41.4961 38.7443 40.8262C39.4142 40.1564 39.9455 39.3611 40.308 38.4859C40.6706 37.6106 40.8572 36.6726 40.8571 35.7252V33.9105C41.2654 34.0648 41.6982 34.1439 42.1347 34.1438H42.2094V35.7252C42.2093 37.9971 41.3068 40.1759 39.7004 41.7823C38.0939 43.3888 35.9151 44.2913 33.6433 44.2914H28.278ZM7.86299 17.4125C8.22231 13.8269 9.90091 10.5027 12.573 8.08498C15.2451 5.66726 18.7202 4.32849 22.3237 4.32849H27.6764C31.2799 4.32843 34.755 5.66718 37.4271 8.0849C40.0992 10.5026 41.7778 13.8269 42.1371 17.4125H42.1347C41.6742 17.4125 41.2228 17.5004 40.803 17.6668C40.5048 14.3914 38.9929 11.3458 36.5641 9.12813C34.1354 6.91042 30.9653 5.68081 27.6764 5.68076H22.3237C19.0348 5.68079 15.8647 6.91039 13.4359 9.12811C11.0072 11.3458 9.49526 14.3914 9.1971 17.6668C8.77322 17.4988 8.32137 17.4125 7.8654 17.4125H7.86299ZM44.1304 18.7648C46.3679 18.7648 48.1818 20.5786 48.1818 22.8163V28.7401C48.1818 30.9777 46.3679 32.7916 44.1304 32.7916H42.1347C41.8376 32.7916 41.5435 32.7331 41.269 32.6195C40.9946 32.5058 40.7453 32.3392 40.5352 32.1291C40.3252 31.9191 40.1586 31.6698 40.0449 31.3953C39.9313 31.1209 39.8728 30.8267 39.8728 30.5297V21.0266C39.8728 20.7296 39.9313 20.4354 40.0449 20.161C40.1586 19.8866 40.3252 19.6372 40.5352 19.4272C40.7453 19.2171 40.9946 19.0505 41.269 18.9369C41.5435 18.8232 41.8376 18.7647 42.1347 18.7648H44.1304ZM5.86964 18.7648H7.8654C8.16244 18.7647 8.45658 18.8232 8.73101 18.9369C9.00544 19.0505 9.2548 19.2171 9.46484 19.4272C9.67488 19.6372 9.84148 19.8866 9.95514 20.161C10.0688 20.4354 10.1273 20.7296 10.1273 21.0266V30.5297C10.1273 30.8267 10.0688 31.1209 9.95514 31.3953C9.84148 31.6698 9.67488 31.9191 9.46484 32.1291C9.2548 32.3392 9.00544 32.5058 8.73101 32.6195C8.45658 32.7331 8.16244 32.7916 7.8654 32.7916H5.86964C3.63212 32.7916 1.81824 30.9777 1.81824 28.7401V22.8163C1.81824 20.5786 3.63212 18.7648 5.86964 18.7648ZM16.4136 31.9192C14.1685 30.0718 12.7764 27.5063 12.7764 24.672C12.7764 19.0499 18.2536 14.4856 25 14.4856C31.7464 14.4856 37.2237 19.0499 37.2237 24.672C37.2237 30.2939 31.7464 34.8583 25 34.8583C22.8763 34.8583 20.8782 34.406 19.1373 33.6107L15.196 36.0165C15.1051 36.0719 14.9985 36.0958 14.8927 36.0845C14.7869 36.0731 14.6878 36.0271 14.6109 35.9536C14.5339 35.8802 14.4833 35.7833 14.467 35.6782C14.4507 35.573 14.4696 35.4654 14.5208 35.3721L16.4136 31.9192ZM25.0006 31.8849C25.4724 31.8849 25.8575 31.4999 25.8575 31.028C25.8575 30.5551 25.4724 30.1701 25.0006 30.1701C24.5277 30.1701 24.1426 30.5551 24.1426 31.028C24.1426 31.4999 24.5277 31.8849 25.0006 31.8849ZM22.2478 22.1438C22.2478 21.3835 22.5558 20.6958 23.0536 20.1969C23.3091 19.941 23.6126 19.738 23.9467 19.5997C24.2808 19.4614 24.639 19.3905 25.0006 19.3911C25.7598 19.3911 26.4486 19.6991 26.9464 20.1969C27.4443 20.6958 27.7523 21.3835 27.7523 22.1438C27.7523 23.7708 26.813 24.3109 26.0114 24.773C25.1286 25.2806 24.3574 25.7242 24.3574 26.9205V28.2427C24.3574 28.3271 24.3741 28.4107 24.4064 28.4887C24.4388 28.5666 24.4862 28.6375 24.5459 28.6971C24.6056 28.7567 24.6765 28.804 24.7546 28.8362C24.8326 28.8684 24.9162 28.8849 25.0006 28.8848C25.0849 28.8848 25.1684 28.8682 25.2463 28.8359C25.3242 28.8037 25.395 28.7564 25.4546 28.6967C25.5142 28.6371 25.5615 28.5663 25.5938 28.4884C25.6261 28.4105 25.6427 28.327 25.6426 28.2427V26.9205C25.6426 26.4606 26.1112 26.1916 26.6482 25.8825C27.7501 25.2491 29.0375 24.5073 29.0375 22.1438C29.0384 21.6135 28.9345 21.0883 28.7316 20.5983C28.5287 20.1084 28.2309 19.6634 27.8553 19.2891C27.1243 18.5581 26.1145 18.1057 25.0006 18.1057C23.8856 18.1057 22.8758 18.5581 22.1447 19.2891C21.7692 19.6634 21.4714 20.1084 21.2685 20.5983C21.0656 21.0883 20.9616 21.6135 20.9625 22.1438C20.9625 22.4985 21.2499 22.787 21.6046 22.787C21.7752 22.787 21.9387 22.7192 22.0594 22.5986C22.18 22.478 22.2477 22.3144 22.2478 22.1438Z"></path></svg>