<svg xmlns="http://www.w3.org/2000/svg" width="50" height="50" viewBox="0 0 50 50"><path fill-rule="evenodd" clip-rule="evenodd" d="M35.4081 30.5529L32.5878 38.1096C32.1995 39.1501 31.5928 40.107 30.8484 39.3186C30.6269 39.084 30.4387 38.7694 30.4738 38.4237L31.0957 32.291C31.0973 32.2737 31.1035 32.2571 31.1138 32.2431C31.1241 32.229 31.138 32.2181 31.154 32.2114L35.2782 30.4294C35.2957 30.4216 35.3152 30.4192 35.334 30.4226C35.3529 30.4259 35.3703 30.4348 35.384 30.4482C35.4129 30.4757 35.422 30.5155 35.4081 30.5529ZM30.06 46.0639V48.1646C30.0606 48.2148 30.0808 48.2628 30.1163 48.2983C30.1518 48.3338 30.1997 48.3539 30.2499 48.3545H32.5924C32.6426 48.3539 32.6906 48.3337 32.7261 48.2982C32.7615 48.2627 32.7817 48.2148 32.7823 48.1646V46.0639C32.7823 46.0381 32.772 46.0133 32.7538 45.9951C32.7355 45.9768 32.7108 45.9665 32.6849 45.9665H30.1575C30.1317 45.9665 30.1069 45.9768 30.0887 45.995C30.0704 46.0133 30.0601 46.0381 30.06 46.0639ZM17.2166 46.0639V48.1646C17.2166 48.2678 17.3034 48.3545 17.4065 48.3545H19.749C19.7992 48.3539 19.8472 48.3337 19.8827 48.2982C19.9181 48.2627 19.9383 48.2148 19.9389 48.1646V46.0639C19.9389 46.0381 19.9286 46.0133 19.9104 45.9951C19.8921 45.9768 19.8674 45.9665 19.8415 45.9665H17.3141C17.2883 45.9665 17.2635 45.9768 17.2453 45.995C17.227 46.0133 17.2167 46.0381 17.2166 46.0639ZM48.8359 14.7499C47.5238 11.5883 40.2918 12.6608 36.7021 13.3925C36.6826 13.3963 36.6647 13.4061 36.651 13.4205C36.6372 13.4349 36.6283 13.4532 36.6254 13.4729C36.6222 13.4925 36.6251 13.5127 36.6338 13.5307C36.6425 13.5486 36.6566 13.5633 36.674 13.5729C37.0663 13.7934 37.4137 14.0856 37.6981 14.4344C37.709 14.4481 37.7235 14.4586 37.74 14.4646C37.7565 14.4707 37.7743 14.472 37.7915 14.4686C40.0989 14.0371 42.1252 13.8335 43.7602 13.8734C48.2883 13.9839 48.9629 15.729 45.8351 19.0013C44.9797 19.8962 43.8717 20.8496 42.5489 21.833C42.535 21.8431 42.524 21.8567 42.5172 21.8726C42.5104 21.8884 42.5081 21.9057 42.5103 21.9228C42.5122 21.9399 42.5186 21.9562 42.5289 21.97C42.5393 21.9837 42.5532 21.9944 42.5691 22.0009L43.7055 22.4811C43.7387 22.4951 43.7742 22.4906 43.8028 22.4686C44.9673 21.573 45.9589 20.7007 46.7507 19.8723C48.616 17.9211 49.4126 16.1394 48.8359 14.7499ZM41.4401 22.6252C40.9926 22.4911 40.5399 22.4305 40.0874 22.4435C39.0336 22.4737 38.3558 22.8574 37.4704 23.3032C37.4557 23.3109 37.4391 23.3146 37.4224 23.3139C37.4058 23.3132 37.3896 23.3081 37.3755 23.2991C37.3612 23.2905 37.3494 23.2784 37.3413 23.2638C37.3331 23.2492 37.329 23.2328 37.3292 23.2161V17.5544C37.3292 15.5964 35.7296 13.9968 33.7716 13.9968H16.2273C14.2694 13.9968 12.6698 15.5964 12.6698 17.5544V34.6487C12.67 34.6713 12.6622 34.6933 12.6478 34.7108C12.6334 34.7283 12.6133 34.7402 12.591 34.7444C11.0592 35.0427 9.64314 35.2439 8.37354 35.3433C5.03684 35.6046 2.80884 35.2015 2.33104 34.0503C1.93464 33.0953 2.78384 31.6218 4.57124 29.8719C6.20244 28.2748 8.58484 26.5146 11.5176 24.7434C11.5322 24.7349 11.5442 24.7227 11.5525 24.7081C11.5607 24.6934 11.565 24.6768 11.5647 24.66V23.4161C11.5647 23.3801 11.5468 23.3493 11.5156 23.3315C11.4844 23.3137 11.4487 23.314 11.4177 23.3323C8.14634 25.2657 5.48614 27.2081 3.68534 28.9712C1.51254 31.0986 0.545136 33.0465 1.16304 34.5354C1.87774 36.2575 4.56144 36.9113 8.46754 36.6054C11.469 36.3703 15.6484 35.3106 19.5502 34.0986C19.6291 34.0741 19.7096 34.0543 19.7866 34.0249C21.0329 33.5477 18.4393 30.2474 17.7892 29.195C17.7721 29.1672 17.7697 29.1358 17.7825 29.1058C17.7953 29.0758 17.8195 29.0557 17.8514 29.0487C17.884 29.0416 17.9188 29.0446 17.9598 29.066L21.78 31.0642C22.629 31.5082 23.503 31.7918 24.3572 31.3598L38.8189 24.0449C39.6673 23.6158 40.5572 23.5906 41.4434 23.9691L43.7322 24.9468C43.9333 25.0327 43.9321 25.3141 43.7331 25.3971C33.696 29.734 23.5618 35.072 12.7489 37.1349C12.7266 37.139 12.7065 37.1508 12.692 37.1683C12.6775 37.1858 12.6696 37.2078 12.6697 37.2305V41.4733C12.6697 43.4312 14.2693 45.0309 16.2272 45.0309H33.7714C35.7293 45.0309 37.329 43.4313 37.329 41.4733V29.6073C37.329 29.5676 37.3513 29.5336 37.3878 29.5179L44.2329 26.5603C45.448 26.0366 45.4454 24.3043 44.227 23.7839L42.8363 23.1899L42.8346 23.1892L41.4485 22.6284C41.4458 22.6272 41.443 22.6261 41.4401 22.6252ZM29.0716 12.8012V6.40939C29.0716 6.38249 29.0812 6.35939 29.1003 6.34039C29.1093 6.33118 29.1201 6.3239 29.1319 6.31902C29.1438 6.31413 29.1566 6.31174 29.1694 6.31199C29.6222 6.31349 29.9994 6.31229 30.3842 5.92749C30.5061 5.80611 30.6027 5.66187 30.6686 5.50305C30.7346 5.34423 30.7685 5.17395 30.7684 5.00199V2.95519C30.7684 2.23349 30.1803 1.64539 29.4587 1.64539H20.5404C19.8187 1.64539 19.2306 2.23349 19.2306 2.95519V5.00199C19.2306 5.72359 19.8187 6.31169 20.5404 6.31169H20.83C20.8837 6.31169 20.9274 6.35549 20.9274 6.40909V12.8011C20.9274 12.8548 20.9712 12.8985 21.0248 12.8985H22.0969C22.1228 12.8984 22.1475 12.8882 22.1658 12.8699C22.184 12.8516 22.1943 12.8269 22.1943 12.8011V6.40909C22.1943 6.35539 22.2381 6.31169 22.2917 6.31169H27.707C27.7607 6.31169 27.8044 6.35549 27.8044 6.40909V12.8011C27.8044 12.8548 27.8482 12.8985 27.9018 12.8985H28.9739C28.9867 12.8985 28.9994 12.896 29.0113 12.8911C29.0231 12.8863 29.0339 12.8791 29.0429 12.8701C29.052 12.861 29.0592 12.8503 29.0641 12.8385C29.0691 12.8267 29.0716 12.814 29.0716 12.8012ZM22.2741 24.8024C22.2728 24.8014 22.2714 24.8005 22.2699 24.7996C21.3689 24.227 21.7537 23.5603 22.8151 23.8575L22.8187 23.8584L31.6885 25.9845C31.7291 25.9942 31.7579 26.0268 31.7626 26.0683C31.7673 26.1098 31.7466 26.148 31.7091 26.1665L27.3399 28.3379C27.3242 28.346 27.3066 28.3495 27.2889 28.3481C27.2713 28.3468 27.2544 28.3405 27.2401 28.3301L22.2741 24.8024Z"></path></svg>