<svg xmlns="http://www.w3.org/2000/svg" width="50" height="50" viewBox="0 0 50 50"><path d="M19.7667 47.4283L10.0477 48.1759L6.30969 19.5872L14.1746 10.1075L14.3615 10.0851L9.13566 20.9479L19.7667 47.4283Z"></path><path d="M32.9397 12.141L21.5909 7.80481L20.1854 8.36552L18.9743 8.85147L16.9557 9.65889C17.691 10.8172 18.6189 11.8412 19.6995 12.6867C19.8503 12.5641 20.0192 12.4657 20.2004 12.3951C20.7519 12.1886 21.3625 12.2068 21.9007 12.4459C22.439 12.685 22.8619 13.1258 23.0784 13.6735C23.2949 14.2212 23.2878 14.832 23.0586 15.3745C22.8293 15.917 22.3963 16.3478 21.8526 16.5743C21.393 16.7598 20.8844 16.7855 20.4085 16.6472C19.9326 16.5089 19.517 16.2147 19.2285 15.8117C17.7856 15.2734 16.2829 13.7857 15.0418 12.126L10.7655 21.0076L21.5162 48.1758L43.6903 39.3092L32.9397 12.141ZM35.7432 36.842C35.5979 36.897 35.4412 36.915 35.2872 36.8944L29.5679 36.0795L25.9719 40.6175C25.875 40.7422 25.7457 40.8379 25.5981 40.8941C25.4649 40.947 25.321 40.9675 25.1783 40.9537C25.0356 40.9399 24.8983 40.8923 24.7777 40.8148C24.6571 40.7374 24.5567 40.6322 24.4849 40.5082C24.413 40.3842 24.3718 40.2448 24.3646 40.1016L24.0356 34.2628L18.6005 33.4853C18.4432 33.4627 18.2946 33.3989 18.1699 33.3005C18.0452 33.202 17.9487 33.0723 17.8902 32.9246L17.8304 32.775C17.7473 32.5682 17.7433 32.338 17.8192 32.1284C17.895 31.9188 18.0454 31.7444 18.2416 31.6387L23.4899 28.8276L23.3777 23.0561C23.3726 22.8718 23.4244 22.6903 23.526 22.5365C23.6277 22.3826 23.7743 22.2639 23.9459 22.1963L24.1702 22.1066C24.3406 22.0366 24.5285 22.0213 24.708 22.0628C24.8875 22.1043 25.0497 22.2006 25.172 22.3384L29.0371 26.6147L34.7713 25.0298C34.9855 24.9725 35.2133 24.9956 35.4117 25.0948C35.61 25.194 35.7652 25.3623 35.8479 25.5681L35.9077 25.7176C35.9663 25.867 35.9848 26.0291 35.9612 26.1879C35.9376 26.3466 35.8727 26.4964 35.7731 26.6222L32.349 30.9359L36.1021 35.4141C36.1942 35.5243 36.2589 35.6547 36.291 35.7947C36.323 35.9346 36.3215 36.0802 36.2865 36.2195C36.2515 36.3588 36.184 36.4878 36.0896 36.596C35.9952 36.7042 35.8765 36.7885 35.7432 36.842Z"></path><path d="M20.3281 15.281C18.5802 15.281 16.2364 12.7982 14.5835 10.1307C12.8879 7.39218 12.0192 4.6634 12.3698 3.17789C12.4135 2.94854 12.5033 2.73044 12.6337 2.53679C12.7642 2.34314 12.9325 2.17796 13.1286 2.05124C14.8937 0.967204 17.7795 3.84551 19.7166 6.96828C19.8169 7.1367 19.8471 7.33779 19.8006 7.52825C19.7541 7.7187 19.6347 7.88326 19.468 7.9865C19.3013 8.08973 19.1008 8.12337 18.9096 8.08016C18.7183 8.03696 18.5517 7.92037 18.4456 7.75552C16.3202 4.32847 14.2411 3.1293 13.9114 3.32891C13.8648 3.38536 13.835 3.45374 13.8254 3.52628C13.6093 4.44061 14.2373 6.73204 15.8559 9.34569C17.9799 12.7765 20.0627 13.9809 20.3887 13.776C20.4721 13.7176 20.5667 13.6769 20.6664 13.6563C20.7662 13.6357 20.8691 13.6357 20.9689 13.6564C21.0687 13.677 21.1631 13.7178 21.2466 13.7763C21.33 13.8348 21.4006 13.9097 21.454 13.9964C21.5074 14.0832 21.5426 14.1799 21.5572 14.2807C21.5719 14.3815 21.5658 14.4843 21.5394 14.5827C21.5129 14.681 21.4666 14.773 21.4034 14.8528C21.3401 14.9327 21.2612 14.9987 21.1714 15.047C20.9179 15.2027 20.6256 15.2838 20.3281 15.281Z"></path></svg>