<svg xmlns="http://www.w3.org/2000/svg" width="30" height="30" viewBox="0 0 30 30"><g><path d="M27.2713 21.3914L13.5213 10.1414C13.4297 10.0664 13.3187 10.0188 13.2012 10.0044C13.0836 9.98999 12.9644 10.0092 12.8574 10.0599C12.7504 10.1106 12.66 10.1906 12.5968 10.2907C12.5335 10.3908 12.4999 10.5068 12.5 10.6252V29.3752C12.5001 29.5093 12.5433 29.6398 12.6233 29.7474C12.7033 29.8551 12.8157 29.9341 12.9441 29.9729C13.0724 30.0117 13.2099 30.0083 13.3361 29.963C13.4623 29.9177 13.5706 29.833 13.645 29.7214L18.46 22.5002H26.875C27.004 22.5003 27.1298 22.4605 27.2353 22.3862C27.3407 22.312 27.4207 22.207 27.4641 22.0855C27.5075 21.9641 27.5122 21.8322 27.4777 21.7079C27.4432 21.5836 27.3711 21.4731 27.2713 21.3914Z"></path><path d="M9.75999 19.3751C4.93499 17.5201 2.51999 12.0851 4.37499 7.26008C6.22999 2.43508 11.665 0.020083 16.49 1.87508C21.315 3.73008 23.73 9.16633 21.875 13.9901C21.8203 14.1437 21.8278 14.3126 21.8958 14.4607C21.9639 14.6089 22.0871 14.7246 22.2393 14.7831C22.3915 14.8417 22.5605 14.8384 22.7103 14.7741C22.8601 14.7098 22.9789 14.5895 23.0412 14.4388C25.1437 8.97008 22.4062 2.81008 16.9387 0.707583C11.4712 -1.39492 5.31124 1.34258 3.20874 6.81008C1.10624 12.2788 3.84374 18.4388 9.31124 20.5413C9.46607 20.6008 9.63819 20.5965 9.78981 20.5292C9.94143 20.462 10.0602 20.3373 10.12 20.1826C10.1787 20.0277 10.1738 19.8559 10.1064 19.7047C10.0389 19.5534 9.91442 19.4349 9.75999 19.3751Z"></path></g></svg>