<?xml version="1.0" encoding="UTF-8"?>
<svg xmlns="http://www.w3.org/2000/svg" width="36" height="36" viewBox="0 0 36 36">
  <path d="M21.5492 27.1493C21.4636 27.1762 21.3788 27.2059 21.2951 27.2382C21.2451 27.256 21.1991 27.2836 21.1599 27.3195C21.1208 27.3553 21.0892 27.3987 21.0671 27.4469C21.0449 27.4952 21.0327 27.5474 21.0311 27.6005C21.0295 27.6536 21.0386 27.7064 21.0578 27.7559C21.077 27.8054 21.1059 27.8506 21.1429 27.8887C21.1798 27.9268 21.224 27.9572 21.2729 27.9779C21.3218 27.9986 21.3743 28.0094 21.4274 28.0094C21.4805 28.0095 21.5331 27.999 21.582 27.9784C21.6509 27.9519 21.7197 27.9281 21.7901 27.9058C21.8905 27.8739 21.9741 27.8034 22.0225 27.7098C22.0709 27.6162 22.0801 27.5072 22.0482 27.4069C22.0162 27.3065 21.9457 27.2229 21.8522 27.1745C21.7586 27.1261 21.6496 27.1168 21.5492 27.1488V27.1493ZM6.16822 27.1493C6.08241 27.1762 5.99749 27.2059 5.91357 27.2382C5.86354 27.256 5.81758 27.2836 5.77841 27.3195C5.73924 27.3553 5.70766 27.3987 5.68553 27.4469C5.66341 27.4952 5.65119 27.5474 5.6496 27.6005C5.64801 27.6536 5.65707 27.7064 5.67627 27.7559C5.69546 27.8054 5.72439 27.8506 5.76134 27.8887C5.79829 27.9268 5.84251 27.9572 5.89139 27.9779C5.94027 27.9986 5.99281 28.0094 6.04591 28.0094C6.099 28.0095 6.15157 27.999 6.20051 27.9784C6.26934 27.9519 6.33816 27.9281 6.40857 27.9058C6.50896 27.874 6.59258 27.8035 6.64103 27.71C6.68948 27.6165 6.6988 27.5075 6.66692 27.4071C6.63505 27.3067 6.5646 27.2231 6.47108 27.1747C6.37755 27.1262 6.26861 27.1169 6.16822 27.1488V27.1493ZM4.67422 27.9746C4.20529 28.374 3.82876 28.8705 3.5707 29.4297C3.31265 29.989 3.17923 30.5977 3.17969 31.2136C3.17969 31.3189 3.22152 31.4199 3.29598 31.4944C3.37045 31.5688 3.47144 31.6106 3.57675 31.6106C3.68205 31.6106 3.78305 31.5688 3.85751 31.4944C3.93197 31.4199 3.97381 31.3189 3.97381 31.2136C3.97381 30.1987 4.41745 29.2378 5.19039 28.5787C5.23168 28.5454 5.26586 28.5041 5.29092 28.4573C5.31598 28.4105 5.33141 28.3592 5.3363 28.3064C5.34119 28.2535 5.33543 28.2002 5.31937 28.1497C5.30331 28.0991 5.27728 28.0522 5.24281 28.0119C5.20834 27.9715 5.16613 27.9385 5.11867 27.9148C5.07122 27.891 5.01949 27.877 4.96653 27.8736C4.91357 27.8701 4.86047 27.8774 4.81035 27.8948C4.76023 27.9123 4.71412 27.9396 4.67475 27.9752L4.67422 27.9746Z"></path>
  <path d="M32.3137 25.5939C32.5996 24.8315 32.7637 24.0109 32.7637 23.148V14.7039C32.7637 10.8021 29.5925 7.63092 25.6907 7.63092C21.7943 7.63092 18.6178 10.8021 18.6178 14.7039V23.148C18.6178 24.0162 18.7872 24.8368 19.0731 25.5992C18.6813 25.9115 18.3266 26.2609 18.009 26.6474C17.408 25.9118 16.6612 25.3087 15.8157 24.8759C14.9701 24.4431 14.0442 24.19 13.096 24.1327V23.6721C14.319 22.9097 15.219 21.6656 15.5684 20.2045C15.6213 20.2097 15.6796 20.2203 15.7325 20.2203C16.7384 20.2203 17.559 19.3997 17.559 18.3886C17.559 17.9915 17.4319 17.6315 17.2149 17.3297V11.4692C17.2149 9.35151 15.4943 7.63092 13.3766 7.63092H9.29485C8.16191 7.63092 7.05015 8.23445 6.48368 9.35151C6.40426 9.34621 6.32485 9.33563 6.24015 9.33563C4.67838 9.33563 3.4025 10.6115 3.4025 12.1786V17.335C3.18173 17.6419 3.06318 18.0105 3.06368 18.3886C3.06368 19.3997 3.88426 20.2203 4.89544 20.2203C4.93779 20.2203 4.97485 20.215 5.01721 20.2097C5.32427 21.6074 6.17662 22.8727 7.52662 23.6827V24.1327C3.92662 24.3497 1.0625 27.3356 1.0625 30.9886V33.2968C1.0625 34.1015 1.71368 34.7527 2.51838 34.7527H33.4837C34.2884 34.7527 34.9396 34.1015 34.9396 33.2968V30.9886C34.9396 28.8021 33.9125 26.8539 32.3137 25.5939ZM15.7325 18.865V17.3562C16.2937 17.3562 16.7649 17.8221 16.7649 18.3886C16.7649 18.9603 16.3043 19.4262 15.7325 19.4262C15.7219 19.4262 15.7166 19.4209 15.706 19.4209C15.7219 19.2356 15.7325 19.0503 15.7325 18.865ZM25.4631 10.008C25.5425 10.0027 25.6166 10.0027 25.6907 10.0027C25.9131 10.0027 26.0878 10.1774 26.0878 10.3997C26.0878 10.6168 25.9131 10.7968 25.6907 10.7968C25.6272 10.7968 25.5637 10.7968 25.5001 10.8021H25.4843C25.2725 10.8021 25.0978 10.6327 25.0872 10.4209C25.0766 10.2039 25.246 10.0186 25.4631 10.008ZM21.2596 13.1262C21.4721 12.5339 21.8007 11.99 22.2261 11.5264C22.6516 11.0628 23.1653 10.6887 23.7372 10.4262C23.9384 10.3362 24.1713 10.4209 24.2613 10.6221C24.3566 10.8233 24.2666 11.0562 24.0654 11.1462C23.1125 11.5856 22.3607 12.4009 22.0113 13.3909C21.9531 13.555 21.7996 13.6556 21.6354 13.6556C21.5931 13.6556 21.5454 13.6503 21.5031 13.6345C21.4036 13.5991 21.3221 13.5258 21.2765 13.4306C21.2309 13.3353 21.2248 13.2259 21.2596 13.1262ZM21.1801 17.2133C21.1801 16.8745 21.4607 16.5939 21.7996 16.5939H25.696C26.019 16.5939 26.3154 16.4244 26.4796 16.1439L26.9772 15.2862C27.0301 15.1962 27.1149 15.1962 27.1678 15.2862L27.6601 16.1439C27.8243 16.4244 28.126 16.5939 28.4437 16.5939H29.5819C29.926 16.5939 30.2013 16.8745 30.2013 17.2133V19.3997C30.2013 21.8562 28.3643 23.9103 26.0137 24.0692C23.4407 24.2545 21.1801 22.2268 21.1801 19.5745V17.2133ZM27.6284 24.498V25.2603C27.6284 26.3297 26.7601 27.198 25.6907 27.198C25.1778 27.1966 24.6863 26.9918 24.324 26.6286C23.9618 26.2654 23.7584 25.7733 23.7584 25.2603V24.5033C24.4837 24.7892 25.2725 24.9215 26.0666 24.8633C26.6172 24.8262 27.136 24.6992 27.6284 24.498ZM10.2901 9.43092H12.339C12.5613 9.43092 12.736 9.60563 12.736 9.82798C12.736 10.045 12.5613 10.225 12.339 10.225H10.2901C9.75015 10.225 9.30544 10.6645 9.30544 11.2097C9.30544 11.3151 9.26361 11.416 9.18915 11.4905C9.11468 11.565 9.01369 11.6068 8.90838 11.6068C8.80308 11.6068 8.70208 11.565 8.62762 11.4905C8.55316 11.416 8.51132 11.3151 8.51132 11.2097C8.51132 10.2303 9.31074 9.43092 10.2901 9.43092ZM4.89544 19.4262C4.32368 19.4262 3.85779 18.9603 3.85779 18.3886C3.85779 17.8221 4.31838 17.3615 4.88485 17.3562V19.0397C4.88485 19.1721 4.89544 19.2992 4.90603 19.4262H4.89544ZM5.67897 19.0397V16.3927C5.67897 15.2915 6.48897 14.3862 7.53721 14.2062C7.99433 14.6797 8.54208 15.0564 9.14783 15.3138C9.75357 15.5712 10.4049 15.704 11.0631 15.7045H13.8796C14.4619 15.7045 14.9384 16.1756 14.9384 16.758V18.865C14.9384 21.385 13.0537 23.4868 10.6396 23.6562C7.96603 23.8362 5.67897 21.7397 5.67897 19.0397ZM12.3019 24.0692V24.8686C12.3019 25.9644 11.4072 26.8592 10.3113 26.8592C9.21544 26.8592 8.32074 25.9644 8.32074 24.8686V24.0797C9.06721 24.3709 9.87721 24.5033 10.6978 24.4503C11.259 24.408 11.799 24.2756 12.3019 24.0692ZM18.766 33.2968C18.766 33.6621 18.4696 33.9586 18.1043 33.9586H15.9284V31.0468C15.9284 30.9415 15.8865 30.8405 15.8121 30.766C15.7376 30.6916 15.6366 30.6497 15.5313 30.6497C15.426 30.6497 15.325 30.6916 15.2506 30.766C15.1761 30.8405 15.1343 30.9415 15.1343 31.0468V33.9586H5.48309V31.0468C5.48309 30.9415 5.44126 30.8405 5.36679 30.766C5.29233 30.6916 5.19134 30.6497 5.08603 30.6497C4.98072 30.6497 4.87973 30.6916 4.80527 30.766C4.7308 30.8405 4.68897 30.9415 4.68897 31.0468V33.9586H2.51838C2.15309 33.9586 1.85662 33.6621 1.85662 33.2968V30.9886C1.85662 27.7697 4.36603 25.1439 7.53191 24.9268C7.56368 26.4356 8.79721 27.6533 10.3113 27.6533C11.8254 27.6533 13.059 26.4356 13.0907 24.9268C16.2566 25.1439 18.766 27.7697 18.766 30.9886V33.2968ZM34.1454 33.2968C34.1454 33.6621 33.849 33.9586 33.4837 33.9586H31.3131V31.0468C31.3131 30.9415 31.2713 30.8405 31.1968 30.766C31.1223 30.6916 31.0213 30.6497 30.916 30.6497C30.8107 30.6497 30.7097 30.6916 30.6353 30.766C30.5608 30.8405 30.519 30.9415 30.519 31.0468V33.9586H20.8678V31.0468C20.8678 30.9415 20.826 30.8405 20.7515 30.766C20.677 30.6916 20.576 30.6497 20.4707 30.6497C20.3654 30.6497 20.2644 30.6916 20.19 30.766C20.1155 30.8405 20.0737 30.9415 20.0737 31.0468V33.9586H19.396C19.4966 33.7574 19.5601 33.535 19.5601 33.2968V30.9886C19.5601 30.7239 19.5443 30.4645 19.5125 30.205V30.1997C19.7033 29.5696 20.0707 29.0074 20.5713 28.5797C20.611 28.546 20.6436 28.5048 20.6673 28.4585C20.691 28.4122 20.7053 28.3617 20.7095 28.3098C20.7137 28.2579 20.7076 28.2058 20.6916 28.1562C20.6756 28.1067 20.65 28.0608 20.6163 28.0212C20.5826 27.9816 20.5414 27.949 20.4951 27.9253C20.4488 27.9016 20.3982 27.8872 20.3464 27.883C20.2945 27.8789 20.2423 27.8849 20.1928 27.9009C20.1433 27.9169 20.0974 27.9425 20.0578 27.9762C19.7296 28.2515 19.4649 28.5745 19.2372 28.9292V28.9239C19.0572 28.3521 18.8031 27.8121 18.4907 27.3145C19.5337 25.9433 21.1378 25.0327 22.9643 24.9215V25.2603C22.9643 26.7692 24.1872 27.9921 25.6907 27.9921C27.1943 27.9921 28.4225 26.7692 28.4225 25.2603V24.9215C31.6096 25.1121 34.1454 27.7539 34.1454 30.9886V33.2968Z"></path>
  <path d="M24.4654 22.1373C24.7908 22.4621 25.2318 22.6444 25.6915 22.6444C26.1512 22.6444 26.5922 22.4621 26.9176 22.1373C26.9566 22.101 26.9879 22.0572 27.0096 22.0085C27.0313 21.9597 27.043 21.9072 27.0439 21.8539C27.0449 21.8005 27.0351 21.7476 27.0151 21.6981C26.9951 21.6487 26.9654 21.6038 26.9277 21.5661C26.89 21.5284 26.8451 21.4987 26.7957 21.4787C26.7462 21.4587 26.6933 21.4489 26.6399 21.4499C26.5866 21.4508 26.534 21.4625 26.4853 21.4842C26.4366 21.5059 26.3928 21.5372 26.3565 21.5762C26.1798 21.752 25.9408 21.8508 25.6915 21.8508C25.4423 21.8508 25.2032 21.752 25.0266 21.5762C24.9902 21.5372 24.9464 21.5059 24.8977 21.4842C24.849 21.4625 24.7964 21.4508 24.7431 21.4499C24.6898 21.4489 24.6368 21.4587 24.5874 21.4787C24.5379 21.4987 24.493 21.5284 24.4553 21.5661C24.4176 21.6038 24.3879 21.6487 24.3679 21.6981C24.3479 21.7476 24.3381 21.8005 24.3391 21.8539C24.34 21.9072 24.3517 21.9597 24.3734 22.0085C24.3951 22.0572 24.4264 22.101 24.4654 22.1373ZM27.6302 19.0938C27.7175 19.0101 27.8338 18.9634 27.9547 18.9634C28.0757 18.9634 28.192 19.0101 28.2793 19.0938C28.3541 19.1661 28.4544 19.2062 28.5585 19.2053C28.6626 19.2045 28.7622 19.1628 28.8359 19.0892C28.9095 19.0156 28.9513 18.916 28.9523 18.8119C28.9532 18.7078 28.9133 18.6075 28.841 18.5326C28.3672 18.0588 27.5423 18.0588 27.0685 18.5326C26.9962 18.6075 26.9562 18.7078 26.9572 18.8119C26.9581 18.916 27 19.0156 27.0736 19.0892C27.1473 19.1628 27.2469 19.2045 27.351 19.2053C27.4551 19.2062 27.5554 19.1661 27.6302 19.0938ZM23.1027 19.0938C23.19 19.0101 23.3063 18.9634 23.4272 18.9634C23.5482 18.9634 23.6644 19.0101 23.7517 19.0938C23.8266 19.1661 23.9269 19.2062 24.031 19.2053C24.1351 19.2045 24.2347 19.1628 24.3084 19.0892C24.382 19.0156 24.4238 18.916 24.4248 18.8119C24.4257 18.7078 24.3857 18.6075 24.3135 18.5326C23.8396 18.0588 23.0148 18.0588 22.541 18.5326C22.4687 18.6075 22.4287 18.7078 22.4297 18.8119C22.4306 18.916 22.4724 19.0156 22.5461 19.0892C22.6197 19.1628 22.7193 19.2045 22.8234 19.2053C22.9276 19.2062 23.0278 19.1661 23.1027 19.0938ZM25.691 20.6878C25.7963 20.6878 25.8973 20.646 25.9717 20.5715C26.0462 20.4971 26.088 20.3961 26.088 20.2908V19.8948C26.088 19.7895 26.0462 19.6885 25.9717 19.614C25.8973 19.5395 25.7963 19.4977 25.691 19.4977C25.5857 19.4977 25.4847 19.5395 25.4102 19.614C25.3358 19.6885 25.2939 19.7895 25.2939 19.8948V20.2908C25.2939 20.5099 25.4718 20.6878 25.691 20.6878ZM11.5589 21.6598C11.5979 21.6235 11.6292 21.5796 11.6509 21.5309C11.6726 21.4822 11.6842 21.4296 11.6852 21.3763C11.6861 21.323 11.6763 21.2701 11.6563 21.2206C11.6364 21.1712 11.6066 21.1263 11.5689 21.0886C11.5312 21.0509 11.4863 21.0211 11.4369 21.0012C11.3874 20.9812 11.3345 20.9714 11.2812 20.9723C11.2279 20.9733 11.1753 20.9849 11.1266 21.0066C11.0779 21.0283 11.034 21.0596 10.9977 21.0986C10.8151 21.2805 10.5679 21.3826 10.3102 21.3826C10.0526 21.3826 9.80538 21.2805 9.62281 21.0986C9.58646 21.0596 9.54262 21.0283 9.49391 21.0066C9.44521 20.9849 9.39263 20.9733 9.33932 20.9723C9.286 20.9714 9.23305 20.9812 9.18361 21.0012C9.13417 21.0211 9.08925 21.0509 9.05155 21.0886C9.01385 21.1263 8.98412 21.1712 8.96415 21.2206C8.94418 21.2701 8.93438 21.323 8.93532 21.3763C8.93626 21.4296 8.94793 21.4822 8.96963 21.5309C8.99133 21.5796 9.02262 21.6235 9.06163 21.6598C9.3931 21.9904 9.84212 22.176 10.3102 22.176C10.7784 22.176 11.2274 21.9904 11.5589 21.6598ZM12.2889 18.5421C12.3801 18.4544 12.5018 18.4055 12.6283 18.4055C12.7548 18.4055 12.8764 18.4544 12.9676 18.5421C13.004 18.5811 13.0478 18.6124 13.0965 18.6341C13.1452 18.6558 13.1978 18.6675 13.2511 18.6684C13.3044 18.6694 13.3574 18.6596 13.4068 18.6396C13.4563 18.6196 13.5012 18.5899 13.5389 18.5522C13.5766 18.5145 13.6063 18.4696 13.6263 18.4201C13.6463 18.3707 13.6561 18.3177 13.6551 18.2644C13.6542 18.2111 13.6425 18.1585 13.6208 18.1098C13.5991 18.0611 13.5678 18.0173 13.5288 17.9809C13.047 17.4992 12.2085 17.4992 11.7272 17.9809C11.6882 18.0173 11.6569 18.0611 11.6352 18.1098C11.6135 18.1585 11.6018 18.2111 11.6009 18.2644C11.6 18.3177 11.6098 18.3707 11.6297 18.4201C11.6497 18.4696 11.6794 18.5145 11.7171 18.5522C11.7548 18.5899 11.7998 18.6196 11.8492 18.6396C11.8986 18.6596 11.9516 18.6694 12.0049 18.6684C12.0582 18.6675 12.1108 18.6558 12.1595 18.6341C12.2082 18.6124 12.2526 18.5811 12.2889 18.5421ZM8.89169 17.9804C8.65253 17.742 8.3286 17.6081 7.99089 17.6081C7.65319 17.6081 7.32926 17.742 7.0901 17.9804C7.05216 18.017 7.02189 18.0608 7.00106 18.1092C6.98023 18.1577 6.96925 18.2098 6.96877 18.2625C6.96828 18.3152 6.97831 18.3675 6.99825 18.4163C7.01819 18.4651 7.04765 18.5095 7.08491 18.5468C7.12218 18.5841 7.1665 18.6136 7.21528 18.6336C7.26407 18.6535 7.31635 18.6636 7.36907 18.6632C7.42179 18.6627 7.4739 18.6518 7.52235 18.631C7.5708 18.6102 7.61463 18.58 7.65128 18.5421C7.7414 18.4521 7.86355 18.4016 7.99089 18.4016C8.11824 18.4016 8.24039 18.4521 8.33051 18.5421C8.40578 18.6122 8.50534 18.6504 8.6082 18.6486C8.71107 18.6468 8.80921 18.6051 8.88196 18.5324C8.95471 18.4596 8.99638 18.3615 8.99819 18.2586C9.00001 18.1558 8.96183 18.0557 8.89169 17.9804ZM10.3095 20.1722C10.4148 20.1722 10.5158 20.1303 10.5902 20.0559C10.6647 19.9814 10.7065 19.8804 10.7065 19.7751V19.3691C10.7065 19.2637 10.6647 19.1628 10.5902 19.0883C10.5158 19.0138 10.4148 18.972 10.3095 18.972C10.2041 18.972 10.1032 19.0138 10.0287 19.0883C9.95423 19.1628 9.91239 19.2637 9.91239 19.3691V19.7751C9.91239 19.9943 10.0903 20.1722 10.3095 20.1722ZM18.2898 9.01852C18.5757 9.18793 18.9235 9.18793 19.2083 9.01852C20.4069 8.30329 23.1953 6.37993 23.2774 4.00658C23.3303 2.56182 22.2 1.32458 20.7595 1.25205C20.3888 1.23076 20.0178 1.28868 19.6711 1.42195C19.3245 1.55523 19.0103 1.7608 18.7493 2.02499C18.5025 1.77811 18.2094 1.58234 17.8868 1.44889C17.5642 1.31544 17.2185 1.24693 16.8694 1.24729C16.1663 1.24924 15.4925 1.52942 14.9953 2.02661C14.4981 2.5238 14.2179 3.19757 14.216 3.9007C14.216 6.3217 17.0674 8.28423 18.2898 9.01852Z"></path>
</svg>
