<?xml version="1.0" encoding="UTF-8"?>
<svg xmlns="http://www.w3.org/2000/svg" width="36" height="36" viewBox="0 0 36 36">
  <g>
    <path d="M35.9196 10.873C35.8884 10.8108 35.8326 10.7532 35.7842 10.7021C35.7634 10.6801 35.7421 10.6585 35.7216 10.6361C35.7878 10.7088 35.7214 10.6284 35.7102 10.6073C35.6203 10.4396 35.4707 10.3849 35.3261 10.4029C35.2986 10.3885 35.2716 10.3731 35.2392 10.3647L35.2397 10.3638C32.5276 9.27524 29.9485 8.07055 27.1392 7.19048C24.2133 6.27389 21.2756 5.31602 18.3062 4.5521C18.2499 4.53852 18.1907 4.5419 18.1363 4.56183C17.3636 4.45008 16.3899 4.8191 15.7368 5.01251C14.1345 5.48722 12.5905 6.16728 11.0462 6.79926C7.52168 8.24158 3.89202 9.22496 0.278151 10.3812C0.175758 10.4139 0.125845 10.4858 0.115753 10.5629C-0.0330668 10.7119 -0.060225 10.9994 0.165114 11.1192C1.43825 11.7971 2.92773 12.1577 4.27683 12.6535C5.2002 12.993 6.13771 13.3013 7.07852 13.5996C6.91209 14.1762 6.82162 14.7729 6.77134 15.3768C6.57243 15.4985 6.51829 15.8176 6.73409 15.9872C6.69354 17.0893 6.77134 18.2062 6.82804 19.2742C6.83759 19.4546 6.95576 19.6766 7.15669 19.7058C7.4859 19.7533 7.81546 19.7937 8.14485 19.8366C7.79876 21.107 7.74702 22.3734 7.26845 23.65C6.69335 25.1833 5.98541 26.6778 5.64391 28.2867C5.62538 28.3735 5.64061 28.4456 5.66923 28.5085C5.63455 28.666 5.70171 28.8517 5.88778 28.9111C7.28882 29.3574 8.92253 29.4347 10.3806 29.5171C10.9579 29.5499 12.6777 29.8312 13.3086 29.2807C14.465 30.4702 15.9374 31.2858 17.668 31.4407C19.743 31.6262 21.4903 30.3704 22.8547 28.8847C25.2461 28.94 27.642 28.8902 30.0345 28.8917C30.4584 28.8923 30.6283 28.4632 30.4779 28.1192C29.3669 25.5782 28.6373 23.0384 27.7903 20.425C28.9091 20.3275 29.9925 20.0167 30.2817 18.8191C30.6469 17.3064 30.5287 15.34 30.1813 13.7406C31.319 13.4343 32.4621 13.1414 33.5561 12.7208C33.3084 14.9375 33.2029 17.1724 33.1623 19.404C32.8553 19.5941 32.5953 19.9466 32.4591 20.3075C32.1538 21.1182 32.4019 22.2723 33.3438 22.5314C34.1323 22.7483 34.6378 21.8471 34.7716 21.2138C34.8441 20.8705 34.8544 20.4853 34.7263 20.1537C34.6465 19.9473 34.4751 19.7053 34.2659 19.5985C34.2653 19.5977 34.2653 19.597 34.2646 19.5963C34.2171 19.5414 34.1647 19.491 34.1079 19.4458C34.1701 17.1115 34.3092 14.775 34.2228 12.4427C34.5827 12.2834 34.9336 12.1046 35.274 11.907C35.3375 11.8698 35.3856 11.825 35.4232 11.7767C35.4689 11.7716 35.5148 11.767 35.5612 11.7676C35.7506 11.7699 35.891 11.6404 35.9512 11.4706C36.0244 11.2657 36.0165 11.0673 35.9196 10.873ZM14.3765 6.51483C14.3767 6.51703 14.3777 6.51905 14.378 6.52144C13.9978 6.65686 13.624 6.81687 13.2596 7.01634C13.2432 7.00056 13.2273 6.98423 13.2087 6.97101C13.5966 6.8154 13.9859 6.66333 14.3765 6.51483ZM12.0292 28.5254C11.2748 28.5619 10.5146 28.5144 9.76113 28.4777C8.6326 28.4227 7.50168 28.328 6.37241 28.2828C6.9409 26.6453 7.7072 25.0863 8.31752 23.4648C8.67994 22.5016 9.30274 20.9681 8.84435 19.9288C9.43376 20.0003 10.0235 20.0653 10.6139 20.124C10.0672 22.8578 10.8375 26.1333 12.605 28.4603C12.3933 28.4854 12.138 28.5201 12.0292 28.5254ZM17.6682 30.3942C13.0214 30.2993 11.1014 24.0208 11.248 20.1837C15.8253 20.6031 20.4246 20.6536 25.0242 20.527C25.7426 24.4611 21.9496 30.4816 17.6682 30.3942ZM29.2477 27.8652C27.3115 27.8689 25.3701 27.8969 23.456 28.1891C23.6132 27.9966 23.7667 27.8011 23.9164 27.6028C25.2844 25.7841 26.7614 22.8585 26.0342 20.4965C26.1643 20.4925 26.2946 20.4886 26.4247 20.4844C26.5807 20.4789 26.7436 20.4751 26.91 20.4703C27.0266 22.9984 28.2023 25.5366 29.2477 27.8652ZM24.477 16.345C22.7029 16.8483 21.0305 17.639 19.2191 18.0211C17.1876 18.4494 15.0025 17.1509 13.2249 16.3494C11.4196 15.5352 9.49762 15.0304 7.69013 14.2193C7.69472 14.0793 7.69747 13.9395 7.70279 13.7993C8.89574 14.1696 10.0942 14.5226 11.2853 14.8836C13.3671 15.5145 15.4554 16.1338 17.5645 16.6672C18.0363 16.7865 19.4203 17.3366 19.9443 16.8946C22.8035 16.3494 25.5037 15.2099 28.259 14.301C28.5911 14.1926 28.9254 14.0909 29.2616 13.9958C29.2955 14.1879 29.325 14.3808 29.3501 14.5742C27.903 15.5453 26.13 15.8758 24.477 16.345ZM33.6677 21.6062C33.5989 21.6851 33.6062 21.6774 33.5579 21.6928C33.5965 21.6803 33.5466 21.6944 33.5412 21.692C33.4495 21.6491 33.3772 21.5641 33.3172 21.4839C33.3142 21.4801 33.3131 21.4766 33.3104 21.4727C33.3728 21.5195 33.4473 21.5474 33.5249 21.5605C33.577 21.5885 33.6456 21.588 33.6974 21.5621L33.7003 21.5619C33.6897 21.577 33.6792 21.5929 33.6677 21.6062Z"></path>
  </g>
</svg>
