<svg xmlns="http://www.w3.org/2000/svg" width="25" height="25" viewBox="0 0 25 25" fill="none"><g><path fill="#FFE107" d="M10.703 1.76462L1.01685 21.1557C0.215093 22.5421 1.21548 24.2764 2.81704 24.2764H22.1892C23.7908 24.2764 24.7912 22.5421 23.9894 21.1557L14.3033 1.76462C13.5026 0.380003 11.5037 0.380003 10.703 1.76462Z"></path><path stroke="#2D2D2D" stroke-width="1" d="M11.3466 2.11398L1.67152 21.483C1.66485 21.4963 1.65778 21.5094 1.65032 21.5223C1.40638 21.9441 1.40614 22.4479 1.64959 22.8699C1.89305 23.2919 2.32928 23.5439 2.81648 23.5439H22.1886C22.6759 23.5439 23.1121 23.2919 23.3556 22.8699C23.599 22.4479 23.5987 21.9441 23.3548 21.5224C23.3474 21.5095 23.3403 21.4963 23.3337 21.483L13.6586 2.11398C13.4131 1.70314 12.9825 1.45856 12.5025 1.45856C12.0227 1.45856 11.592 1.70314 11.3466 2.11398ZM22.1886 25.0088H2.81648C1.79949 25.0088 0.88895 24.4829 0.380748 23.6019C-0.12345 22.7279 -0.126868 21.686 0.370348 20.8099L10.0472 1.43727C10.0539 1.42394 10.0609 1.41081 10.0684 1.39792C10.5769 0.518625 11.4868 -0.00627518 12.5025 -0.00627518C13.5183 -0.00627518 14.4283 0.518625 14.9368 1.39792C14.9442 1.41081 14.9513 1.42394 14.958 1.43727L24.6348 20.8098C25.132 21.6858 25.1286 22.7278 24.6244 23.6019C24.1163 24.4828 23.2057 25.0088 22.1886 25.0088Z"></path><path fill="#2D2D2D" d="M13.545 14.9436L14.1 8.67504C14.1752 7.73955 13.4353 6.9394 12.4969 6.94116C11.5561 6.94297 10.8184 7.74975 10.9008 8.68696L11.5072 14.9512C11.5538 15.4821 12.0004 15.8882 12.5333 15.8842C13.0634 15.8803 13.5026 15.472 13.545 14.9436Z"></path><path fill="#2D2D2D" d="M13.8863 20.0458C13.8863 20.8104 13.2664 21.4303 12.5018 21.4303C11.7371 21.4303 11.1172 20.8104 11.1172 20.0458C11.1172 19.2811 11.7371 18.6613 12.5018 18.6613C13.2664 18.6613 13.8863 19.2811 13.8863 20.0458Z"></path><path fill="#2D2D2D" d="M12.4983 6.94118L12.4961 6.94123V15.8827C12.509 15.8831 12.5217 15.8844 12.5348 15.8843C13.0648 15.8803 13.504 15.472 13.5465 14.9437L14.1014 8.67506C14.1766 7.73962 13.4368 6.93942 12.4983 6.94118Z"></path></g></svg>