<svg xmlns="http://www.w3.org/2000/svg" width="25" height="25" viewBox="0 0 25 25"><path fill="#FA1228" d="M13.2688 0.265331C13.0489 0.0934036 12.7779 0 12.4988 0C12.2196 0 11.9486 0.0934036 11.7287 0.265331L9.6536 1.88792L7.04846 1.5204C6.77243 1.48163 6.49135 1.53623 6.24991 1.67552C6.00846 1.81482 5.8205 2.03082 5.71589 2.28919L4.72959 4.73057L2.28821 5.71687C2.02984 5.82148 1.81384 6.00944 1.67455 6.25088C1.53525 6.49233 1.48065 6.7734 1.51942 7.04944L1.88569 9.65708L0.264355 11.7322C0.093041 11.9518 0 12.2224 0 12.501C0 12.7795 0.093041 13.0501 0.264355 13.2698L1.88569 15.3449L1.51942 17.9525C1.48065 18.2285 1.53525 18.5096 1.67455 18.7511C1.81384 18.9925 2.02984 19.1805 2.28821 19.2851L4.72959 20.2714L5.71589 22.7128C5.82029 22.9714 6.00816 23.1876 6.24962 23.3272C6.49109 23.4667 6.77228 23.5215 7.04846 23.4828L9.6561 23.1153L11.7312 24.7366C11.9509 24.9079 12.2214 25.001 12.5 25.001C12.7786 25.001 13.0491 24.9079 13.2688 24.7366L15.3439 23.1153L17.9515 23.4828C18.2277 23.5215 18.5089 23.4667 18.7504 23.3272C18.9918 23.1876 19.1797 22.9714 19.2841 22.7128L20.2704 20.2714L22.7118 19.2851C22.9704 19.1807 23.1867 18.9928 23.3262 18.7514C23.4657 18.5099 23.5205 18.2287 23.4818 17.9525L23.1143 15.3449L24.7356 13.2698C24.907 13.0501 25 12.7795 25 12.501C25 12.2224 24.907 11.9518 24.7356 11.7322L23.1143 9.65708L23.4818 7.04944C23.5205 6.77325 23.4657 6.49206 23.3262 6.2506C23.1867 6.00913 22.9704 5.82126 22.7118 5.71687L20.2704 4.73057L19.2841 2.28919C19.1795 2.03082 18.9915 1.81482 18.7501 1.67552C18.5086 1.53623 18.2276 1.48163 17.9515 1.5204L15.3439 1.88667L13.2688 0.265331Z"></path><path fill="#EBEBED" fill-rule="evenodd" clip-rule="evenodd" d="M10.7234 8.96565C10.4877 8.73794 10.1719 8.61195 9.84414 8.61479C9.51638 8.61764 9.20285 8.74911 8.97108 8.98088C8.7393 9.21265 8.60784 9.52619 8.60499 9.85395C8.60214 10.1817 8.72814 10.4975 8.95585 10.7332L10.7234 12.5008L8.95585 14.2684C8.83645 14.3837 8.74122 14.5217 8.67571 14.6742C8.61019 14.8267 8.57571 14.9907 8.57427 15.1567C8.57282 15.3227 8.60445 15.4873 8.66731 15.6409C8.73016 15.7946 8.82298 15.9341 8.94035 16.0515C9.05773 16.1689 9.1973 16.2617 9.35093 16.3246C9.50456 16.3874 9.66916 16.419 9.83515 16.4176C10.0011 16.4162 10.1652 16.3817 10.3177 16.3162C10.4702 16.2507 10.6081 16.1554 10.7234 16.036L12.491 14.2684L14.2586 16.036C14.3739 16.1554 14.5119 16.2507 14.6644 16.3162C14.8169 16.3817 14.9809 16.4162 15.1469 16.4176C15.3129 16.419 15.4775 16.3874 15.6311 16.3246C15.7848 16.2617 15.9243 16.1689 16.0417 16.0515C16.1591 15.9341 16.2519 15.7946 16.3148 15.6409C16.3776 15.4873 16.4092 15.3227 16.4078 15.1567C16.4064 14.9907 16.3719 14.8267 16.3064 14.6742C16.2408 14.5217 16.1456 14.3837 16.0262 14.2684L14.2586 12.5008L16.0262 10.7332C16.2539 10.4975 16.3799 10.1817 16.3771 9.85395C16.3742 9.52619 16.2428 9.21265 16.011 8.98088C15.7792 8.74911 15.4657 8.61764 15.1379 8.61479C14.8102 8.61195 14.4944 8.73794 14.2586 8.96565L12.491 10.7332L10.7234 8.96565Z"></path></svg>