<?xml version="1.0" encoding="UTF-8"?>
<svg xmlns="http://www.w3.org/2000/svg" width="45" height="45" viewBox="0 0 45 45">
  <path d="M12.1615 42.2393H11.4784C11.2914 42.2393 11.1121 42.3135 10.9799 42.4457C10.8477 42.5779 10.7734 42.7573 10.7734 42.9442C10.7734 43.1312 10.8477 43.3105 10.9799 43.4427C11.1121 43.5749 11.2914 43.6492 11.4784 43.6492H12.1615C12.3485 43.6492 12.5278 43.5749 12.66 43.4427C12.7922 43.3105 12.8665 43.1312 12.8665 42.9442C12.8665 42.7573 12.7922 42.5779 12.66 42.4457C12.5278 42.3135 12.3485 42.2393 12.1615 42.2393Z"></path>
  <path d="M44.295 36.1109H40.2717C40.0848 36.1109 39.9054 36.1852 39.7732 36.3174C39.641 36.4496 39.5668 36.6289 39.5668 36.8159V39.4194H36.6587V37.1282H37.5506C37.7376 37.1282 37.9169 37.0539 38.0491 36.9217C38.1813 36.7895 38.2556 36.6102 38.2556 36.4232V31.2965H40.2717C40.7554 31.2965 41.0946 30.82 40.9389 30.364L40.2909 28.4642C39.8634 26.9657 38.2699 25.9211 36.4067 25.9211H33.5304V23.3812C33.5304 23.1942 33.4561 23.0149 33.3239 22.8827C33.1917 22.7505 33.0124 22.6762 32.8254 22.6762C32.6385 22.6762 32.4591 22.7505 32.3269 22.8827C32.1947 23.0149 32.1204 23.1942 32.1204 23.3812V25.9211H29.3959C27.4938 25.9211 25.8927 26.9928 25.4937 28.5301L24.9167 30.3818C24.7754 30.8353 25.1149 31.2965 25.5898 31.2965H27.3953V36.4232C27.3953 36.6102 27.4695 36.7895 27.6017 36.9217C27.734 37.0539 27.9133 37.1282 28.1002 37.1282H28.9921V39.4194H21.9864V33.5073C21.9864 33.3204 21.9122 33.1411 21.7799 33.0089C21.6477 32.8766 21.4684 32.8024 21.2814 32.8024C21.0945 32.8024 20.9152 32.8766 20.783 33.0089C20.6507 33.1411 20.5765 33.3204 20.5765 33.5073V39.4194H17.9769V33.5073C17.9769 33.3204 17.9026 33.1411 17.7704 33.0089C17.6382 32.8766 17.4589 32.8024 17.2719 32.8024H13.5852C13.3983 32.8024 13.2189 32.8766 13.0867 33.0089C12.9545 33.1411 12.8803 33.3204 12.8803 33.5073V39.4194H10.2662V31.2965H23.6973C24.18 31.2965 24.5204 30.821 24.3646 30.364L23.7166 28.4642C23.3072 27.0298 21.8295 26.012 20.0699 25.9274V23.7905H22.4711C22.9548 23.7905 23.294 23.3139 23.1383 22.858L22.4904 20.9581C22.0811 19.5237 20.6034 18.506 18.8436 18.4214V16.5957H21.1493C21.6584 16.5957 22.0001 16.071 21.7939 15.6053L21.1593 14.172C20.7371 12.7545 19.2683 11.7512 17.5219 11.6673V10.7796C17.5219 10.5927 17.4476 10.4134 17.3154 10.2811C17.1832 10.1489 17.0039 10.0747 16.8169 10.0747C16.63 10.0747 16.4506 10.1489 16.3184 10.2811C16.1862 10.4134 16.112 10.5927 16.112 10.7796V11.5727H14.7308V9.10532H20.268C20.7772 9.10532 21.1189 8.58064 20.9127 8.11491L20.2781 6.68161C19.837 5.20028 18.2529 4.17049 16.4031 4.17049H16.1263V2.05556C16.1263 1.86859 16.052 1.68928 15.9198 1.55707C15.7876 1.42486 15.6083 1.35059 15.4213 1.35059C15.2344 1.35059 15.0551 1.42486 14.9228 1.55707C14.7906 1.68928 14.7164 1.86859 14.7164 2.05556V4.17049H14.3807C12.4915 4.17049 10.8992 5.22786 10.4867 6.7485L9.92174 8.13421C9.73298 8.59738 10.0742 9.10541 10.5745 9.10541H13.3208V11.6642C11.5106 11.7285 10.0048 12.7665 9.60547 14.2389L9.04052 15.6247C8.85185 16.0878 9.19288 16.5959 9.69333 16.5959H17.4336V18.4152H12.1776C10.2755 18.4152 8.67446 19.4871 8.27527 21.0243L7.69842 22.876C7.55707 23.3295 7.89661 23.7907 8.3715 23.7907H10.7727V25.9244C8.94975 25.9892 7.43564 27.0415 7.04914 28.5303L6.47229 30.382C6.33094 30.8356 6.67048 31.2967 7.14537 31.2967H8.85626V39.4195H5.43325V36.8161C5.43325 36.6291 5.35897 36.4498 5.22676 36.3176C5.09456 36.1854 4.91524 36.1111 4.72827 36.1111H0.704976C0.518004 36.1111 0.338691 36.1854 0.206483 36.3176C0.074274 36.4498 0 36.6291 0 36.8161L0 42.9444C0 43.1314 0.074274 43.3107 0.206483 43.4429C0.338691 43.5751 0.518004 43.6494 0.704976 43.6494H9.56123C9.7482 43.6494 9.92752 43.5751 10.0597 43.4429C10.1919 43.3107 10.2662 43.1314 10.2662 42.9444C10.2662 42.7574 10.1919 42.5781 10.0597 42.4459C9.92752 42.3137 9.7482 42.2394 9.56123 42.2394H5.43325V40.8295H39.5668V42.2394H14.1876C14.0007 42.2394 13.8213 42.3137 13.6891 42.4459C13.5569 42.5781 13.4827 42.7574 13.4827 42.9444C13.4827 43.1314 13.5569 43.3107 13.6891 43.4429C13.8213 43.5751 14.0007 43.6494 14.1876 43.6494H44.2951C44.4821 43.6494 44.6614 43.5751 44.7936 43.4429C44.9258 43.3107 45.0001 43.1314 45.0001 42.9444V36.8161C45.0001 36.6291 44.9258 36.4497 44.7936 36.3175C44.6614 36.1852 44.482 36.1109 44.295 36.1109ZM18.6599 23.7906V25.8331H12.1827V23.7906H18.6599ZM28.8052 31.2965H36.8456V35.7182H28.8052V31.2965Z"></path>
</svg>
