<svg xmlns="http://www.w3.org/2000/svg" width="55" height="55" viewBox="0 0 55 55"><path d="M50.0319 31.8411L38.6003 12.041C38.4964 11.861 38.3269 11.7281 38.1273 11.6702L30.1219 9.3456C30.1825 8.94583 30.2132 8.54209 30.2136 8.13774C30.2136 3.70981 26.6112 0.107422 22.1833 0.107422C17.7554 0.107422 14.153 3.70981 14.153 8.13774C14.153 9.81481 14.6705 11.373 15.5532 12.6624L4.77913 24.0472C4.63753 24.1969 4.55861 24.395 4.55859 24.601V51.1973C4.55859 53.235 6.21644 54.8926 8.25412 54.8926H36.1124C38.1502 54.8926 39.8079 53.2348 39.8079 51.1973V41.2852L48.9093 36.0305C49.6166 35.6222 50.1232 34.9606 50.3356 34.1676C50.5482 33.3746 50.4403 32.5483 50.0319 31.8411ZM15.7643 8.13774C15.7643 4.5983 18.6439 1.71875 22.1833 1.71875C25.7227 1.71875 28.6023 4.5983 28.6023 8.13774C28.6023 8.38965 28.5859 8.64145 28.5567 8.89109L23.9758 7.56089C23.4824 7.1051 22.8668 6.86469 22.1833 6.86469C21.4352 6.86469 20.7679 7.15193 20.2538 7.69517L16.6921 11.4588C16.0839 10.4579 15.7629 9.30894 15.7643 8.13774ZM38.1966 51.1973C38.1966 52.3464 37.2616 53.2812 36.1124 53.2812H8.25423C7.10503 53.2812 6.17003 52.3464 6.17003 51.1973V24.9219L16.5996 13.9009C18.0459 15.3027 20.015 16.168 22.1833 16.168C22.6284 16.168 22.989 15.8073 22.989 15.3623C22.989 14.9172 22.6284 14.5566 22.1833 14.5566C20.4432 14.5566 18.8636 13.8596 17.7063 12.7314L21.4242 8.80279C21.6351 8.57989 21.8764 8.47602 22.1833 8.47602C22.4902 8.47602 22.7316 8.57989 22.9426 8.80279L38.1966 24.9219V51.1973ZM48.7792 33.7506C48.6782 34.1278 48.4382 34.442 48.1037 34.6351L39.8079 39.4246V24.6011C39.8079 24.3951 39.729 24.1969 39.5874 24.0474L26.179 9.87852L37.3667 13.1272L48.6364 32.6469C48.8296 32.9813 48.8802 33.3733 48.7792 33.7506ZM10.5639 31.5021C10.5639 37.9091 15.7762 43.1214 22.1832 43.1214C28.5902 43.1214 33.8026 37.9091 33.8026 31.5021C33.8026 25.0951 28.5902 19.8827 22.1832 19.8827C15.7762 19.8827 10.5639 25.0951 10.5639 31.5021ZM32.1913 31.5021C32.1913 37.0205 27.7017 41.5101 22.1832 41.5101C16.6648 41.5101 12.1752 37.0205 12.1752 31.5021C12.1752 25.9836 16.6648 21.494 22.1832 21.494C27.7017 21.494 32.1913 25.9836 32.1913 31.5021ZM13.7978 31.5021C13.7978 36.1259 17.5595 39.8876 22.1832 39.8876C26.807 39.8876 30.5687 36.1259 30.5687 31.5021C30.5687 26.8784 26.807 23.1167 22.1832 23.1167C17.5595 23.1167 13.7978 26.8784 13.7978 31.5021ZM28.9572 31.5021C28.9572 35.2373 25.9184 38.2762 22.1831 38.2762C18.4478 38.2762 15.4091 35.2374 15.4091 31.5021C15.4091 27.7668 18.4478 24.728 22.1831 24.728C25.9184 24.728 28.9572 27.7668 28.9572 31.5021ZM22.1832 25.7782C22.6282 25.7782 22.9889 26.1389 22.9889 26.5839V27.1482C24.0532 27.4897 24.8258 28.4888 24.8258 29.6652C24.8258 30.1102 24.4652 30.4709 24.0201 30.4709C23.5751 30.4709 23.2144 30.1102 23.2144 29.6652C23.2144 29.0966 22.7518 28.6339 22.1832 28.6339H22.012C21.4433 28.6339 20.9806 29.0966 20.9806 29.6652C20.9806 30.2339 21.4433 30.6966 22.012 30.6966H22.3544C23.8115 30.6966 24.9971 31.8821 24.9971 33.3392C24.9971 34.5777 24.1406 35.62 22.989 35.9049V36.4205C22.989 36.8656 22.6284 37.2262 22.1833 37.2262C21.7383 37.2262 21.3776 36.8656 21.3776 36.4205V35.8563C20.3133 35.5149 19.5407 34.5156 19.5407 33.3392C19.5407 32.8942 19.9013 32.5336 20.3464 32.5336C20.7914 32.5336 21.1521 32.8942 21.1521 33.3392C21.1521 33.9079 21.6147 34.3706 22.1833 34.3706H22.3545C22.9232 34.3706 23.3859 33.9079 23.3859 33.3392C23.3859 32.7705 22.9232 32.3079 22.3545 32.3079H22.0121C20.555 32.3079 19.3694 31.1224 19.3694 29.6652C19.3694 28.4267 20.2259 27.3845 21.3775 27.0996V26.5839C21.3775 26.1389 21.7381 25.7782 22.1832 25.7782ZM31.0777 45.1744H13.2887C13.1829 45.1744 13.0781 45.1953 12.9803 45.2357C12.8826 45.2762 12.7938 45.3356 12.7189 45.4104C12.6441 45.4852 12.5848 45.574 12.5443 45.6718C12.5038 45.7695 12.483 45.8743 12.483 45.9801V49.4447C12.483 49.8897 12.8436 50.2503 13.2887 50.2503H31.0777C31.5228 50.2503 31.8834 49.8897 31.8834 49.4447V45.9801C31.8834 45.7664 31.7985 45.5615 31.6474 45.4104C31.4963 45.2593 31.2914 45.1744 31.0777 45.1744ZM30.2721 48.639H14.0943V46.7858H30.2721V48.639Z"></path></svg>