<svg xmlns="http://www.w3.org/2000/svg" width="55" height="55" viewBox="0 0 55 55"><path d="M50.0972 2.66051V14.6937C50.0972 15.8446 49.3414 16.8238 48.3107 17.1845V45.4422C48.3107 50.7072 44.0334 54.9845 38.7684 54.9845H32.7647C27.7917 54.9845 23.6948 51.1539 23.2653 46.2839C21.6935 45.9146 20.5168 44.506 20.5168 42.8225C20.5168 42.3416 20.9033 41.9636 21.3757 41.9636C21.8482 41.9636 22.2347 42.3415 22.2347 42.8225C22.2347 43.7245 22.8531 44.5833 24.0814 44.5833C25.3525 44.5833 25.9365 43.6728 25.9365 42.8225C25.9365 42.3416 26.323 41.9636 26.7955 41.9636C27.2679 41.9636 27.6544 42.3415 27.6544 42.8225C27.6544 44.4717 26.5207 45.8545 24.9833 46.2581C25.3956 50.1919 28.7281 53.2667 32.7649 53.2667H38.7686C43.0889 53.2667 46.5931 49.7624 46.5931 45.4422V17.1845C45.5625 16.8238 44.8067 15.8446 44.8067 14.6937V2.66051C44.8067 1.20043 45.992 0.0151367 47.4521 0.0151367C48.9119 0.0151367 50.0972 1.20043 50.0972 2.66051Z"></path><path d="M38.2621 22.2434C37.8926 20.6115 36.4412 19.3833 34.6976 19.3833H13.4743C11.7307 19.3833 10.2792 20.6116 9.90989 22.2434C7.09264 22.6213 4.90253 25.0349 4.90253 27.955V35.4961C4.90253 38.6826 7.49644 41.2679 10.6743 41.2679H16.7124C19.8989 41.2679 22.4842 38.6826 22.4842 35.4961C22.4842 34.7231 23.1112 34.0961 23.8928 34.0961H24.2793C25.0609 34.0961 25.6879 34.7231 25.6879 35.4961C25.6879 38.6826 28.2732 41.2679 31.4511 41.2679H37.4978C40.6757 41.2679 43.2695 38.6826 43.2695 35.4961V27.955C43.2693 25.0349 41.0792 22.6213 38.2621 22.2434ZM41.5515 35.4963C41.5515 37.7293 39.7306 39.5503 37.4975 39.5503H31.4509C29.2178 39.5503 27.4055 37.7293 27.4055 35.4963C27.4055 33.7785 26.0054 32.3784 24.2791 32.3784H23.8926C22.1662 32.3784 20.7662 33.7785 20.7662 35.4963C20.7662 37.7293 18.9453 39.5503 16.7122 39.5503H10.6742C8.44111 39.5503 6.6202 37.7293 6.6202 35.4963V27.9551C6.6202 25.7221 8.44111 23.9097 10.6742 23.9097H37.4975C39.7306 23.9097 41.5515 25.7219 41.5515 27.9551V35.4963Z"></path></svg>