<svg xmlns="http://www.w3.org/2000/svg" width="55" height="55" viewBox="0 0 55 55"><g><path d="M20.5428 17.887C20.42 17.887 20.2978 17.853 20.191 17.7869C20.1049 17.7335 20.0181 17.6761 19.9334 17.6167C19.4274 17.2663 18.9408 16.8231 18.489 16.3018C17.71 15.406 17.0899 14.3294 16.7428 13.2714C16.6801 13.0812 16.6247 12.8856 16.5793 12.6921C15.9759 10.1223 17.1894 8.00504 19.7451 7.16669C21.0267 6.74618 22.2542 6.77889 23.2961 7.25947C24.4402 7.78744 25.2992 8.84206 25.7798 10.3078C26.5027 12.5132 26.2771 15.2144 25.2298 16.8771C25.117 17.0553 24.9268 17.1708 24.7165 17.1868C23.3643 17.2922 22.0244 17.5192 20.713 17.865C20.6576 17.8797 20.6002 17.887 20.5428 17.887ZM21.4853 8.21329C20.958 8.21329 20.4834 8.32943 20.1617 8.4349C19.2652 8.72859 17.2495 9.70243 17.8796 12.387C17.9167 12.5446 17.9606 12.7005 18.011 12.8542C18.3041 13.7487 18.832 14.6618 19.4968 15.4267C19.8666 15.8532 20.2591 16.213 20.6643 16.4987C21.843 16.2036 23.0498 15.9974 24.2599 15.8853C24.9568 14.5323 25.0703 12.4264 24.5123 10.7237C23.8461 8.69454 22.5572 8.21329 21.4853 8.21329ZM20.9933 54.9012C19.9073 54.9012 18.8641 54.5341 18.0037 53.8399C16.9825 53.0156 16.357 51.8421 16.2429 50.5346C16.2422 50.5292 16.2422 50.5232 16.2416 50.5179L16.2409 50.5099C16.2402 50.4992 16.2402 50.4878 16.2402 50.4772L16.6547 50.4758L16.8857 50.4571L16.4151 50.0259L22.0059 43.9205C22.9464 42.8933 24.4695 42.7097 25.6276 43.4847C26.8638 44.3124 27.2369 45.9624 26.4766 47.2412L22.1387 54.5361C22.0869 54.6233 22.016 54.6975 21.9312 54.7531C21.8464 54.8088 21.75 54.8443 21.6495 54.8571L21.6067 54.8625C21.4018 54.8885 21.1969 54.9012 20.9933 54.9012ZM17.6092 50.7001C17.7494 51.5291 18.1806 52.2673 18.8427 52.8013C19.5069 53.3373 20.3232 53.6029 21.1655 53.5622L25.3299 46.5591C25.7277 45.8903 25.5328 45.0272 24.886 44.594C24.2806 44.1889 23.4837 44.2843 22.9917 44.8216L17.6092 50.7001ZM36.9607 37.2164L32.1375 42.7451L31.0235 42.0076C30.2746 41.5116 29.2653 41.7232 28.7781 42.4775L28.443 42.9954L21.9064 39.2015C22.1905 38.3578 22.1898 37.4442 21.9044 36.601C21.6107 35.732 21.2997 34.7982 20.9746 33.8343C22.0546 31.5789 24.1578 29.8355 26.5768 29.2014C28.9743 28.5733 31.6356 29.0465 33.674 30.4536C33.8622 31.6483 34.0458 32.7417 34.202 33.6214C34.3752 34.6015 34.8895 35.4888 35.6537 36.1264L36.9607 37.2164Z"></path><path d="M28.4409 43.663C28.3268 43.663 28.2119 43.6336 28.1065 43.5728L21.5699 39.7789C21.4369 39.7016 21.3347 39.5807 21.2804 39.4367C21.2262 39.2928 21.2233 39.1345 21.2722 38.9886C21.5085 38.2878 21.5078 37.5162 21.2702 36.8153C21.116 36.3581 20.9565 35.8835 20.793 35.3963C20.6454 34.9564 20.4946 34.5059 20.3397 34.048C20.2843 33.8831 20.295 33.7036 20.3704 33.5467C21.5392 31.1064 23.7953 29.2408 26.4051 28.5567C28.9889 27.8798 31.847 28.3838 34.051 29.905C34.2012 30.0091 34.3027 30.1699 34.3314 30.3502C34.5082 31.4729 34.6905 32.5642 34.8573 33.5053C35.0038 34.3303 35.4366 35.0772 36.0795 35.6145L37.3864 36.7045C37.5246 36.8193 37.61 36.9855 37.624 37.1644C37.638 37.3433 37.58 37.5208 37.4618 37.6557L32.6386 43.1844C32.419 43.4367 32.0459 43.4867 31.7669 43.3018L30.6529 42.5643C30.4406 42.4235 30.1863 42.3754 29.9374 42.4268C29.6877 42.4789 29.4748 42.6257 29.3366 42.8393L29.0016 43.3579C28.9412 43.4517 28.8582 43.5287 28.7602 43.582C28.6622 43.6353 28.5524 43.6632 28.4409 43.663ZM22.6826 38.8812L28.2266 42.0991C28.5597 41.5924 29.0703 41.2447 29.665 41.1205C30.2658 40.9951 30.8785 41.1125 31.3905 41.4516L32.0172 41.8668L36.0074 37.2926L35.2244 36.6398C34.3395 35.901 33.744 34.8734 33.5431 33.7383C33.3889 32.8705 33.2227 31.8767 33.0592 30.8481C31.2056 29.6667 28.8667 29.2915 26.7442 29.8476C24.5942 30.4109 22.7246 31.9107 21.6941 33.8851C21.8182 34.2529 21.9397 34.616 22.0592 34.9718C22.222 35.4583 22.3809 35.9323 22.5351 36.3875C22.8061 37.1884 22.8555 38.0562 22.6826 38.8812Z"></path><path d="M25.1491 46.9107L27.8975 42.659L29.0188 43.3839L26.2704 47.6355L25.1491 46.9107ZM43.968 50.4424C43.0729 50.4424 42.1692 50.1881 41.3709 49.6595L31.7692 43.3018L32.5061 42.1891L42.1077 48.5474C43.5996 49.5353 45.6073 49.1862 46.678 47.7525L51.5425 41.2413C51.7233 41.0002 51.8207 40.7069 51.8202 40.4056C51.8202 40.0238 51.6693 39.6667 51.3963 39.401C51.1477 39.1577 50.817 39.0162 50.4693 39.0043C50.1216 38.9924 49.782 39.1111 49.5174 39.337L45.624 42.635C45.1783 43.0138 44.613 43.2229 44.0281 43.2253C43.4431 43.2276 42.8761 43.023 42.4275 42.6476L36.5337 37.7297L37.3887 36.7044L43.2825 41.6224C43.49 41.796 43.7523 41.8906 44.0228 41.8895C44.2934 41.8884 44.5548 41.7916 44.761 41.6164L48.6543 38.3184C49.7337 37.4039 51.3129 37.458 52.3268 38.4439C52.8608 38.9638 53.1551 39.66 53.1551 40.4056C53.1551 40.999 52.9676 41.5643 52.6118 42.0402L47.7472 48.5515C46.8261 49.7843 45.4077 50.4424 43.968 50.4424ZM20.3421 34.0479C19.1546 30.5283 17.8844 26.9379 16.6316 24.4569C16.0382 24.1853 13.7861 23.2735 8.96961 21.4072C7.89223 20.9908 6.89754 20.386 6.03205 19.6211L0.490675 14.7318C-0.0126013 14.2879 -0.312965 13.6745 -0.354349 13.0044C-0.395732 12.3349 -0.174131 11.6888 0.26974 11.1862C0.505658 10.9193 0.795583 10.7056 1.12031 10.5593C1.44504 10.4129 1.79716 10.3372 2.15336 10.3372C2.66931 10.3372 3.16525 10.4934 3.58843 10.7884L10.0836 15.3145C10.2351 15.42 10.4074 15.4917 10.5889 15.5248L18.4664 16.9779C18.6941 17.0199 18.9303 17.0046 19.1506 16.9332C19.5511 16.8037 19.9623 16.6829 20.3721 16.5747C21.7578 16.2083 23.1848 15.9666 24.6139 15.8558C25.2073 15.8098 25.8113 15.7864 26.4081 15.7858C26.8092 15.7851 27.1917 15.6116 27.4573 15.3092L31.5056 10.6969C31.7918 10.3692 31.9631 9.95691 31.9935 9.52284L32.4734 2.38687C32.5595 1.09864 33.6308 0.100098 34.9184 0.100098H34.9497C36.2847 0.116785 37.3707 1.21545 37.3707 2.5504C37.3707 2.56241 37.3707 2.5751 37.37 2.58778V2.59846L37.2252 10.0622C37.1985 11.4292 36.8487 12.7915 36.2133 14.0023C34.1928 17.8483 33.2951 19.6418 33.1015 20.0957C33.1643 22.028 33.6228 25.846 34.333 30.3501L33.0141 30.5583C32.6683 28.365 31.8613 23.0045 31.7672 20.1544C31.7245 19.9194 31.8213 19.6938 31.878 19.5637C31.9321 19.4389 32.0109 19.268 32.1203 19.043C32.3079 18.6552 32.5842 18.1032 32.9413 17.4037C33.6155 16.0841 34.4498 14.4882 35.0312 13.3822C35.5705 12.3543 35.8682 11.1975 35.8902 10.0368L36.0351 2.57777C36.0351 2.56775 36.0351 2.55774 36.0357 2.54773V2.55107C36.0357 1.94366 35.5411 1.44306 34.9331 1.43572C34.3423 1.42904 33.8444 1.88559 33.805 2.47698L33.3251 9.61362C33.2764 10.3372 32.986 11.0347 32.5088 11.5787L28.4606 16.1909C27.9413 16.7816 27.1944 17.1207 26.4101 17.1214C25.8467 17.122 25.2774 17.1441 24.7174 17.1875C23.3651 17.2928 22.0252 17.5199 20.7138 17.8663C20.3274 17.9684 19.9396 18.0825 19.5618 18.2047C19.1301 18.3435 18.6709 18.3736 18.2248 18.2921L10.3459 16.8397C9.97762 16.7721 9.62804 16.6265 9.3207 16.4125L2.82484 11.8857C2.62799 11.7481 2.39354 11.6744 2.15336 11.6748C1.81561 11.6748 1.49389 11.8196 1.27095 12.0726C1.0627 12.3082 0.959242 12.6106 0.978599 12.9243C0.997956 13.238 1.13879 13.525 1.37441 13.7333L6.91579 18.6225C7.66318 19.2828 8.52202 19.8049 9.4522 20.1644C10.8185 20.6937 12.7916 21.4613 14.4296 22.1128C15.336 22.4732 16.0469 22.7602 16.5415 22.9671C16.8285 23.0873 17.0421 23.1794 17.1936 23.2488C17.3918 23.3396 17.6975 23.4797 17.787 23.7841C19.0905 26.3446 20.3934 30.023 21.6083 33.6227L20.3421 34.0479ZM17.3765 50.953L16.9066 50.4771H16.2411C16.2411 50.3837 16.2604 50.2889 16.2985 50.2035L21.157 39.2882C21.2004 39.1921 21.2378 39.0947 21.2732 38.9892L22.5387 39.4137C22.49 39.5592 22.4346 39.7007 22.3752 39.8336L17.5266 50.7268C17.4929 50.8118 17.4418 50.8889 17.3765 50.953ZM34.6881 33.1301L33.3852 32.8377C33.793 31.0195 35.5411 30.1725 37.0937 30.1398C37.6323 30.1285 38.1596 30.1852 38.6689 30.2393C39.4218 30.32 40.1334 30.3961 40.7995 30.2493C42.3007 29.9182 43.7164 28.3637 44.6835 25.9848C45.086 24.9943 45.4084 23.9236 45.7195 22.8884C46.0812 21.6862 46.455 20.4427 46.9663 19.2727C47.7219 17.5446 48.8105 15.958 50.1134 14.6844C51.4257 13.4022 52.9629 12.4297 54.5602 11.8724L55 13.1326C52.1232 14.1371 49.5775 16.6328 48.1891 19.8073C47.7099 20.9033 47.3481 22.1081 46.9977 23.2722C46.6773 24.3375 46.3462 25.4381 45.9204 26.4874C45.2536 28.128 43.7384 30.9682 41.0872 31.5529C40.2075 31.7471 39.3531 31.6557 38.5267 31.5669C38.0375 31.5141 37.5749 31.4654 37.1217 31.4748C36.0898 31.4968 34.9371 32.0168 34.6881 33.1301Z"></path></g></svg>