<svg xmlns="http://www.w3.org/2000/svg" width="55" height="55" viewBox="0 0 55 55"><path d="M52.6911 23.9195H47.8678C46.0722 23.9195 44.5873 25.2518 44.3293 26.9736H41.2911C41.0857 16.1739 34.6828 6.85383 30.839 2.21482C29.096 0.119123 25.8998 0.124387 24.1621 2.21482C20.3183 6.85383 13.9153 16.1739 13.7099 26.9736H10.6718C10.4138 25.2518 8.92887 23.9195 7.13331 23.9195H2.31007C1.83612 23.9195 1.45703 24.3039 1.45703 24.7726V30.2276C1.45703 30.6963 1.83612 31.0807 2.31007 31.0807H7.13331C8.92887 31.0807 10.4138 29.7484 10.6718 28.0266H13.71C13.9154 38.8263 20.3183 48.1464 24.1623 52.7854C25.9052 54.8811 29.1014 54.8758 30.8391 52.7854C34.6829 48.1464 41.0859 38.8263 41.2912 28.0266H44.3294C44.5875 29.7484 46.0723 31.0807 47.8679 31.0807H52.6912C53.1651 31.0807 53.5443 30.6963 53.5443 30.2276V24.7726C53.5442 24.3039 53.1651 23.9195 52.6911 23.9195ZM30.028 52.1114C29.512 52.7275 28.8012 53.1276 28.0271 53.2541V49.821C28.0271 49.5314 27.7901 49.2944 27.5005 49.2944C27.2109 49.2944 26.9739 49.5314 26.9739 49.821V53.2541C26.1999 53.1277 25.489 52.7275 24.973 52.1114C21.2186 47.5831 14.9683 38.4946 14.7629 28.0266H20.0022C20.2024 33.5871 23.4828 38.0259 27.5004 38.0259C31.518 38.0259 34.7985 33.5871 34.9985 28.0266H40.2378C40.0327 38.4946 33.7824 47.5831 30.028 52.1114ZM34.9988 26.9735C34.7986 21.413 31.5182 16.9742 27.5006 16.9742C23.483 16.9742 20.2025 21.413 20.0025 26.9735H14.7632C14.9686 16.5055 21.2188 7.41715 24.9732 2.88867C25.4892 2.27261 26.2 1.87236 26.9741 1.74603V5.17923C26.9741 5.46884 27.2111 5.70581 27.5007 5.70581C27.7903 5.70581 28.0273 5.46884 28.0273 5.17923V1.74603C28.8014 1.87236 29.5122 2.27261 30.0282 2.88867C33.7826 7.41704 40.0329 16.5055 40.2383 26.9735H34.9988Z"></path></svg>