<svg xmlns="http://www.w3.org/2000/svg" width="55" height="55" viewBox="0 0 55 55"><path d="M51.5581 11.3148C50.2551 9.99463 48.531 9.23086 46.6854 9.15244C44.6337 5.84814 40.9728 3.80498 37.0809 3.80498C36.3633 3.80498 35.6436 3.87373 34.941 4.00801C32.8807 2.20439 30.2467 1.21289 27.501 1.21289C24.7553 1.21289 22.1213 2.20439 20.0609 4.00801C19.3584 3.87373 18.6397 3.80498 17.9211 3.80498C14.0292 3.80498 10.3683 5.84814 8.3165 9.15244C6.471 9.23086 4.74795 9.99356 3.44385 11.3148C2.08926 12.6866 1.34375 14.5042 1.34375 16.4324C1.34375 19.5896 3.35898 22.3718 6.35713 23.3568C6.7084 23.4718 7.08437 23.403 7.36904 23.1957L26.5739 41.8603H21.8764C20.2339 41.8603 18.5957 41.6508 17.0059 41.2361C15.7888 40.9192 14.5352 40.7581 13.2772 40.7581C13.2257 40.7581 13.1741 40.7613 13.1236 40.7624H13.1172C13.0151 40.7645 12.9131 40.7699 12.8121 40.7774C12.8078 40.7774 12.8035 40.7785 12.7992 40.7785C12.7004 40.786 12.6016 40.7957 12.5038 40.8064L12.477 40.8097C12.3846 40.8215 12.2933 40.8344 12.202 40.8494L12.1482 40.8591C12.0666 40.873 11.986 40.8892 11.9055 40.9063C11.8743 40.9128 11.8432 40.9203 11.812 40.9278C11.7465 40.9429 11.6799 40.959 11.6154 40.9762C11.566 40.9891 11.5166 41.0041 11.4683 41.0181C11.4221 41.032 11.3748 41.0449 11.3297 41.06C11.2599 41.0825 11.19 41.1062 11.1202 41.1309C11.0955 41.1395 11.0719 41.147 11.0472 41.1566C10.9548 41.191 10.8635 41.2265 10.7722 41.2651C10.7711 41.2651 10.77 41.2662 10.7689 41.2662C9.98906 41.5949 9.27471 42.0783 8.66563 42.7003C7.79014 43.5951 7.20576 44.7026 6.95977 45.9036C6.95869 45.9068 6.95869 45.9101 6.95762 45.9133C6.93828 46.0067 6.92217 46.1002 6.90713 46.1947C6.90498 46.2087 6.90176 46.2227 6.89961 46.2355C6.88672 46.3204 6.87598 46.4063 6.86631 46.4934C6.86416 46.5159 6.86094 46.5374 6.85879 46.56C6.8502 46.6427 6.84482 46.7243 6.83945 46.8081C6.83838 46.8339 6.83516 46.8597 6.83408 46.8854C6.82871 46.9939 6.82549 47.1024 6.82549 47.2109C6.82549 47.3194 6.82871 47.4279 6.83408 47.5364C6.83516 47.5622 6.83838 47.588 6.83945 47.6138C6.84482 47.6965 6.8502 47.7792 6.85879 47.8619C6.86094 47.8845 6.86416 47.906 6.86631 47.9285C6.87598 48.0145 6.88672 48.1004 6.89961 48.1863C6.90176 48.2003 6.90391 48.2132 6.90713 48.2271C6.92217 48.3217 6.93828 48.4151 6.95762 48.5086C6.95869 48.5118 6.95869 48.515 6.95977 48.5172C7.20576 49.7182 7.79014 50.8257 8.66563 51.7205C9.27471 52.3425 9.98906 52.8259 10.7689 53.1546C10.77 53.1546 10.7711 53.1557 10.7722 53.1557C10.8624 53.1943 10.9548 53.2298 11.0472 53.2642C11.0708 53.2728 11.0955 53.2813 11.1202 53.2899C11.19 53.3146 11.2588 53.3383 11.3297 53.3608C11.3759 53.3759 11.4221 53.3888 11.4683 53.4027C11.5177 53.4167 11.566 53.4317 11.6154 53.4446C11.681 53.4618 11.7465 53.4779 11.812 53.493C11.8432 53.5005 11.8743 53.508 11.9055 53.5145C11.986 53.5316 12.0666 53.5478 12.1482 53.5617L12.202 53.5714C12.2933 53.5864 12.3846 53.5993 12.477 53.6111L12.5038 53.6144C12.6016 53.6262 12.7004 53.6358 12.7992 53.6423C12.8035 53.6423 12.8078 53.6434 12.8121 53.6434C12.9131 53.6509 13.0151 53.6552 13.1172 53.6584H13.1312C13.1806 53.6595 13.2289 53.6616 13.2783 53.6616C14.5352 53.6616 15.7898 53.5005 17.0069 53.1836C18.5968 52.77 20.235 52.5595 21.8774 52.5595H28.8685C29.0758 52.5595 29.2444 52.3908 29.2444 52.1835C29.2444 51.9762 29.0758 51.8075 28.8685 51.8075H21.8774C20.1702 51.8076 18.4699 52.0256 16.8179 52.4563C15.806 52.7195 14.7661 52.8699 13.7209 52.9032C14.4804 51.1619 14.8811 49.2079 14.8811 47.2109C14.8811 45.214 14.4804 43.26 13.7209 41.5187C14.7661 41.552 15.806 41.7013 16.8179 41.9655C18.4689 42.3952 20.1716 42.6144 21.8774 42.6144H33.1256C34.8328 42.6143 36.5331 42.3963 38.1852 41.9655C39.1971 41.7023 40.2369 41.552 41.2821 41.5187C40.5227 43.26 40.122 45.214 40.122 47.2109C40.122 49.2079 40.5227 51.1619 41.2821 52.9032C40.2369 52.8699 39.1971 52.7206 38.1852 52.4563C36.5341 52.0267 34.8314 51.8075 33.1256 51.8075H30.9191C30.7118 51.8075 30.5432 51.9762 30.5432 52.1835C30.5432 52.3908 30.7118 52.5595 30.9191 52.5595H33.1256C34.7681 52.5595 36.4062 52.7689 37.9961 53.1836C39.2132 53.5005 40.4668 53.6616 41.7247 53.6616C41.7741 53.6616 41.8225 53.6595 41.8719 53.6584H41.8858C41.9879 53.6562 42.0899 53.6509 42.1909 53.6434C42.1952 53.6434 42.1995 53.6423 42.2038 53.6423C42.3026 53.6348 42.4015 53.6251 42.4992 53.6144L42.5271 53.6111C42.6195 53.5993 42.7108 53.5864 42.8011 53.5714L42.8559 53.5617C42.9364 53.5478 43.017 53.5316 43.0965 53.5145C43.1287 53.508 43.1609 53.4994 43.1921 53.4919C43.2576 53.4769 43.3221 53.4618 43.3865 53.4446C43.437 53.4317 43.4864 53.4167 43.5369 53.4017C43.582 53.3888 43.6282 53.3759 43.6733 53.3608C43.7453 53.3383 43.8151 53.3136 43.886 53.2889C43.9086 53.2803 43.9322 53.2728 43.9548 53.2642C44.8432 52.9376 45.6563 52.4155 46.3363 51.7205C47.2118 50.8257 47.7962 49.7171 48.0422 48.5161C48.0433 48.5129 48.0433 48.5107 48.0443 48.5075C48.0637 48.4141 48.0798 48.3206 48.0948 48.2261C48.097 48.2121 48.1002 48.1992 48.1013 48.1853C48.1142 48.1004 48.1249 48.0134 48.1346 47.9274C48.1367 47.9049 48.1399 47.8834 48.1421 47.8608C48.1507 47.7781 48.1561 47.6954 48.1614 47.6127C48.1625 47.5869 48.1657 47.5611 48.1668 47.5354C48.1722 47.4269 48.1754 47.3184 48.1754 47.2099C48.1754 47.1014 48.1722 46.9929 48.1668 46.8844C48.1657 46.8586 48.1625 46.8328 48.1614 46.807C48.1561 46.7243 48.1507 46.6416 48.1421 46.5589C48.1399 46.5363 48.1367 46.5148 48.1346 46.4923C48.1249 46.4063 48.1142 46.3204 48.1013 46.2345C48.0991 46.2205 48.097 46.2076 48.0938 46.1936C48.0787 46.0991 48.0626 46.0057 48.0433 45.9122C48.0422 45.909 48.0422 45.9068 48.0411 45.9036C47.7951 44.7026 47.2107 43.5951 46.3353 42.7003C45.7262 42.0783 45.0118 41.5949 44.2319 41.2662C44.2309 41.2662 44.2298 41.2651 44.2287 41.2651C44.1374 41.2265 44.0461 41.191 43.9537 41.1566C43.9301 41.148 43.9054 41.1395 43.8817 41.1309C43.8119 41.1062 43.7421 41.0814 43.6723 41.06C43.6261 41.0449 43.5799 41.032 43.5337 41.0191C43.4843 41.0052 43.4349 40.9901 43.3854 40.9772C43.321 40.9601 43.2555 40.9439 43.1889 40.9289C43.1577 40.9214 43.1255 40.9139 43.0943 40.9074C43.0138 40.8902 42.9332 40.8752 42.8526 40.8602L42.7979 40.8505C42.7065 40.8354 42.6152 40.8226 42.5229 40.8107L42.496 40.8075C42.3982 40.7957 42.2994 40.786 42.2006 40.7796C42.1963 40.7796 42.192 40.7785 42.1877 40.7785C42.0867 40.771 41.9847 40.7667 41.8826 40.7635H41.8762C41.8246 40.7624 41.7741 40.7592 41.7226 40.7592C40.4657 40.7592 39.211 40.9203 37.9939 41.2372C36.4035 41.6512 34.7669 41.861 33.1234 41.8613H28.4259L47.6318 23.1957C47.823 23.3354 48.0562 23.4138 48.2946 23.4138C48.4106 23.4138 48.5277 23.3955 48.6427 23.3579C51.6419 22.3739 53.6561 19.5906 53.6561 16.4335C53.6582 14.5042 52.9127 12.6866 51.5581 11.3148ZM14.099 48.1047C13.9916 49.7966 13.5845 51.4326 12.9002 52.8946C12.4984 52.8688 12.1053 52.799 11.7239 52.6916C11.6842 52.6798 11.6434 52.6701 11.6036 52.6572C11.5735 52.6486 11.5445 52.6379 11.5145 52.6282C11.4543 52.6089 11.3941 52.5885 11.334 52.567L11.2824 52.5477C11.2104 52.5208 11.1385 52.4929 11.0687 52.4628L11.0461 52.4531C10.9655 52.4188 10.8871 52.3833 10.8087 52.3457C10.4797 52.1871 10.1667 51.9972 9.87412 51.7785C10.002 51.7764 10.1298 51.7581 10.2555 51.7205C11.1352 51.4623 11.9417 51.0003 12.6095 50.3721C13.2773 49.7438 13.7876 48.967 14.099 48.1047ZM42.1018 41.524C42.5035 41.5498 42.8967 41.6196 43.277 41.7271C43.3178 41.7389 43.3575 41.7496 43.3973 41.7614C43.4273 41.77 43.4563 41.7808 43.4854 41.7904C43.5455 41.8098 43.6067 41.8302 43.6658 41.8517C43.683 41.8581 43.6991 41.8646 43.7163 41.871C43.7962 41.9006 43.8754 41.9321 43.9537 41.9655C44.0332 41.9999 44.1127 42.0354 44.1911 42.0729H44.1922C44.523 42.2319 44.8356 42.4231 45.1268 42.6401C44.9989 42.6423 44.8711 42.6605 44.7454 42.6981C43.8657 42.9562 43.0593 43.4181 42.3916 44.0464C41.724 44.6747 41.2139 45.4516 40.9029 46.314C41.0104 44.6221 41.4175 42.986 42.1018 41.524ZM7.02852 22.4738C6.94258 22.6264 6.75996 22.6973 6.59238 22.6425C5.28317 22.2147 4.14297 21.3835 3.33519 20.268C2.52741 19.1524 2.09352 17.8097 2.0957 16.4324C2.0957 12.8811 4.98535 9.94951 8.53672 9.89902C8.5915 9.89795 8.64307 9.88506 8.69141 9.8625L12.477 17.9105C12.4157 17.9578 12.348 17.9954 12.2729 18.0233C10.0503 18.8258 8.1876 20.406 7.02852 22.4738ZM7.82988 22.5941C8.90195 20.8163 10.5466 19.4553 12.4941 18.7431L25.5706 39.8343L7.82988 22.5941ZM29.4313 39.8343L41.6345 20.1503C41.744 19.9741 41.6893 19.7421 41.5131 19.6325C41.3369 19.5229 41.1049 19.5777 40.9953 19.7539L27.501 41.5219L13.1258 18.3349C15.1356 16.2262 17.8459 15.0649 20.7624 15.0649C21.0567 15.0649 21.336 14.9812 21.5691 14.8211C21.741 14.704 21.7851 14.4698 21.668 14.299C21.6402 14.2582 21.6047 14.2233 21.5634 14.1962C21.5221 14.1692 21.4759 14.1505 21.4274 14.1413C21.3789 14.1321 21.3291 14.1326 21.2808 14.1427C21.2325 14.1528 21.1866 14.1724 21.1459 14.2002C21.118 14.2195 21.0879 14.2356 21.0557 14.2507L20.2049 4.78682C20.2854 4.7793 20.3628 4.74814 20.424 4.69336C22.3621 2.93636 24.885 1.96403 27.501 1.96592C30.1231 1.96592 32.6368 2.93486 34.5779 4.69336C34.6392 4.74922 34.7165 4.78037 34.7971 4.78682L33.9463 14.2507C33.9151 14.2367 33.8851 14.2195 33.8571 14.2002C31.9794 12.9197 29.7815 12.244 27.5021 12.244C25.9187 12.244 24.3868 12.5652 22.9484 13.2001C22.9033 13.22 22.8625 13.2486 22.8284 13.2842C22.7943 13.3199 22.7676 13.3619 22.7497 13.4079C22.7319 13.4539 22.7233 13.5029 22.7244 13.5522C22.7255 13.6016 22.7363 13.6502 22.7562 13.6953C22.776 13.7405 22.8046 13.7812 22.8403 13.8153C22.8759 13.8494 22.918 13.8762 22.9639 13.894C23.0099 13.9119 23.059 13.9205 23.1083 13.9194C23.1576 13.9183 23.2062 13.9075 23.2514 13.8876C24.5931 13.2957 26.0229 12.996 27.5021 12.996C29.6301 12.996 31.6818 13.6276 33.4339 14.8222C33.6681 14.9812 33.9463 15.066 34.2438 15.066C37.1636 15.066 39.8803 16.2326 41.8923 18.351C42.0523 18.5196 42.2532 18.6507 42.4745 18.7302C44.4371 19.4392 46.0946 20.8056 47.1721 22.5941L29.4313 39.8343ZM48.4096 22.6425C48.2431 22.6973 48.0594 22.6264 47.9734 22.4738C46.8133 20.406 44.9506 18.8258 42.7291 18.0233C42.6539 17.9965 42.5862 17.9578 42.525 17.9105L46.3105 9.8625C46.3578 9.88506 46.4104 9.89795 46.4652 9.89902C50.0166 9.94951 52.9062 12.8811 52.9062 16.4324C52.9062 19.2641 51.0994 21.7595 48.4096 22.6425Z"></path><path d="M20.9033 45.5664H34.0969C34.3042 45.5664 34.4729 45.3978 34.4729 45.1904C34.4729 44.9831 34.3042 44.8145 34.0969 44.8145H20.9033C20.696 44.8145 20.5273 44.9831 20.5273 45.1904C20.5273 45.3978 20.696 45.5664 20.9033 45.5664ZM20.9033 49.6033H34.0969C34.3042 49.6033 34.4729 49.4347 34.4729 49.2273C34.4729 49.02 34.3042 48.8514 34.0969 48.8514H20.9033C20.696 48.8514 20.5273 49.02 20.5273 49.2273C20.5273 49.4347 20.696 49.6033 20.9033 49.6033Z"></path></svg>