<svg xmlns="http://www.w3.org/2000/svg" width="63" height="59" viewBox="0 0 63 59"><path d="M18.5166 18.7175L18.5895 19.2121L18.5166 18.7175ZM35.5012 9.0534L35.0162 9.17516L35.5012 9.0534ZM20.9429 9.85874L21.4171 10.0175L20.9429 9.85874ZM63 54.9578L57.7131 52.6379L58.3475 58.3765L63 54.9578ZM1.0856 0.774745C0.520991 1.89362 0.237898 3.76701 0.372931 5.86169C0.509021 7.97275 1.07348 10.3763 2.27212 12.5745C3.47321 14.7773 5.31341 16.7766 7.99166 18.0539C10.6688 19.3306 14.1451 19.8678 18.5895 19.2121L18.4436 18.2228C14.1532 18.8557 10.8849 18.3258 8.42212 17.1513C5.96046 15.9773 4.26539 14.1412 3.15008 12.0958C2.0323 10.0459 1.49922 7.7885 1.37086 5.79736C1.24144 3.78984 1.527 2.11973 1.97837 1.22526L1.0856 0.774745ZM18.5895 19.2121C21.2537 18.8191 25.8615 17.6513 29.6572 15.9406C31.5518 15.0867 33.2827 14.0806 34.4661 12.9405C35.6483 11.8017 36.3654 10.4422 35.9861 8.93164L35.0162 9.17516C35.2696 10.1842 34.836 11.1957 33.7724 12.2203C32.71 13.2437 31.0998 14.1935 29.2463 15.0289C25.5456 16.6969 21.0286 17.8415 18.4436 18.2228L18.5895 19.2121ZM35.9861 8.93164C35.5216 7.08158 33.9125 5.98861 32.2387 5.36363C30.5508 4.73335 28.6686 4.5267 27.4133 4.5267V5.5267C28.5843 5.5267 30.3417 5.72271 31.8889 6.30045C33.4503 6.88348 34.6719 7.80386 35.0162 9.17516L35.9861 8.93164ZM27.4133 4.5267C26.6062 4.5267 25.2844 4.52136 23.9553 5.18311C22.6045 5.85559 21.3126 7.17955 20.4688 9.70002L21.4171 10.0175C22.1909 7.70589 23.3253 6.61383 24.401 6.0783C25.4981 5.53204 26.6027 5.5267 27.4133 5.5267V4.5267ZM20.4688 9.70002C20.1956 10.5162 15.5235 23.2909 18.0133 35.2578C19.2635 41.2667 22.3244 47.0978 28.6593 51.0955C34.9809 55.0849 44.4965 57.2061 58.575 55.9499L58.4861 54.9539C44.5314 56.199 35.2623 54.08 29.193 50.2498C23.1368 46.428 20.2004 40.8606 18.9923 35.0541C16.5655 23.3901 21.1327 10.8668 21.4171 10.0175L20.4688 9.70002Z"></path></svg>