<svg xmlns="http://www.w3.org/2000/svg" width="16" height="16" viewBox="0 0 16 16"><g><path d="M15.1574 8C15.1592 8.30356 15.0802 8.60213 14.9284 8.86503C14.7766 9.12793 14.5575 9.34567 14.2937 9.49588L3.43353 15.766C3.17151 15.9192 2.87344 16 2.5699 16C2.26636 16 1.96829 15.9192 1.70628 15.766C1.44249 15.6158 1.22345 15.398 1.07166 15.1351C0.919879 14.8723 0.840824 14.5737 0.84262 14.2701V1.72988C0.840832 1.42632 0.919886 1.12776 1.07166 0.864859C1.22344 0.601963 1.44247 0.38421 1.70625 0.23397C1.96827 0.0807516 2.26635 0 2.56989 0C2.87342 0 3.1715 0.0807516 3.43353 0.23397L14.2937 6.50413C14.5575 6.65434 14.7766 6.87208 14.9284 7.13498C15.0801 7.39787 15.1592 7.69644 15.1574 8Z"></path></g></svg>