<svg xmlns="http://www.w3.org/2000/svg" width="50" height="50" viewBox="0 0 50 50"><path d="M29.25 29.2502H47.9996V48.0001H29.25V29.2502Z"></path><path d="M25.4997 44.2498C15.1442 44.2498 6.75014 35.8545 6.75014 25.5C6.75014 15.1433 15.1448 6.75019 25.4997 6.75019C35.8541 6.75019 44.2493 15.1438 44.2493 25.5H47.9995C47.9995 13.0744 37.9252 3 25.4997 3C13.0737 3 3 13.0744 3 25.5C3 37.9256 13.0737 48 25.4997 48V44.2498Z"></path><path d="M25.4992 36.7501C19.2859 36.7501 14.2493 31.7129 14.2493 25.5001C14.2493 19.2856 19.2859 14.2501 25.4992 14.2501C31.712 14.2501 36.7491 19.2856 36.7491 25.5001H40.4992C40.4992 17.2161 33.7831 10.4999 25.4992 10.4999C17.2148 10.4999 10.4992 17.2161 10.4992 25.5001C10.4992 33.784 17.2148 40.5003 25.4992 40.5003V36.7501Z"></path><path d="M25.5007 29.2502C24.759 29.2502 24.0339 29.0303 23.4172 28.6182C22.8005 28.2062 22.3199 27.6205 22.036 26.9352C21.7522 26.2499 21.6779 25.4959 21.8226 24.7684C21.9673 24.041 22.3245 23.3727 22.8489 22.8483C23.3734 22.3238 24.0416 21.9666 24.7691 21.8219C25.4965 21.6772 26.2506 21.7515 26.9358 22.0353C27.6211 22.3192 28.2068 22.7998 28.6188 23.4166C29.0309 24.0333 29.2508 24.7583 29.2508 25.5001H33.0004C33.0004 21.3584 29.6423 18.0002 25.5007 18.0002C21.3579 18.0002 18.001 21.3584 18.001 25.5001C18.001 29.6417 21.3579 32.9999 25.5007 32.9999V29.2502Z"></path></svg>