<svg xmlns="http://www.w3.org/2000/svg" width="50" height="50" viewBox="0 0 50 50"><g><path d="M50.0003 25C50.0003 26.7257 48.6007 28.1248 46.875 28.1248C45.1455 28.1248 43.7498 26.7258 43.7498 25.0001C43.7498 23.2749 45.1455 21.8749 46.875 21.8749C48.6007 21.8749 50.0003 23.2748 50.0003 25ZM43.7498 9.375C43.7498 11.0999 42.3508 12.4998 40.6251 12.4998C38.8956 12.4998 37.4999 11.0999 37.4999 9.37512C37.4999 7.6499 38.8956 6.24988 40.6251 6.24988C42.3507 6.24988 43.7498 7.64978 43.7498 9.375ZM40.625 43.7498C38.8975 43.7498 37.5 42.3527 37.5 40.6251C37.5 38.8956 38.8975 37.4999 40.625 37.4999C42.3507 37.4999 43.7498 38.8956 43.7498 40.6251C43.7498 42.3507 42.3508 43.7498 40.6251 43.7498H40.625ZM22.5344 27.0829C21.6727 29.5044 19.3839 31.25 16.6669 31.25C13.2156 31.25 10.4169 28.4504 10.4169 25C10.4169 21.5492 13.2156 18.7502 16.6669 18.7502C19.3844 18.7502 21.6732 20.4954 22.5344 22.9168H29.6874L35.4171 0L0 25L35.4171 50.0003L29.6874 27.0829H22.5344Z"></path></g></svg>