<svg xmlns="http://www.w3.org/2000/svg" width="40" height="40" viewBox="0 0 40 40" fill="none"><rect width="40" height="40" rx="20" fill="white"></rect><g clip-path="url(#clip0_1151_441)"><path d="M20.0027 9H19.9973C13.9321 9 9 13.9335 9 20C9 22.4062 9.7755 24.6365 11.0941 26.4474L9.72325 30.5339L13.9514 29.1823C15.6908 30.3345 17.7656 31 20.0027 31C26.0679 31 31 26.0651 31 20C31 13.9349 26.0679 9 20.0027 9Z" fill="#4CAF50"></path><path d="M26.4034 24.5335C26.138 25.2829 25.0848 25.9044 24.2446 26.0859C23.6699 26.2083 22.9191 26.3059 20.3919 25.2581C17.1593 23.9189 15.0775 20.634 14.9153 20.4209C14.7599 20.2077 13.609 18.6815 13.609 17.103C13.609 15.5245 14.4106 14.7559 14.7338 14.4259C14.9991 14.155 15.4378 14.0312 15.8585 14.0312C15.9946 14.0312 16.117 14.0381 16.227 14.0436C16.5501 14.0574 16.7124 14.0766 16.9255 14.5868C17.1909 15.2261 17.8371 16.8046 17.9141 16.9669C17.9925 17.1291 18.0709 17.3491 17.9609 17.5623C17.8578 17.7823 17.767 17.8799 17.6048 18.0669C17.4425 18.2539 17.2885 18.3969 17.1263 18.5976C16.9778 18.7723 16.81 18.9593 16.997 19.2824C17.184 19.5986 17.8303 20.6532 18.7818 21.5002C20.0096 22.5934 21.0051 22.9426 21.3613 23.0911C21.6266 23.2011 21.9429 23.175 22.1368 22.9688C22.3829 22.7034 22.6868 22.2634 22.9961 21.8303C23.2161 21.5195 23.4939 21.481 23.7854 21.591C24.0824 21.6941 25.654 22.471 25.9771 22.6319C26.3003 22.7941 26.5134 22.8711 26.5918 23.0073C26.6688 23.1434 26.6688 23.7828 26.4034 24.5335Z" fill="#FAFAFA"></path></g><defs><clipPath id="clip0_1151_441"><rect width="22" height="22" fill="white" transform="translate(9 9)"></rect></clipPath></defs></svg>