<?xml version="1.0" encoding="UTF-8"?>
<svg xmlns="http://www.w3.org/2000/svg" width="36" height="36" viewBox="0 0 36 36">
  <path d="M31.4338 33.8704H30.611C30.4222 33.8704 30.2695 33.7175 30.2695 33.5289C30.2695 33.3404 30.4222 33.1875 30.611 33.1875H31.4338C31.5195 33.1874 31.6016 33.1533 31.6622 33.0928C31.7228 33.0322 31.7568 32.9501 31.7569 32.8644V29.2303C31.7569 29.0417 31.9096 28.8889 32.0984 28.8889C32.2871 28.8889 32.4398 29.0417 32.4398 29.2303V32.8644C32.4398 33.419 31.9887 33.8704 31.4338 33.8704Z"></path>
  <path d="M31.4327 19.7686H30.1319V14.2C30.9752 14.456 31.9244 14.1624 32.4638 13.4079C33.1364 12.4587 32.9213 11.1409 31.9687 10.4648L30.1319 9.15378V1.88487C30.1319 1.17127 29.5515 0.587463 28.8345 0.587463H25.4953C24.7784 0.587463 24.1979 1.17127 24.1979 1.88487V4.92694L18.6601 0.980088C18.3022 0.725262 17.8737 0.588323 17.4344 0.588323C16.995 0.588323 16.5666 0.725262 16.2087 0.980088L2.90351 10.4648C1.95437 11.1374 1.72901 12.4519 2.40844 13.4079C2.66457 13.7673 3.02717 14.0371 3.445 14.1793C3.86282 14.3214 4.31475 14.3286 4.73691 14.2V29.8747H3.34051C3.1527 29.8747 2.99907 30.0283 2.99907 30.2161C2.99907 30.4039 3.1527 30.5575 3.34051 30.5575H12.6613V32.8655C12.6613 34.2688 13.8051 35.4125 15.2083 35.4125H31.4327C32.8394 35.4125 33.9832 34.2688 33.9832 32.8655V22.3156C33.9832 20.9123 32.8394 19.7686 31.4327 19.7686ZM24.8809 1.88487C24.8809 1.54688 25.154 1.27034 25.4954 1.27034H28.8346C29.176 1.27034 29.4491 1.54688 29.4491 1.88487V8.6689L24.8809 5.41174V1.88487ZM4.47746 12.6738C4.41903 12.7135 4.3501 12.7349 4.27946 12.7353C4.22472 12.7356 4.17072 12.7227 4.12199 12.6977C4.07327 12.6728 4.03125 12.6365 3.99947 12.5919C3.89021 12.4383 3.92776 12.2266 4.08139 12.1173L6.93228 10.0858C7.08591 9.97657 7.29762 10.0141 7.40689 10.1678C7.51615 10.3215 7.48198 10.5331 7.32835 10.6424L4.47746 12.6738ZM12.6613 29.8747H5.41979V13.8517L17.4344 5.29228L29.4491 13.8517V19.7686H28.4214V18.0922C28.4214 16.5968 27.2025 15.3813 25.7105 15.3813H20.934C19.4386 15.3813 18.2231 16.5968 18.2231 18.0922V19.7686H15.2083C13.8051 19.7686 12.6613 20.9089 12.6613 22.3156V29.8747ZM25.748 18.0922V19.7686H20.893V18.0922C20.893 18.0717 20.9101 18.0546 20.934 18.0546H25.7105C25.7204 18.0547 25.7299 18.0587 25.7369 18.0658C25.7439 18.0728 25.7479 18.0823 25.748 18.0922ZM33.3003 32.8655C33.3003 33.8932 32.4604 34.7297 31.4327 34.7297H15.2083C14.1807 34.7297 13.3442 33.8932 13.3442 32.8655V25.781C14.0987 26.9555 15.4098 27.7374 16.9018 27.7544V27.9183C16.9018 28.3416 17.2159 28.6899 17.6256 28.748V29.7244C17.6256 30.0863 17.9227 30.3834 18.2846 30.3834H19.1176C19.483 30.3834 19.78 30.0864 19.78 29.7244V28.748C20.1863 28.69 20.5004 28.3417 20.5004 27.9183V27.7578H26.1407V27.9183C26.1407 28.3416 26.4548 28.6899 26.8645 28.748V29.7244C26.8645 30.0863 27.1616 30.3834 27.5235 30.3834H28.3566C28.7219 30.3834 29.0189 30.0864 29.0189 29.7244V28.748C29.4252 28.69 29.7393 28.3417 29.7393 27.9183V27.7544C31.2347 27.7373 32.5424 26.9555 33.3004 25.781V32.8655H33.3003ZM18.3085 29.7244V28.7582H19.1006L19.1176 29.7005L18.3085 29.7244ZM27.5473 29.7244V28.7582H28.3394L28.3565 29.7005L27.5473 29.7244ZM33.3003 23.4695C33.3003 25.4396 31.7058 27.0477 29.7393 27.0715V26.8462C29.7393 26.7358 29.7177 26.6266 29.6755 26.5246C29.6333 26.4227 29.5715 26.3301 29.4935 26.2521C29.4154 26.1741 29.3228 26.1122 29.2209 26.07C29.119 26.0279 29.0097 26.0062 28.8994 26.0063H26.9806C26.5197 26.0063 26.1407 26.3819 26.1407 26.8462V27.0749H20.5004V26.8462C20.5005 26.7358 20.4788 26.6266 20.4366 26.5246C20.3945 26.4227 20.3326 26.3301 20.2546 26.2521C20.1766 26.1741 20.084 26.1122 19.982 26.07C19.8801 26.0279 19.7708 26.0062 19.6605 26.0063H17.7418C17.2809 26.0063 16.9019 26.3819 16.9019 26.8462V27.0715C14.9353 27.0476 13.3443 25.4396 13.3443 23.4695V22.3155C13.3443 21.2878 14.1808 20.4514 15.2084 20.4514H31.4328C32.4605 20.4514 33.3004 21.2878 33.3004 22.3155V23.4695H33.3003Z"></path>
</svg>
