<svg xmlns="http://www.w3.org/2000/svg" width="40" height="40" viewBox="0 0 40 40" fill="none"><rect width="40" height="40" rx="20" fill="#292727"></rect><rect x="0.5" y="0.5" width="39" height="39" rx="19.5" stroke="white" stroke-opacity="0.1"></rect><g clip-path="url(#clip0_1151_6062)"><path d="M20.0027 9H19.9973C13.9321 9 9 13.9335 9 20C9 22.4062 9.7755 24.6365 11.0941 26.4474L9.72325 30.5339L13.9514 29.1823C15.6908 30.3345 17.7656 31 20.0027 31C26.0679 31 31 26.0651 31 20C31 13.9349 26.0679 9 20.0027 9Z" fill="#4CAF50"></path><path d="M26.4037 24.5335C26.1384 25.2829 25.0851 25.9044 24.245 26.0859C23.6702 26.2083 22.9195 26.3059 20.3922 25.2581C17.1596 23.9189 15.0779 20.634 14.9156 20.4209C14.7603 20.2077 13.6094 18.6815 13.6094 17.103C13.6094 15.5245 14.411 14.7559 14.7341 14.4259C14.9995 14.155 15.4381 14.0312 15.8589 14.0312C15.995 14.0312 16.1174 14.0381 16.2274 14.0436C16.5505 14.0574 16.7127 14.0766 16.9259 14.5868C17.1912 15.2261 17.8375 16.8046 17.9145 16.9669C17.9929 17.1291 18.0713 17.3491 17.9613 17.5623C17.8581 17.7823 17.7674 17.8799 17.6051 18.0669C17.4429 18.2539 17.2889 18.3969 17.1266 18.5976C16.9781 18.7723 16.8104 18.9593 16.9974 19.2824C17.1844 19.5986 17.8306 20.6532 18.7821 21.5002C20.01 22.5934 21.0055 22.9426 21.3616 23.0911C21.627 23.2011 21.9432 23.175 22.1371 22.9688C22.3832 22.7034 22.6871 22.2634 22.9965 21.8303C23.2165 21.5195 23.4943 21.481 23.7858 21.591C24.0828 21.6941 25.6544 22.471 25.9775 22.6319C26.3006 22.7941 26.5137 22.8711 26.5921 23.0073C26.6691 23.1434 26.6691 23.7828 26.4037 24.5335Z" fill="#FAFAFA"></path></g><defs><clipPath id="clip0_1151_6062"><rect width="22" height="22" fill="white" transform="translate(9 9)"></rect></clipPath></defs></svg>