<?xml version="1.0" encoding="UTF-8"?>
<svg xmlns="http://www.w3.org/2000/svg" width="132" height="48" viewBox="0 0 132 48" fill="none">
  <path d="M40.2498 39.5794L40.0522 39.7793L43.0869 42.8494L43.2844 42.6495L40.2498 39.5794Z" fill="black"></path>
  <path d="M43.0869 39.5796L40.0522 42.6497L40.2498 42.8495L43.2844 39.7795L43.0869 39.5796Z" fill="black"></path>
  <path d="M64.6777 14.5798C64.6777 12.8895 65.9928 11.5591 67.7707 11.5591C69.5123 11.5591 70.8283 12.8895 70.8283 14.5798C70.8283 16.3069 69.5123 17.6373 67.7707 17.6373C65.9928 17.6373 64.6777 16.3069 64.6777 14.5798ZM65.1006 23.3782L70.2555 20.2133V39.1103H65.1006V23.3782Z" fill="#6814E1"></path>
  <path d="M43.4077 32.9396V20.2065H48.599V31.2483C48.599 33.7753 50.8472 35.4176 53.6058 34.0806C53.9931 33.8889 54.3192 33.5906 54.5465 33.22C54.7738 32.8493 54.8933 32.4213 54.8911 31.9851V20.2075H60.0823V39.1619H54.8911V37.4358H54.5362C53.6822 38.6607 52.1539 39.6293 49.9848 39.6293C46.0387 39.6293 43.4077 36.6434 43.4077 32.9396" fill="#6814E1"></path>
  <path d="M96.7871 20.2066H101.909V22.7242H102.261C103.078 21.1064 104.927 19.7393 107.061 19.7393L108.594 19.7798L108.554 24.9544H106.638C103.794 24.9544 101.945 26.7531 101.945 30.2779V39.162H96.7899L96.7871 20.2066Z" fill="#6814E1"></path>
  <path d="M124.21 31.8335C125.421 27.9912 123.291 24.7387 119.858 24.7387C117.086 24.7387 115.13 26.8606 115.13 29.7023C115.13 33.1442 118.074 35.5581 121.859 34.2852C122.414 34.093 122.916 33.7709 123.324 33.3452C123.733 32.9195 124.037 32.4022 124.21 31.8354V31.8335ZM109.868 29.7042C109.868 24.0575 114.027 19.7412 119.858 19.7412C125.726 19.7412 129.813 24.0933 129.813 29.7042C129.813 35.315 125.689 39.6294 119.863 39.6294C113.995 39.6294 109.872 35.3131 109.872 29.7023" fill="#6814E1"></path>
  <path d="M83.7216 24.0913C85.9261 24.0913 87.5969 25.5989 87.8455 27.5078H79.5269C79.7755 25.8175 81.3039 24.0913 83.7179 24.0913H83.7216ZM87.6136 33.4324C86.8183 34.6667 85.3337 34.9899 83.7887 34.9899C81.3364 34.9899 79.5231 33.4823 79.4877 30.9968H93.0722V29.6664C93.0722 24.0555 89.481 19.7393 83.7216 19.7393C78.4959 19.7393 74.1577 23.7672 74.1577 29.7022C74.1577 35.0634 77.6577 39.097 82.8117 39.5803C83.1553 39.6124 83.5065 39.6293 83.8641 39.6293C87.4479 39.6293 91.0307 38.3687 92.4184 34.2418C92.4184 34.2418 92.5963 33.7245 92.6382 33.5728C92.6484 33.5361 92.6615 33.4871 92.6755 33.4324H87.6136Z" fill="#6814E1"></path>
  <path d="M32.366 35.9754L28.2681 31.8297C26.087 33.4335 23.4598 34.297 20.7634 34.2964C13.6853 34.2964 7.93428 28.4744 7.93428 21.3174C7.93428 14.1604 13.6909 8.33562 20.7634 8.33562C27.836 8.33562 33.5935 14.1575 33.5935 21.3146C33.5956 23.4835 33.0575 25.618 32.0289 27.5209L36.2422 31.7609C38.2776 28.6674 39.356 25.0307 39.3398 21.3146C39.3398 10.9503 31.0062 2.52124 20.7634 2.52124C10.5206 2.52124 2.18701 10.9521 2.18701 21.3146C2.18701 31.677 10.5243 40.107 20.7634 40.107C23.0728 40.1088 25.3619 39.6719 27.5119 38.819L34.3153 45.6971L38.1338 41.834L32.3511 35.9829L32.366 35.9716" fill="#EB3528"></path>
</svg>
